{
.appVersion = "1147";
DisplayStrings = (
"/zero.numr/one.numr/zero.numr/two.numr/zero.numr/three.numr/zero.numr/four.numr/zero.numr/five.numr/zero.numr/six.numr/zero.numr/seven.numr/zero.numr/eight.numr/zero.numr/nine.numr/zero.numr/zero.numr",
"/four.numr/five.numr/six.numr/nine.numr",
k,
j,
"/jdotless",
"/six.subs/six.subs/nine.subs/nine.subs/six.dnom/six.dnom/nine.dnom/nine.dnom/sixsuperior/sixsuperior/ninesuperior/ninesuperior/onesixth/onesixth/fivesixths/fivesixths/oneninth/oneninth"
);
classes = (
{
automatic = 1;

glyphs = (
{
glyphname = A;
layers = (
{
anchors = (
{
name = bottom;
position = "{335, 0}";
},
{
name = mark0;
position = "{329, -83}";
},
{
name = ogonek;
position = "{615, 10}";
},
{
name = top;
position = "{341, 743}";
}
);
layerId = UUID0;
paths = (
{
closed = 1;
nodes = (
"-11 43 LINE",
"-11 0 LINE",
"214 0 LINE",
"214 43 LINE",
"125 53 LINE",
"178 211 LINE",
"490 211 LINE",
"543 52 LINE",
"455 43 LINE",
"455 0 LINE",
"699 0 LINE",
"699 43 LINE",
"634 52 LINE",
"383 750 LINE",
"301 750 LINE",
"53 52 LINE"
);
},
{
closed = 1;
nodes = (
"195 263 LINE",
"304 593 LINE",
"332 691 LINE",
"359 596 LINE",
"472 263 LINE"
);
}
);
width = 686;
},
{
anchors = (
{
name = bottom;
position = "{344, 0}";
},
{
name = mark0;
position = "{280, -83}";
},
{
name = ogonek;
position = "{649, 10}";
},
{
name = top;
position = "{355, 743}";
}
);
layerId = "D0FF1146-32FF-444C-BC95-9626761FC64D";
paths = (
{
closed = 1;
nodes = (
"-22 74 LINE",
"-21 0 LINE",
"260 0 LINE",
"260 74 LINE",
"186 83 LINE",
"213 191 LINE",
"426 191 LINE",
"454 85 LINE",
"389 74 LINE",
"389 0 LINE",
"729 0 LINE",
"729 74 LINE",
"677 85 LINE",
"463 745 LINE",
"248 745 LINE",
"34 86 LINE"
);
},
{
closed = 1;
nodes = (
"234 276 LINE",
"306 563 LINE",
"317 625 LINE",
"328 563 LINE",
"404 276 LINE"
);
}
);
width = 715;
}
);
unicode = 0041;
},
{
glyphname = Aogonek;
layers = (
{
layerId = UUID0;
paths = (
{
closed = 1;
nodes = (
"-11 43 LINE",
"-11 0 LINE",
"214 0 LINE",
"214 43 LINE",
"125 53 LINE",
"178 211 LINE",
"490 211 LINE",
"543 52 LINE",
"455 43 LINE",
"455 0 LINE",
"579 0 LINE",
"509 -30 OFFCURVE",
"452 -101 OFFCURVE",
"452 -155 CURVE SMOOTH",
"452 -226 OFFCURVE",
"512 -249 OFFCURVE",
"573 -249 CURVE SMOOTH",
"614 -249 OFFCURVE",
"658 -236 OFFCURVE",
"686 -215 CURVE",
"686 -173 LINE",
"663 -185 OFFCURVE",
"634 -193 OFFCURVE",
"608 -193 CURVE SMOOTH",
"567 -193 OFFCURVE",
"530 -176 OFFCURVE",
"530 -129 CURVE SMOOTH",
"530 -87 OFFCURVE",
"577 -28 OFFCURVE",
"642 0 CURVE",
"699 0 LINE",
"699 43 LINE",
"634 52 LINE",
"384 750 LINE",
"302 750 LINE",
"53 52 LINE"
);
},
{
closed = 1;
nodes = (
"195 263 LINE",
"305 593 LINE",
"332 691 LINE",
"360 596 LINE",
"472 263 LINE"
);
}
);
width = 678;
},
{
layerId = "D0FF1146-32FF-444C-BC95-9626761FC64D";
paths = (
{
closed = 1;
nodes = (
"-22 74 LINE",
"-21 0 LINE",
"260 0 LINE",
"260 74 LINE",
"186 83 LINE",
"213 191 LINE",
"426 191 LINE",
"454 85 LINE",
"389 74 LINE",
"389 0 LINE",
"595 0 LINE",
"506 -25 OFFCURVE",
"428 -89 OFFCURVE",
"428 -149 CURVE SMOOTH",
"428 -209 OFFCURVE",
"502 -251 OFFCURVE",
"591 -251 CURVE SMOOTH",
"632 -251 OFFCURVE",
"692 -240 OFFCURVE",
"720 -219 CURVE",
"720 -139 LINE",
"698 -148 OFFCURVE",
"686 -150 OFFCURVE",
"664 -150 CURVE SMOOTH",
"620 -150 OFFCURVE",
"593 -132 OFFCURVE",
"593 -104 CURVE SMOOTH",
"593 -66 OFFCURVE",
"632 -22 OFFCURVE",
"697 0 CURVE",
"729 0 LINE",
"729 74 LINE",
"677 85 LINE",
"463 745 LINE",
"248 745 LINE",
"34 86 LINE"
);
},
{
closed = 1;
nodes = (
"234 276 LINE",
"306 563 LINE",
"317 625 LINE",
"328 563 LINE",
"404 276 LINE"
);
}
);
width = 715;
}
);
unicode = 0104;
},
{
glyphname = Aring;
layers = (
{
anchors = (
{
name = _top;
position = "{340, 743}";
},
{
name = mark0;
position = "{349, -83}";
},
{
name = ogonek;
position = "{615, 10}";
},
{
name = top;
position = "{340, 983}";
}
);
layerId = UUID0;
paths = (
{
closed = 1;
nodes = (
"214 0 LINE",
"214 43 LINE",
"125 53 LINE",
"178 211 LINE",
"490 211 LINE",
"543 52 LINE",
"455 43 LINE",
"455 0 LINE",
"699 0 LINE",
"699 43 LINE",
"634 52 LINE",
"384.997 744.447 LINE",
"447.537 757.03 OFFCURVE",
"496.19 796.235 OFFCURVE",
"497 861 CURVE SMOOTH",
"498 934 OFFCURVE",
"444 983 OFFCURVE",
"345 983 CURVE SMOOTH",
"267 983 OFFCURVE",
"185 944 OFFCURVE",
"183 863 CURVE SMOOTH",
"181.274 802.59 OFFCURVE",
"219.765 754.841 OFFCURVE",
"298.474 742.892 CURVE",
"53 52 LINE",
"-11 43 LINE",
"-11 0 LINE"
);
},
{
closed = 1;
nodes = (
"304 593 LINE",
"331 691 LINE",
"359 596 LINE",
"472 263 LINE",
"195 263 LINE"
);
},
{
closed = 1;
nodes = (
"245 916 OFFCURVE",
"281 943 OFFCURVE",
"343 943 CURVE SMOOTH",
"409 943 OFFCURVE",
"436 906 OFFCURVE",
"436 857 CURVE SMOOTH",
"436 807 OFFCURVE",
"405 779 OFFCURVE",
"341 779 CURVE SMOOTH",
"274 779 OFFCURVE",
"245 819 OFFCURVE",
"245 864 CURVE SMOOTH"
);
}
);
width = 686;
},
{
anchors = (
{
name = _top;
position = "{355, 743}";
},
{
name = mark0;
position = "{330, -83}";
},
{
name = ogonek;
position = "{649, 10}";
},
{
name = top;
position = "{355, 983}";
}
);
layerId = "D0FF1146-32FF-444C-BC95-9626761FC64D";
paths = (
{
closed = 1;
nodes = (
"260 0 LINE",
"260 74 LINE",
"186 83 LINE",
"213 191 LINE",
"426 191 LINE",
"454 85 LINE",
"389 74 LINE",
"389 0 LINE",
"729 0 LINE",
"729 74 LINE",
"677 85 LINE",
"464.891 739.169 LINE",
"511.217 761.506 OFFCURVE",
"537.391 799.696 OFFCURVE",
"538 849 CURVE SMOOTH",
"539 922 OFFCURVE",
"490 983 OFFCURVE",
"355 983 CURVE SMOOTH",
"243 983 OFFCURVE",
"173 934 OFFCURVE",
"172 852 CURVE SMOOTH",
"170.636 803.588 OFFCURVE",
"187.87 758.431 OFFCURVE",
"244.622 734.598 CURVE",
"34 86 LINE",
"-22 74 LINE",
"-21 0 LINE"
);
},
{
closed = 1;
nodes = (
"306 563 LINE",
"317 625 LINE",
"328 563 LINE",
"404 276 LINE",
"234 276 LINE"
);
},
{
closed = 1;
nodes = (
"281 891 OFFCURVE",
"297 919 OFFCURVE",
"355 919 CURVE SMOOTH",
"412 919 OFFCURVE",
"428 884 OFFCURVE",
"428 845 CURVE SMOOTH",
"428 807 OFFCURVE",
"413 780 OFFCURVE",
"354 780 CURVE SMOOTH",
"299 780 OFFCURVE",
"281 817 OFFCURVE",
"281 851 CURVE SMOOTH"
);
}
);
width = 715;
}
);
unicode = 00C5;
},
{
glyphname = Aringacute;
layers = (
{
anchors = (
{
name = _top;
position = "{340, 743}";
},
{
name = mark0;
position = "{329, -83}";
},
{
name = ogonek;
position = "{615, 10}";
},
{
name = top;
position = "{340, 864}";
}
);
layerId = UUID0;
paths = (
{
closed = 1;
nodes = (
"214 0 LINE",
"214 43 LINE",
"125 53 LINE",
"178 211 LINE",
"490 211 LINE",
"543 52 LINE",
"455 43 LINE",
"455 0 LINE",
"699 0 LINE",
"699 43 LINE",
"634 52 LINE",
"397 710 LINE",
"455 720 OFFCURVE",
"487 752 OFFCURVE",
"487 792 CURVE SMOOTH",
"487 841 OFFCURVE",
"450 877 OFFCURVE",
"388 887 CURVE",
"412 900 OFFCURVE",
"429 915 OFFCURVE",
"452 946 CURVE",
"371 983 LINE",
"307 888 LINE",
"236 882 OFFCURVE",
"193 845 OFFCURVE",
"193 795 CURVE SMOOTH",
"193 750 OFFCURVE",
"230 719 OFFCURVE",
"288 709 CURVE",
"53 52 LINE",
"-11 43 LINE",
"-11 0 LINE"
);
},
{
closed = 1;
nodes = (
"304 593 LINE",
"331 691 LINE",
"359 596 LINE",
"472 263 LINE",
"195 263 LINE"
);
},
{
closed = 1;
nodes = (
"254 827 OFFCURVE",
"290 850 OFFCURVE",
"340 850 CURVE SMOOTH",
"391 850 OFFCURVE",
"426 827 OFFCURVE",
"426 795 CURVE SMOOTH",
"426 765 OFFCURVE",
"391 744 OFFCURVE",
"340 744 CURVE SMOOTH",
"290 744 OFFCURVE",
"254 763 OFFCURVE",
"254 795 CURVE SMOOTH"
);
}
);
width = 686;
},
{
anchors = (
{
name = _top;
position = "{355, 743}";
},
{
name = mark0;
position = "{280, -83}";
},
{
name = ogonek;
position = "{649, 10}";
},
{
name = top;
position = "{355, 864}";
}
);
layerId = "D0FF1146-32FF-444C-BC95-9626761FC64D";
paths = (
{
closed = 1;
nodes = (
"260 0 LINE",
"260 74 LINE",
"186 83 LINE",
"213 191 LINE",
"426 191 LINE",
"454 85 LINE",
"389 74 LINE",
"389 0 LINE",
"729 0 LINE",
"729 74 LINE",
"677 85 LINE",
"481 687 LINE",
"522 701 OFFCURVE",
"538 748 OFFCURVE",
"538 801 CURVE SMOOTH",
"538 869 OFFCURVE",
"480 904 OFFCURVE",
"430 911 CURVE",
"450 919 OFFCURVE",
"465 936 OFFCURVE",
"487 957 CURVE",
"362 981 LINE",
"302 915 LINE",
"228 908 OFFCURVE",
"171 871 OFFCURVE",
"171 801 CURVE SMOOTH",
"171 752 OFFCURVE",
"190 704 OFFCURVE",
"232 688 CURVE",
"34 86 LINE",
"-22 74 LINE",
"-21 0 LINE"
);
},
{
closed = 1;
nodes = (
"306 563 LINE",
"317 625 LINE",
"328 563 LINE",
"404 276 LINE",
"234 276 LINE"
);
},
{
closed = 1;
nodes = (
"275 827 OFFCURVE",
"295 857 OFFCURVE",
"353 857 CURVE SMOOTH",
"413 857 OFFCURVE",
"434 827 OFFCURVE",
"434 801 CURVE SMOOTH",
"434 775 OFFCURVE",
"416 743 OFFCURVE",
"355 743 CURVE SMOOTH",
"299 743 OFFCURVE",
"275 775 OFFCURVE",
"275 799 CURVE SMOOTH"
);
}
);
width = 715;
}
);
unicode = 01FA;
},
{
glyphname = AE;
layers = (
{
anchors = (
{
name = bottom;
position = "{456, 0}";
},
{
name = mark0;
position = "{434, -83}";
},
{
name = top;
position = "{456, 743}";
}
);
layerId = UUID0;
paths = (
{
closed = 1;
nodes = (
"313 42 LINE",
"313 0 LINE",
"857 0 LINE",
"895 171 LINE",
"847 184 LINE",
"789 59 LINE",
"483 49 LINE",
"483 359 LINE",
"664 357 LINE",
"676 271 LINE",
"727 271 LINE",
"727 492 LINE",
"676 492 LINE",
"664 409 LINE",
"483 406 LINE",
"483 698 LINE",
"748 694 LINE",
"778 593 LINE",
"826 593 LINE",
"809 743 LINE",
"135 743 LINE",
"135 702 LINE",
"271 691 LINE",
"-17 52 LINE",
"-90 42 LINE",
"-90 0 LINE",
"139 0 LINE",
"139 42 LINE",
"61 52 LINE",
"131 220 LINE",
"401 220 LINE",
"401 52 LINE"
);
},
{
closed = 1;
nodes = (
"153 272 LINE",
"276 567 LINE",
"332 695 LINE",
"401 695 LINE",
"401 272 LINE"
);
}
);
width = 911;
},
{
anchors = (
{
name = bottom;
position = "{480, 0}";
},
{
name = mark0;
position = "{462, -83}";
},
{
name = top;
position = "{480, 743}";
}
);
layerId = "D0FF1146-32FF-444C-BC95-9626761FC64D";
paths = (
{
closed = 1;
nodes = (
"325 73 LINE",
"325 0 LINE",
"935 0 LINE",
"967 191 LINE",
"856 222 LINE",
"791 91 LINE",
"601 76 LINE",
"601 334 LINE",
"703 331 LINE",
"721 244 LINE",
"796 244 LINE",
"796 505 LINE",
"720 505 LINE",
"702 425 LINE",
"601 421 LINE",
"601 671 LINE",
"776 658 LINE",
"813 556 LINE",
"903 556 LINE",
"889 743 LINE",
"95 743 LINE",
"95 664 LINE",
"220 649 LINE",
"-8 85 LINE",
"-78 73 LINE",
"-78 0 LINE",
"219 0 LINE",
"219 73 LINE",
"146 85 LINE",
"186 200 LINE",
"399 200 LINE",
"399 85 LINE"
);
},
{
closed = 1;
nodes = (
"217 288 LINE",
"297 518 LINE",
"345 662 LINE",
"399 662 LINE",
"399 288 LINE"
);
}
);
width = 959;
}
);
unicode = 00C6;
},
{
glyphname = B;
layers = (
{
anchors = (
{
name = bottom;
position = "{336, 0}";
},
{
name = mark0;
position = "{360, -83}";
},
{
name = top;
position = "{336, 743}";
}
);
layerId = UUID0;
paths = (
{
closed = 1;
nodes = (
"50 43 LINE",
"50 0 LINE",
"173 0 LINE SMOOTH",
"250 0 OFFCURVE",
"283 -6 OFFCURVE",
"332 -6 CURVE SMOOTH",
"563 -6 OFFCURVE",
"633 105 OFFCURVE",
"633 222 CURVE SMOOTH",
"633 328 OFFCURVE",
"559 400 OFFCURVE",
"432 396 CURVE",
"529 415 OFFCURVE",
"580 493 OFFCURVE",
"580 583 CURVE SMOOTH",
"580 688 OFFCURVE",
"512 751 OFFCURVE",
"333 751 CURVE SMOOTH",
"283 751 OFFCURVE",
"237 743 OFFCURVE",
"177 743 CURVE SMOOTH",
"52 743 LINE",
"52 700 LINE",
"136 689 LINE",
"136 52 LINE"
);
},
{
closed = 1;
nodes = (
"218 699 LINE",
"238 699 OFFCURVE",
"273 705 OFFCURVE",
"322 705 CURVE SMOOTH",
"455 705 OFFCURVE",
"497 657 OFFCURVE",
"497 564 CURVE SMOOTH",
"497 466 OFFCURVE",
"442 412 OFFCURVE",
"341 412 CURVE SMOOTH",
"315 412 OFFCURVE",
"249 411 OFFCURVE",
"218 413 CURVE"
);
},
{
closed = 1;
nodes = (
"218 359 LINE",
"248 361 OFFCURVE",
"325 360 OFFCURVE",
"361 360 CURVE SMOOTH",
"490 360 OFFCURVE",
"543 313 OFFCURVE",
"543 207 CURVE SMOOTH",
"543 105 OFFCURVE",
"486 42 OFFCURVE",
"331 42 CURVE SMOOTH",
"297 42 OFFCURVE",
"244 42 OFFCURVE",
"218 50 CURVE"
);
}
);
width = 672;
},
{
anchors = (
{
name = bottom;
position = "{367, 0}";
},
{
name = mark0;
position = "{370, -83}";
},
{
name = top;
position = "{367, 743}";
}
);
layerId = "D0FF1146-32FF-444C-BC95-9626761FC64D";
paths = (
{
closed = 1;
nodes = (
"29 74 LINE",
"29 0 LINE",
"204 0 LINE SMOOTH",
"265 0 OFFCURVE",
"293 -6 OFFCURVE",
"376 -6 CURVE SMOOTH",
"635 -6 OFFCURVE",
"708 93 OFFCURVE",
"708 226 CURVE SMOOTH",
"708 339 OFFCURVE",
"620 396 OFFCURVE",
"487 397 CURVE",
"579 408 OFFCURVE",
"658 471 OFFCURVE",
"658 579 CURVE SMOOTH",
"658 683 OFFCURVE",
"605 749 OFFCURVE",
"364 749 CURVE SMOOTH",
"313 749 OFFCURVE",
"264 743 OFFCURVE",
"200 743 CURVE SMOOTH",
"30 743 LINE",
"30 664 LINE",
"102 649 LINE",
"102 86 LINE"
);
},
{
closed = 1;
nodes = (
"302 672 LINE",
"312 674 OFFCURVE",
"356 676 OFFCURVE",
"359 676 CURVE SMOOTH",
"426 676 OFFCURVE",
"458 642 OFFCURVE",
"458 563 CURVE SMOOTH",
"458 479 OFFCURVE",
"435 423 OFFCURVE",
"368 423 CURVE SMOOTH",
"345 423 OFFCURVE",
"316 423 OFFCURVE",
"302 425 CURVE"
);
},
{
closed = 1;
nodes = (
"302 337 LINE",
"316 338 OFFCURVE",
"347 340 OFFCURVE",
"374 340 CURVE SMOOTH",
"447 340 OFFCURVE",
"485 310 OFFCURVE",
"485 218 CURVE SMOOTH",
"485 127 OFFCURVE",
"454 70 OFFCURVE",
"369 70 CURVE SMOOTH",
"344 70 OFFCURVE",
"313 73 OFFCURVE",
"302 79 CURVE"
);
}
);
width = 733;
}
);
unicode = 0042;
},
{
glyphname = C;
layers = (
{
anchors = (
{
name = bottom;
position = "{365, 0}";
},
{
name = mark0;
position = "{374, -83}";
},
{
name = top;
position = "{365, 743}";
}
);
layerId = UUID0;
paths = (
{
closed = 1;
nodes = (
"497 -11 OFFCURVE",
"534 25 OFFCURVE",
"586 27 CURVE",
"611 161 LINE",
"562 168 LINE",
"522 74 LINE",
"496 53 OFFCURVE",
"462 37 OFFCURVE",
"379 37 CURVE SMOOTH",
"208 37 OFFCURVE",
"130 203 OFFCURVE",
"130 384 CURVE SMOOTH",
"130 589 OFFCURVE",
"236 703 OFFCURVE",
"372 703 CURVE SMOOTH",
"451 703 OFFCURVE",
"503 688 OFFCURVE",
"521 672 CURVE",
"543 556 LINE",
"595 556 LINE",
"603 719 LINE",
"568 727 OFFCURVE",
"481 751 OFFCURVE",
"392 751 CURVE SMOOTH",
"191 751 OFFCURVE",
"36 598 OFFCURVE",
"36 375 CURVE SMOOTH",
"36 143 OFFCURVE",
"159 -11 OFFCURVE",
"377 -11 CURVE SMOOTH"
);
}
);
width = 649;
},
{
anchors = (
{
name = bottom;
position = "{363, 0}";
},
{
name = mark0;
position = "{362, -83}";
},
{
name = top;
position = "{383, 743}";
}
);
layerId = "D0FF1146-32FF-444C-BC95-9626761FC64D";
paths = (
{
closed = 1;
nodes = (
"507 -11 OFFCURVE",
"549 20 OFFCURVE",
"622 27 CURVE",
"638 200 LINE",
"523 210 LINE",
"476 98 LINE",
"462 83 OFFCURVE",
"444 69 OFFCURVE",
"393 69 CURVE SMOOTH",
"298 69 OFFCURVE",
"250 191 OFFCURVE",
"250 377 CURVE SMOOTH",
"250 579 OFFCURVE",
"304 672 OFFCURVE",
"390 672 CURVE SMOOTH",
"435 672 OFFCURVE",
"453 661 OFFCURVE",
"462 651 CURVE",
"500 484 LINE",
"626 484 LINE",
"640 729 LINE",
"598 729 OFFCURVE",
"500 751 OFFCURVE",
"398 751 CURVE SMOOTH",
"181 751 OFFCURVE",
"22 610 OFFCURVE",
"22 361 CURVE SMOOTH",
"22 136 OFFCURVE",
"137 -11 OFFCURVE",
"380 -11 CURVE SMOOTH"
);
}
);
width = 666;
}
);
unicode = 0043;
},
{
glyphname = D;
layers = (
{
anchors = (
{
name = bottom;
position = "{378, 0}";
},
{
name = center;
position = "{378, 372}";
},
{
name = mark0;
position = "{393, -83}";
},
{
name = top;
position = "{378, 743}";
}
);
layerId = UUID0;
paths = (
{
closed = 1;
nodes = (
"50 43 LINE",
"50 0 LINE",
"178 0 LINE SMOOTH",
"236 0 OFFCURVE",
"293 -7 OFFCURVE",
"341 -8 CURVE SMOOTH",
"563 -13 OFFCURVE",
"720 149 OFFCURVE",
"720 394 CURVE SMOOTH",
"720 608 OFFCURVE",
"613 751 OFFCURVE",
"354 751 CURVE SMOOTH",
"294 751 OFFCURVE",
"238 743 OFFCURVE",
"177 743 CURVE SMOOTH",
"56 743 LINE",
"56 700 LINE",
"136 689 LINE",
"136 52 LINE"
);
},
{
closed = 1;
nodes = (
"218 697 LINE",
"246 698 OFFCURVE",
"283 703 OFFCURVE",
"328 703 CURVE SMOOTH",
"531 703 OFFCURVE",
"632 594 OFFCURVE",
"632 376 CURVE SMOOTH",
"632 159 OFFCURVE",
"514 43 OFFCURVE",
"353 41 CURVE SMOOTH",
"307 40 OFFCURVE",
"266 40 OFFCURVE",
"218 49 CURVE"
);
}
);
width = 756;
},
{
anchors = (
{
name = bottom;
position = "{383, 0}";
},
{
name = center;
position = "{383, 372}";
},
{
name = mark0;
position = "{400, -83}";
},
{
name = top;
position = "{383, 743}";
}
);
layerId = "D0FF1146-32FF-444C-BC95-9626761FC64D";
paths = (
{
closed = 1;
nodes = (
"29 74 LINE",
"29 0 LINE",
"202 0 LINE SMOOTH",
"234 0 OFFCURVE",
"305 -6 OFFCURVE",
"359 -8 CURVE",
"603 -13 OFFCURVE",
"742 166 OFFCURVE",
"742 399 CURVE SMOOTH",
"742 625 OFFCURVE",
"619 749 OFFCURVE",
"375 749 CURVE SMOOTH",
"311 749 OFFCURVE",
"266 743 OFFCURVE",
"200 743 CURVE SMOOTH",
"31 743 LINE",
"31 664 LINE",
"102 649 LINE",
"102 86 LINE"
);
},
{
closed = 1;
nodes = (
"302 664 LINE",
"308 665 OFFCURVE",
"325 672 OFFCURVE",
"355 672 CURVE SMOOTH",
"480 672 OFFCURVE",
"520 541 OFFCURVE",
"520 372 CURVE SMOOTH",
"520 157 OFFCURVE",
"462 74 OFFCURVE",
"363 73 CURVE SMOOTH",
"339 73 OFFCURVE",
"316 76 OFFCURVE",
"302 83 CURVE"
);
}
);
width = 766;
}
);
unicode = 0044;
},
{
glyphname = Eth;
layers = (
{
layerId = UUID0;
paths = (
{
closed = 1;
nodes = (
"59 411 LINE",
"59 365 LINE",
"136 365 LINE",
"136 52 LINE",
"50 43 LINE",
"50 0 LINE",
"178 0 LINE SMOOTH",
"236 0 OFFCURVE",
"293 -7 OFFCURVE",
"341 -8 CURVE SMOOTH",
"563 -13 OFFCURVE",
"720 149 OFFCURVE",
"720 394 CURVE SMOOTH",
"720 608 OFFCURVE",
"613 751 OFFCURVE",
"354 751 CURVE SMOOTH",
"294 751 OFFCURVE",
"238 743 OFFCURVE",
"177 743 CURVE SMOOTH",
"56 743 LINE",
"56 700 LINE",
"136 689 LINE",
"136 411 LINE"
);
},
{
closed = 1;
nodes = (
"218 411 LINE",
"218 697 LINE",
"246 698 OFFCURVE",
"283 703 OFFCURVE",
"328 703 CURVE SMOOTH",
"531 703 OFFCURVE",
"632 594 OFFCURVE",
"632 376 CURVE SMOOTH",
"632 159 OFFCURVE",
"514 43 OFFCURVE",
"353 41 CURVE SMOOTH",
"307 40 OFFCURVE",
"266 40 OFFCURVE",
"218 49 CURVE",
"218 365 LINE",
"406 365 LINE",
"406 411 LINE"
);
}
);
width = 756;
},
{
layerId = "D0FF1146-32FF-444C-BC95-9626761FC64D";
paths = (
{
closed = 1;
nodes = (
"36 422 LINE",
"36 345 LINE",
"102 345 LINE",
"102 86 LINE",
"29 74 LINE",
"29 0 LINE",
"202 0 LINE SMOOTH",
"234 0 OFFCURVE",
"305 -6 OFFCURVE",
"359 -8 CURVE",
"603 -13 OFFCURVE",
"742 166 OFFCURVE",
"742 399 CURVE SMOOTH",
"742 625 OFFCURVE",
"619 749 OFFCURVE",
"375 749 CURVE SMOOTH",
"311 749 OFFCURVE",
"266 743 OFFCURVE",
"200 743 CURVE SMOOTH",
"31 743 LINE",
"31 664 LINE",
"102 649 LINE",
"102 422 LINE"
);
},
{
closed = 1;
nodes = (
"302 422 LINE",
"302 664 LINE",
"308 665 OFFCURVE",
"325 672 OFFCURVE",
"355 672 CURVE SMOOTH",
"480 672 OFFCURVE",
"520 541 OFFCURVE",
"520 372 CURVE SMOOTH",
"520 157 OFFCURVE",
"462 74 OFFCURVE",
"363 73 CURVE SMOOTH",
"339 73 OFFCURVE",
"316 76 OFFCURVE",
"302 83 CURVE",
"302 345 LINE",
"424 345 LINE",
"424 422 LINE"
);
}
);
width = 766;
}
);
unicode = 00D0;
},
{
glyphname = E;
layers = (
{
anchors = (
{
name = bottom;
position = "{325, 0}";
},
{
name = mark0;
position = "{341, -83}";
},
{
name = ogonek;
position = "{584, 10}";
},
{
name = top;
position = "{341, 743}";
},
{
name = topleft;
position = "{20, 743}";
}
);
layerId = UUID0;
paths = (
{
closed = 1;
nodes = (
"50 43 LINE",
"50 0 LINE",
"592 0 LINE",
"623 169 LINE",
"575 184 LINE",
"524 59 LINE",
"218 51 LINE",
"218 359 LINE",
"402 356 LINE",
"415 271 LINE",
"465 271 LINE",
"465 492 LINE",
"415 492 LINE",
"402 409 LINE",
"218 406 LINE",
"218 697 LINE",
"486 692 LINE",
"513 596 LINE",
"561 596 LINE",
"547 743 LINE",
"52 743 LINE",
"52 700 LINE",
"136 689 LINE",
"136 52 LINE"
);
}
);
width = 649;
},
{
anchors = (
{
name = bottom;
position = "{330, 0}";
},
{
name = mark0;
position = "{351, -83}";
},
{
name = ogonek;
position = "{594, 10}";
},
{
name = top;
position = "{341, 743}";
},
{
name = topleft;
position = "{20, 743}";
}
);
layerId = "D0FF1146-32FF-444C-BC95-9626761FC64D";
paths = (
{
closed = 1;
nodes = (
"29 74 LINE",
"29 0 LINE",
"634 0 LINE",
"655 195 LINE",
"557 222 LINE",
"493 91 LINE",
"305 76 LINE",
"305 334 LINE",
"406 332 LINE",
"424 244 LINE",
"500 244 LINE",
"500 505 LINE",
"424 505 LINE",
"405 424 LINE",
"305 421 LINE",
"305 670 LINE",
"477 658 LINE",
"514 556 LINE",
"604 556 LINE",
"591 743 LINE",
"26 743 LINE",
"26 664 LINE",
"102 649 LINE",
"102 85 LINE"
);
}
);
width = 660;
}
);
unicode = 0045;
},
{
glyphname = Ecedilla;
layers = (
{
anchors = (
{
name = _bottom;
position = "{325, 0}";
},
{
name = bottom;
position = "{325, 0}";
},
{
name = mark0;
position = "{341, -83}";
},
{
name = ogonek;
position = "{584, 10}";
},
{
name = top;
position = "{331, 743}";
},
{
name = topleft;
position = "{20, 743}";
}
);
layerId = UUID0;
paths = (
{
closed = 1;
nodes = (
"361 -235 OFFCURVE",
"405 -211 OFFCURVE",
"408 -143 CURVE SMOOTH",
"411 -80 OFFCURVE",
"366 -19 OFFCURVE",
"345 0 CURVE",
"592 0 LINE",
"623 169 LINE",
"575 184 LINE",
"524 59 LINE",
"218 51 LINE",
"218 359 LINE",
"402 356 LINE",
"415 271 LINE",
"465 271 LINE",
"465 492 LINE",
"415 492 LINE",
"402 409 LINE",
"218 406 LINE",
"218 697 LINE",
"486 692 LINE",
"513 596 LINE",
"561 596 LINE",
"547 743 LINE",
"52 743 LINE",
"52 700 LINE",
"136 689 LINE",
"136 52 LINE",
"50 43 LINE",
"50 0 LINE",
"304 0 LINE",
"313 -13 OFFCURVE",
"338 -58 OFFCURVE",
"338 -100 CURVE SMOOTH",
"338 -161 OFFCURVE",
"311 -171 OFFCURVE",
"262 -171 CURVE SMOOTH",
"252 -171 OFFCURVE",
"230 -168 OFFCURVE",
"216 -163 CURVE",
"215 -222 LINE",
"233 -229 OFFCURVE",
"263 -235 OFFCURVE",
"286 -235 CURVE SMOOTH"
);
}
);
width = 649;
},
{
anchors = (
{
name = _bottom;
position = "{330, 0}";
},
{
name = bottom;
position = "{330, 0}";
},
{
name = mark0;
position = "{351, -83}";
},
{
name = ogonek;
position = "{594, 10}";
},
{
name = top;
position = "{333, 743}";
},
{
name = topleft;
position = "{20, 743}";
}
);
layerId = "D0FF1146-32FF-444C-BC95-9626761FC64D";
paths = (
{
closed = 1;
nodes = (
"384 -264 OFFCURVE",
"440 -237 OFFCURVE",
"445 -145 CURVE SMOOTH",
"448.752 -79.341 OFFCURVE",
"401.474 -22.479 OFFCURVE",
"377.44 0 CURVE",
"634 0 LINE",
"655 195 LINE",
"557 222 LINE",
"493 91 LINE",
"305 76 LINE",
"305 334 LINE",
"406 332 LINE",
"424 244 LINE",
"500 244 LINE",
"500 505 LINE",
"424 505 LINE",
"405 424 LINE",
"305 421 LINE",
"305 670 LINE",
"477 658 LINE",
"514 556 LINE",
"604 556 LINE",
"591 743 LINE",
"26 743 LINE",
"26 664 LINE",
"102 649 LINE",
"102 85 LINE",
"29 74 LINE",
"29 0 LINE",
"292.938 0 LINE",
"304.352 -16.46 OFFCURVE",
"322 -51.831 OFFCURVE",
"322 -83 CURVE SMOOTH",
"322 -145 OFFCURVE",
"299 -151 OFFCURVE",
"255 -151 CURVE SMOOTH",
"248 -151 OFFCURVE",
"229 -149 OFFCURVE",
"215 -145 CURVE",
"215 -249 LINE",
"232 -257 OFFCURVE",
"263 -264 OFFCURVE",
"286 -264 CURVE SMOOTH"
);
}
);
width = 660;
}
);
unicode = 0228;
},
{
glyphname = Eogonek;
layers = (
{
layerId = UUID0;
paths = (
{
closed = 1;
nodes = (
"50 43 LINE",
"50 0 LINE",
"499 0 LINE",
"423 -30 OFFCURVE",
"357 -100 OFFCURVE",
"357 -155 CURVE SMOOTH",
"357 -226 OFFCURVE",
"418 -249 OFFCURVE",
"479 -249 CURVE SMOOTH",
"520 -249 OFFCURVE",
"564 -236 OFFCURVE",
"592 -215 CURVE",
"592 -173 LINE",
"569 -185 OFFCURVE",
"540 -193 OFFCURVE",
"514 -193 CURVE SMOOTH",
"473 -193 OFFCURVE",
"437 -176 OFFCURVE",
"437 -129 CURVE SMOOTH",
"437 -83 OFFCURVE",
"512 -13 OFFCURVE",
"579 0 CURVE",
"592 0 LINE",
"623 169 LINE",
"575 184 LINE",
"524 59 LINE",
"218 51 LINE",
"218 359 LINE",
"402 356 LINE",
"415 271 LINE",
"465 271 LINE",
"465 492 LINE",
"415 492 LINE",
"402 409 LINE",
"218 406 LINE",
"218 697 LINE",
"486 692 LINE",
"513 596 LINE",
"561 596 LINE",
"547 743 LINE",
"52 743 LINE",
"52 700 LINE",
"136 689 LINE",
"136 52 LINE"
);
}
);
width = 650;
},
{
layerId = "D0FF1146-32FF-444C-BC95-9626761FC64D";
paths = (
{
closed = 1;
nodes = (
"29 74 LINE",
"29 0 LINE",
"508 0 LINE",
"410 -33 OFFCURVE",
"361 -89 OFFCURVE",
"361 -149 CURVE SMOOTH",
"361 -209 OFFCURVE",
"410 -251 OFFCURVE",
"499 -251 CURVE SMOOTH",
"540 -251 OFFCURVE",
"597 -240 OFFCURVE",
"625 -219 CURVE",
"625 -139 LINE",
"603 -148 OFFCURVE",
"594 -150 OFFCURVE",
"571 -150 CURVE SMOOTH",
"531 -150 OFFCURVE",
"511 -129 OFFCURVE",
"511 -100 CURVE SMOOTH",
"511 -68 OFFCURVE",
"560 -17 OFFCURVE",
"627 0 CURVE",
"634 0 LINE",
"655 195 LINE",
"557 222 LINE",
"493 91 LINE",
"305 76 LINE",
"305 334 LINE",
"406 332 LINE",
"424 244 LINE",
"500 244 LINE",
"500 505 LINE",
"424 505 LINE",
"405 424 LINE",
"305 421 LINE",
"305 670 LINE",
"477 658 LINE",
"514 556 LINE",
"604 556 LINE",
"591 743 LINE",
"26 743 LINE",
"26 664 LINE",
"102 649 LINE",
"102 85 LINE"
);
}
);
width = 660;
}
);
unicode = 0118;
},
{
glyphname = Ezh;
layers = (
{
layerId = UUID0;
paths = (
{
closed = 1;
nodes = (
"512 701 LINE",
"512 743 LINE",
"55 743 LINE",
"66 576 LINE",
"117 576 LINE",
"132 679 LINE",
"414 682 LINE",
"414 682 OFFCURVE",
"193 428 OFFCURVE",
"186 419 CURVE",
"198 384 LINE",
"212 384 OFFCURVE",
"226 384 OFFCURVE",
"240 384 CURVE",
"396 378 OFFCURVE",
"447 323 OFFCURVE",
"447 220 CURVE SMOOTH",
"447 130 OFFCURVE",
"381 48 OFFCURVE",
"242 48 CURVE SMOOTH",
"161 48 OFFCURVE",
"133 66 OFFCURVE",
"123 70 CURVE",
"102 188 LINE",
"55 188 LINE",
"36 28 LINE",
"62 22 OFFCURVE",
"121 -6 OFFCURVE",
"231 -6 CURVE SMOOTH",
"410 -6 OFFCURVE",
"542 86 OFFCURVE",
"542 233 CURVE SMOOTH",
"542 362 OFFCURVE",
"463 425 OFFCURVE",
"327 425 CURVE SMOOTH",
"307 425 OFFCURVE",
"287 424 OFFCURVE",
"265 421 CURVE"
);
}
);
width = 559;
},
{
layerId = "D0FF1146-32FF-444C-BC95-9626761FC64D";
paths = (
{
closed = 1;
nodes = (
"597 660 LINE",
"597 743 LINE",
"37 743 LINE",
"49 525 LINE",
"167 525 LINE",
"193 643 LINE",
"394 647 LINE",
"338 568 OFFCURVE",
"281 490 OFFCURVE",
"225 411 CURVE",
"251 358 LINE",
"266 361 OFFCURVE",
"280 361 OFFCURVE",
"292 361 CURVE SMOOTH",
"398 360 OFFCURVE",
"404 289 OFFCURVE",
"404 218 CURVE SMOOTH",
"404 119 OFFCURVE",
"346 62 OFFCURVE",
"275 62 CURVE SMOOTH",
"230 62 OFFCURVE",
"205 81 OFFCURVE",
"202 89 CURVE",
"163 232 LINE",
"53 232 LINE",
"28 40 LINE",
"63 22 OFFCURVE",
"179 -11 OFFCURVE",
"284 -11 CURVE SMOOTH",
"559 -11 OFFCURVE",
"624 113 OFFCURVE",
"624 251 CURVE SMOOTH",
"624 356 OFFCURVE",
"568 441 OFFCURVE",
"423 441 CURVE SMOOTH",
"414 441 OFFCURVE",
"402 440 OFFCURVE",
"391 439 CURVE"
);
}
);
width = 634;
}
);
unicode = 01B7;
},
{
glyphname = F;
layers = (
{
anchors = (
{
name = bottom;
position = "{309, 0}";
},
{
name = mark0;
position = "{314, -83}";
},
{
name = top;
position = "{339, 743}";
}
);
layerId = UUID0;
paths = (
{
closed = 1;
nodes = (
"54 43 LINE",
"54 0 LINE",
"375 0 LINE",
"375 43 LINE",
"218 52 LINE",
"218 353 LINE",
"418 349 LINE",
"435 264 LINE",
"481 264 LINE",
"481 485 LINE",
"435 485 LINE",
"418 404 LINE",
"218 401 LINE",
"218 697 LINE",
"500 692 LINE",
"527 579 LINE",
"582 579 LINE",
"572 743 LINE",
"48 743 LINE",
"48 700 LINE",
"136 689 LINE",
"136 52 LINE"
);
}
);
width = 617;
},
{
anchors = (
{
name = bottom;
position = "{313, 0}";
},
{
name = mark0;
position = "{324, -83}";
},
{
name = top;
position = "{333, 743}";
}
);
layerId = "D0FF1146-32FF-444C-BC95-9626761FC64D";
paths = (
{
closed = 1;
nodes = (
"29 74 LINE",
"29 0 LINE",
"456 0 LINE",
"456 74 LINE",
"305 86 LINE",
"305 312 LINE",
"411 308 LINE",
"433 213 LINE",
"511 213 LINE",
"511 496 LINE",
"432 496 LINE",
"411 403 LINE",
"305 400 LINE",
"305 670 LINE",
"465 655 LINE",
"510 548 LINE",
"612 548 LINE",
"601 743 LINE",
"25 743 LINE",
"25 664 LINE",
"102 649 LINE",
"102 86 LINE"
);
}
);
width = 626;
}
);
unicode = 0046;
},
{
glyphname = G;
layers = (
{
anchors = (
{
name = bottom;
position = "{369, 0}";
},
{
name = mark0;
position = "{383, -83}";
},
{
name = top;
position = "{399, 743}";
}
);
layerId = UUID0;
paths = (
{
closed = 1;
nodes = (
"526 -11 OFFCURVE",
"604 38 OFFCURVE",
"657 40 CURVE",
"657 311 LINE",
"718 321 LINE",
"718 374 LINE",
"434 374 LINE",
"434 321 LINE",
"573 311 LINE",
"573 83 LINE",
"537 55 OFFCURVE",
"469 37 OFFCURVE",
"398 37 CURVE SMOOTH",
"224 37 OFFCURVE",
"142 209 OFFCURVE",
"142 385 CURVE SMOOTH",
"142 596 OFFCURVE",
"259 703 OFFCURVE",
"414 703 CURVE SMOOTH",
"508 703 OFFCURVE",
"552 681 OFFCURVE",
"567 669 CURVE",
"589 554 LINE",
"641 554 LINE",
"649 720 LINE",
"615 728 OFFCURVE",
"526 751 OFFCURVE",
"423 751 CURVE SMOOTH",
"214 751 OFFCURVE",
"48 610 OFFCURVE",
"48 359 CURVE SMOOTH",
"48 148 OFFCURVE",
"175 -11 OFFCURVE",
"392 -11 CURVE SMOOTH"
);
}
);
width = 738;
},
{
anchors = (
{
name = bottom;
position = "{375, 0}";
},
{
name = mark0;
position = "{377, -83}";
},
{
name = top;
position = "{405, 743}";
}
);
layerId = "D0FF1146-32FF-444C-BC95-9626761FC64D";
paths = (
{
closed = 1;
nodes = (
"517 -11 OFFCURVE",
"632 38 OFFCURVE",
"685 40 CURVE",
"685 300 LINE",
"731 308 LINE",
"731 387 LINE",
"410 387 LINE",
"410 308 LINE",
"487 297 LINE",
"487 95 LINE",
"473 79 OFFCURVE",
"440 66 OFFCURVE",
"400 66 CURVE SMOOTH",
"295 66 OFFCURVE",
"259 187 OFFCURVE",
"259 377 CURVE SMOOTH",
"259 574 OFFCURVE",
"310 679 OFFCURVE",
"415 679 CURVE SMOOTH",
"462 679 OFFCURVE",
"484 666 OFFCURVE",
"491 657 CURVE",
"521 519 LINE",
"666 519 LINE",
"679 722 LINE",
"643 730 OFFCURVE",
"524 753 OFFCURVE",
"417 753 CURVE SMOOTH",
"166 753 OFFCURVE",
"23 618 OFFCURVE",
"23 367 CURVE SMOOTH",
"23 154 OFFCURVE",
"147 -11 OFFCURVE",
"381 -11 CURVE SMOOTH"
);
}
);
width = 750;
}
);
unicode = 0047;
},
{
glyphname = Gstroke;
layers = (
{
anchors = (
{
name = bottom;
position = "{369, 0}";
},
{
name = mark0;
position = "{383, -83}";
},
{
name = top;
position = "{399, 743}";
}
);
layerId = UUID0;
paths = (
{
closed = 1;
nodes = (
"526 -11 OFFCURVE",
"604 38 OFFCURVE",
"657 40 CURVE",
"657 311 LINE",
"718 321 LINE",
"718 374 LINE",
"434 374 LINE",
"434 321 LINE",
"573 311 LINE",
"573 83 LINE",
"537 55 OFFCURVE",
"469 37 OFFCURVE",
"398 37 CURVE SMOOTH",
"224 37 OFFCURVE",
"142 209 OFFCURVE",
"142 385 CURVE SMOOTH",
"142 596 OFFCURVE",
"259 703 OFFCURVE",
"414 703 CURVE SMOOTH",
"508 703 OFFCURVE",
"552 681 OFFCURVE",
"567 669 CURVE",
"589 554 LINE",
"641 554 LINE",
"649 720 LINE",
"615 728 OFFCURVE",
"526 751 OFFCURVE",
"423 751 CURVE SMOOTH",
"214 751 OFFCURVE",
"48 610 OFFCURVE",
"48 359 CURVE SMOOTH",
"48 148 OFFCURVE",
"175 -11 OFFCURVE",
"392 -11 CURVE SMOOTH"
);
},
{
closed = 1;
nodes = (
"350 229 LINE",
"350 169 LINE",
"753 169 LINE",
"753 229 LINE"
);
}
);
width = 738;
},
{
anchors = (
{
name = bottom;
position = "{375, 0}";
},
{
name = mark0;
position = "{377, -83}";
},
{
name = top;
position = "{405, 743}";
}
);
layerId = "D0FF1146-32FF-444C-BC95-9626761FC64D";
paths = (
{
closed = 1;
nodes = (
"517 -11 OFFCURVE",
"625 38 OFFCURVE",
"678 40 CURVE",
"678 300 LINE",
"731 308 LINE",
"731 387 LINE",
"410 387 LINE",
"410 308 LINE",
"494 297 LINE",
"494 95 LINE",
"480 79 OFFCURVE",
"440 66 OFFCURVE",
"400 66 CURVE SMOOTH",
"295 66 OFFCURVE",
"259 187 OFFCURVE",
"259 377 CURVE SMOOTH",
"259 574 OFFCURVE",
"310 679 OFFCURVE",
"415 679 CURVE SMOOTH",
"462 679 OFFCURVE",
"484 666 OFFCURVE",
"491 657 CURVE",
"521 519 LINE",
"666 519 LINE",
"679 722 LINE",
"643 730 OFFCURVE",
"524 753 OFFCURVE",
"417 753 CURVE SMOOTH",
"166 753 OFFCURVE",
"23 618 OFFCURVE",
"23 367 CURVE SMOOTH",
"23 154 OFFCURVE",
"147 -11 OFFCURVE",
"381 -11 CURVE SMOOTH"
);
},
{
closed = 1;
nodes = (
"356 255 LINE",
"356 143 LINE",
"766 143 LINE",
"766 255 LINE"
);
}
);
width = 750;
}
);
unicode = 01E4;
},
{
glyphname = H;
layers = (
{
anchors = (
{
name = bottom;
position = "{412, 0}";
},
{
name = top;
position = "{420, 743}";
}
);
layerId = UUID0;
paths = (
{
closed = 1;
nodes = (
"54 43 LINE",
"54 0 LINE",
"309 0 LINE",
"309 43 LINE",
"221 52 LINE",
"221 355 LINE",
"603 355 LINE",
"603 52 LINE",
"519 43 LINE",
"519 0 LINE",
"768 0 LINE",
"768 43 LINE",
"686 52 LINE",
"686 689 LINE",
"768 700 LINE",
"768 743 LINE",
"520 743 LINE",
"520 700 LINE",
"603 689 LINE",
"603 408 LINE",
"221 408 LINE",
"221 689 LINE",
"308 700 LINE",
"308 743 LINE",
"57 743 LINE",
"57 700 LINE",
"139 689 LINE",
"139 52 LINE"
);
}
);
width = 824;
},
{
anchors = (
{
name = bottom;
position = "{427, 0}";
},
{
name = top;
position = "{427, 743}";
}
);
layerId = "D0FF1146-32FF-444C-BC95-9626761FC64D";
paths = (
{
closed = 1;
nodes = (
"33 74 LINE",
"33 0 LINE",
"384 0 LINE",
"384 74 LINE",
"304 85 LINE",
"304 329 LINE",
"540 329 LINE",
"540 86 LINE",
"467 74 LINE",
"467 0 LINE",
"813 0 LINE",
"813 74 LINE",
"742 85 LINE",
"742 650 LINE",
"813 664 LINE",
"813 743 LINE",
"467 743 LINE",
"467 664 LINE",
"540 649 LINE",
"540 425 LINE",
"304 425 LINE",
"304 650 LINE",
"384 664 LINE",
"384 743 LINE",
"34 743 LINE",
"34 664 LINE",
"102 650 LINE",
"102 85 LINE"
);
}
);
width = 844;
}
);
unicode = 0048;
},
{
glyphname = Hbar;
layers = (
{
layerId = UUID0;
paths = (
{
closed = 1;
nodes = (
"24 555 LINE",
"24 509 LINE",
"139 509 LINE",
"139 52 LINE",
"54 43 LINE",
"54 0 LINE",
"308 0 LINE",
"308 43 LINE",
"220 52 LINE",
"220 309 LINE",
"604 309 LINE",
"604 53 LINE",
"521 42 LINE",
"521 0 LINE",
"768 0 LINE",
"768 42 LINE",
"686 53 LINE",
"686 509 LINE",
"800 509 LINE",
"800 555 LINE",
"686 555 LINE",
"686 689 LINE",
"768 700 LINE",
"768 744 LINE",
"521 744 LINE",
"521 700 LINE",
"604 689 LINE",
"604 555 LINE",
"220 555 LINE",
"220 689 LINE",
"307 700 LINE",
"307 744 LINE",
"57 744 LINE",
"57 700 LINE",
"139 689 LINE",
"139 555 LINE"
);
},
{
closed = 1;
nodes = (
"604 360 LINE",
"220 360 LINE",
"220 509 LINE",
"604 509 LINE"
);
}
);
width = 824;
},
{
layerId = "D0FF1146-32FF-444C-BC95-9626761FC64D";
paths = (
{
closed = 1;
nodes = (
"27 554 LINE",
"27 483 LINE",
"102 483 LINE",
"102 85 LINE",
"33 74 LINE",
"33 0 LINE",
"384 0 LINE",
"384 74 LINE",
"303 86 LINE",
"304 279 LINE",
"540 279 LINE",
"539 86 LINE",
"466 74 LINE",
"466 0 LINE",
"813 0 LINE",
"813 74 LINE",
"742 85 LINE",
"742 483 LINE",
"832 483 LINE",
"832 554 LINE",
"742 554 LINE",
"742 650 LINE",
"813 664 LINE",
"813 743 LINE",
"467 743 LINE",
"467 664 LINE",
"540 649 LINE",
"540 554 LINE",
"304 554 LINE",
"304 650 LINE",
"384 664 LINE",
"384 743 LINE",
"34 743 LINE",
"34 664 LINE",
"102 650 LINE",
"102 554 LINE"
);
},
{
closed = 1;
nodes = (
"540 375 LINE",
"304 375 LINE",
"304 483 LINE",
"540 483 LINE"
);
}
);
width = 844;
}
);
unicode = 0126;
},
{
glyphname = I;
layers = (
{
anchors = (
{
name = bottom;
position = "{199, 0}";
},
{
name = mark0;
position = "{200, -83}";
},
{
name = ogonek;
position = "{299, 10}";
},
{
name = top;
position = "{199, 743}";
},
{
name = topleft;
position = "{20, 743}";
}
);
layerId = UUID0;
paths = (
{
closed = 1;
nodes = (
"60 43 LINE",
"60 0 LINE",
"337 0 LINE",
"337 42 LINE",
"240 52 LINE",
"240 689 LINE",
"337 700 LINE",
"337 743 LINE",
"60 743 LINE",
"60 700 LINE",
"157 689 LINE",
"157 52 LINE"
);
}
);
width = 397;
},
{
anchors = (
{
name = bottom;
position = "{212, 0}";
},
{
name = mark0;
position = "{213, -83}";
},
{
name = ogonek;
position = "{381, 10}";
},
{
name = top;
position = "{212, 743}";
},
{
name = topleft;
position = "{19, 743}";
}
);
layerId = "D0FF1146-32FF-444C-BC95-9626761FC64D";
paths = (
{
closed = 1;
nodes = (
"34 74 LINE",
"34 0 LINE",
"391 0 LINE",
"391 73 LINE",
"312 85 LINE",
"312 649 LINE",
"391 664 LINE",
"391 743 LINE",
"33 743 LINE",
"33 664 LINE",
"109 649 LINE",
"109 86 LINE"
);
}
);
width = 424;
}
);
unicode = 0049;
},
{
glyphname = IJ_acutecomb;
layers = (
{
anchors = (
{
name = _top;
position = "{199, 743}";
},
{
name = mark0;
position = "{200, -83}";
},
{
name = ogonek;
position = "{299, 10}";
},
{
name = top;
position = "{199, 980}";
},
{
name = topleft;
position = "{20, 743}";
}
);
layerId = UUID0;
paths = (
{
closed = 1;
nodes = (
"189 823 OFFCURVE",
"284 885 OFFCURVE",
"317 929 CURVE",
"261 980 LINE",
"116 830 LINE",
"143 804 LINE"
);
},
{
closed = 1;
nodes = (
"580 823 OFFCURVE",
"675 885 OFFCURVE",
"708 929 CURVE",
"652 980 LINE",
"507 830 LINE",
"534 804 LINE"
);
},
{
closed = 1;
nodes = (
"60 43 LINE",
"60 0 LINE",
"337 0 LINE",
"337 42 LINE",
"240 52 LINE",
"240 689 LINE",
"337 700 LINE",
"337 743 LINE",
"60 743 LINE",
"60 700 LINE",
"157 689 LINE",
"157 52 LINE"
);
},
{
closed = 1;
nodes = (
"418 -173 LINE",
"504 -157 OFFCURVE",
"599 -94 OFFCURVE",
"622 21 CURVE SMOOTH",
"634 83 OFFCURVE",
"632 164 OFFCURVE",
"632 275 CURVE SMOOTH",
"632 688 LINE",
"728 700 LINE",
"728 743 LINE",
"449 743 LINE",
"449 700 LINE",
"549 688 LINE",
"549 253 LINE SMOOTH",
"549 104 OFFCURVE",
"547 48 OFFCURVE",
"529 -9 CURVE SMOOTH",
"508 -76 OFFCURVE",
"455 -121 OFFCURVE",
"396 -137 CURVE"
);
}
);
width = 772;
},
{
anchors = (
{
name = _top;
position = "{212, 743}";
},
{
name = mark0;
position = "{213, -83}";
},
{
name = ogonek;
position = "{381, 10}";
},
{
name = top;
position = "{212, 983}";
},
{
name = topleft;
position = "{19, 743}";
}
);
layerId = "D0FF1146-32FF-444C-BC95-9626761FC64D";
paths = (
{
closed = 1;
nodes = (
"228 787 OFFCURVE",
"314 840 OFFCURVE",
"376 905 CURVE",
"248 983 LINE",
"113 828 LINE",
"194 778 LINE"
);
},
{
closed = 1;
nodes = (
"635 787 OFFCURVE",
"721 840 OFFCURVE",
"783 905 CURVE",
"655 983 LINE",
"520 828 LINE",
"601 778 LINE"
);
},
{
closed = 1;
nodes = (
"34 74 LINE",
"34 0 LINE",
"391 0 LINE",
"391 73 LINE",
"312 85 LINE",
"312 649 LINE",
"391 664 LINE",
"391 743 LINE",
"33 743 LINE",
"33 664 LINE",
"109 649 LINE",
"109 86 LINE"
);
},
{
closed = 1;
nodes = (
"444 -201 LINE",
"605 -176 OFFCURVE",
"693 -91 OFFCURVE",
"725 12 CURVE SMOOTH",
"737 53 OFFCURVE",
"741 144 OFFCURVE",
"741 275 CURVE SMOOTH",
"741 650 LINE",
"815 664 LINE",
"815 743 LINE",
"460 743 LINE",
"460 664 LINE",
"540 649 LINE",
"540 169 LINE SMOOTH",
"540 79 OFFCURVE",
"531 29 OFFCURVE",
"519 -5 CURVE SMOOTH",
"494 -78 OFFCURVE",
"442 -119 OFFCURVE",
"400 -135 CURVE"
);
}
);
width = 829;
}
);
},
{
glyphname = Iogonek;
layers = (
{
layerId = UUID0;
paths = (
{
closed = 1;
nodes = (
"60 43 LINE",
"60 0 LINE",
"224 0 LINE",
"158 -30 OFFCURVE",
"92 -101 OFFCURVE",
"92 -155 CURVE SMOOTH",
"92 -226 OFFCURVE",
"153 -249 OFFCURVE",
"214 -249 CURVE SMOOTH",
"255 -249 OFFCURVE",
"299 -236 OFFCURVE",
"327 -215 CURVE",
"327 -173 LINE",
"304 -185 OFFCURVE",
"275 -193 OFFCURVE",
"249 -193 CURVE SMOOTH",
"207 -193 OFFCURVE",
"171 -176 OFFCURVE",
"171 -129 CURVE SMOOTH",
"171 -87 OFFCURVE",
"224 -28 OFFCURVE",
"286 0 CURVE",
"337 0 LINE",
"337 42 LINE",
"240 52 LINE",
"240 689 LINE",
"337 700 LINE",
"337 743 LINE",
"60 743 LINE",
"60 700 LINE",
"157 689 LINE",
"157 52 LINE"
);
}
);
width = 397;
},
{
layerId = "D0FF1146-32FF-444C-BC95-9626761FC64D";
paths = (
{
closed = 1;
nodes = (
"36 74 LINE",
"36 0 LINE",
"246 0 LINE",
"161 -33 OFFCURVE",
"103 -89 OFFCURVE",
"103 -149 CURVE SMOOTH",
"103 -209 OFFCURVE",
"159 -251 OFFCURVE",
"248 -251 CURVE SMOOTH",
"289 -251 OFFCURVE",
"349 -240 OFFCURVE",
"377 -219 CURVE",
"377 -139 LINE",
"355 -148 OFFCURVE",
"347 -150 OFFCURVE",
"324 -150 CURVE SMOOTH",
"275 -150 OFFCURVE",
"253 -129 OFFCURVE",
"253 -100 CURVE SMOOTH",
"253 -69 OFFCURVE",
"291 -22 OFFCURVE",
"354 0 CURVE",
"393 0 LINE",
"393 73 LINE",
"314 85 LINE",
"314 649 LINE",
"393 664 LINE",
"393 743 LINE",
"35 743 LINE",
"35 664 LINE",
"111 649 LINE",
"111 86 LINE"
);
}
);
width = 425;
}
);
unicode = 012E;
},
{
glyphname = J;
layers = (
{
anchors = (
{
name = mark0;
position = "{144, -83}";
},
{
name = top;
position = "{191, 743}";
}
);
layerId = UUID0;
paths = (
{
closed = 1;
nodes = (
"21 -173 LINE",
"107 -157 OFFCURVE",
"202 -94 OFFCURVE",
"225 21 CURVE SMOOTH",
"237 83 OFFCURVE",
"235 164 OFFCURVE",
"235 275 CURVE SMOOTH",
"235 688 LINE",
"331 700 LINE",
"331 743 LINE",
"52 743 LINE",
"52 700 LINE",
"152 688 LINE",
"152 253 LINE SMOOTH",
"152 104 OFFCURVE",
"150 48 OFFCURVE",
"132 -9 CURVE SMOOTH",
"111 -76 OFFCURVE",
"58 -121 OFFCURVE",
"-1 -137 CURVE"
);
}
);
width = 375;
},
{
anchors = (
{
name = mark0;
position = "{169, -83}";
},
{
name = top;
position = "{212, 743}";
}
);
layerId = "D0FF1146-32FF-444C-BC95-9626761FC64D";
paths = (
{
closed = 1;
nodes = (
"20 -201 LINE",
"181 -176 OFFCURVE",
"269 -91 OFFCURVE",
"301 12 CURVE SMOOTH",
"313 53 OFFCURVE",
"317 144 OFFCURVE",
"317 275 CURVE SMOOTH",
"317 650 LINE",
"391 664 LINE",
"391 743 LINE",
"36 743 LINE",
"36 664 LINE",
"116 649 LINE",
"116 169 LINE SMOOTH",
"116 79 OFFCURVE",
"107 29 OFFCURVE",
"95 -5 CURVE SMOOTH",
"70 -78 OFFCURVE",
"18 -119 OFFCURVE",
"-24 -135 CURVE"
);
}
);
width = 405;
}
);
unicode = 004A;
},
{
glyphname = K;
layers = (
{
anchors = (
{
name = bottom;
position = "{389, 0}";
},
{
name = mark0;
position = "{385, -83}";
},
{
name = top;
position = "{378, 743}";
}
);
layerId = UUID0;
paths = (
{
closed = 1;
nodes = (
"713 0 LINE",
"713 42 LINE",
"666 53 LINE",
"625 58 OFFCURVE",
"479 345 OFFCURVE",
"378 432 CURVE",
"608 689 LINE",
"681 700 LINE",
"681 743 LINE",
"449 743 LINE",
"449 700 LINE",
"534 689 LINE",
"221 325 LINE",
"221 689 LINE",
"307 700 LINE",
"307 743 LINE",
"55 743 LINE",
"55 700 LINE",
"139 689 LINE",
"139 52 LINE",
"53 43 LINE",
"53 0 LINE",
"315 0 LINE",
"315 42 LINE",
"221 52 LINE",
"221 254 LINE",
"330 377 LINE",
"423 282 OFFCURVE",
"541 0 OFFCURVE",
"593 0 CURVE"
);
}
);
width = 714;
},
{
anchors = (
{
name = bottom;
position = "{425, 0}";
},
{
name = mark0;
position = "{392, -78}";
},
{
name = top;
position = "{416, 741}";
}
);
layerId = "D0FF1146-32FF-444C-BC95-9626761FC64D";
paths = (
{
closed = 1;
nodes = (
"781 0 LINE",
"781 74 LINE",
"733 85 LINE",
"696 113 OFFCURVE",
"583 381 OFFCURVE",
"492 465 CURVE",
"654 650 LINE",
"747 665 LINE",
"747 743 LINE",
"443 743 LINE",
"443 664 LINE",
"523 649 LINE",
"304 356 LINE",
"304 649 LINE",
"373 664 LINE",
"373 743 LINE",
"28 743 LINE",
"28 664 LINE",
"102 649 LINE",
"102 86 LINE",
"28 74 LINE",
"28 0 LINE",
"383 0 LINE",
"383 74 LINE",
"304 85 LINE",
"304 243 LINE",
"374 326 LINE",
"439 229 OFFCURVE",
"516 0 OFFCURVE",
"550 0 CURVE"
);
}
);
width = 774;
}
);
unicode = 004B;
},
{
glyphname = L;
layers = (
{
anchors = (
{
name = bottom;
position = "{316, 0}";
},
{
name = center;
position = "{316, 372}";
},
{
name = mark0;
position = "{339, -83}";
},
{
name = top;
position = "{181, 743}";
},
{
name = topright;
position = "{454, 555}";
}
);
layerId = UUID0;
paths = (
{
closed = 1;
nodes = (
"53 43 LINE",
"53 0 LINE",
"573 0 LINE",
"610 208 LINE",
"562 216 LINE",
"506 60 LINE",
"221 52 LINE",
"221 689 LINE",
"321 700 LINE",
"321 743 LINE",
"55 743 LINE",
"55 700 LINE",
"139 689 LINE",
"139 52 LINE"
);
}
);
width = 631;
},
{
anchors = (
{
name = bottom;
position = "{342, 0}";
},
{
name = center;
position = "{322, 372}";
},
{
name = mark0;
position = "{346, -83}";
},
{
name = top;
position = "{212, 743}";
},
{
name = topright;
position = "{509, 556}";
}
);
layerId = "D0FF1146-32FF-444C-BC95-9626761FC64D";
paths = (
{
closed = 1;
nodes = (
"29 74 LINE",
"29 0 LINE",
"611 0 LINE",
"637 297 LINE",
"527 311 LINE",
"458 98 LINE",
"305 87 LINE",
"305 649 LINE",
"398 664 LINE",
"398 743 LINE",
"30 743 LINE",
"30 664 LINE",
"102 649 LINE",
"102 85 LINE"
);
}
);
width = 644;
}
);
unicode = 004C;
},
{
glyphname = Ldot;
layers = (
{
anchors = (
{
name = mark0;
position = "{339, -83}";
}
);
layerId = UUID0;
paths = (
{
closed = 1;
nodes = (
"53 43 LINE",
"53 0 LINE",
"573 0 LINE",
"610 208 LINE",
"562 216 LINE",
"506 60 LINE",
"221 52 LINE",
"221 689 LINE",
"321 700 LINE",
"321 743 LINE",
"55 743 LINE",
"55 700 LINE",
"139 689 LINE",
"139 52 LINE"
);
},
{
closed = 1;
nodes = (
"632 328 OFFCURVE",
"663 355 OFFCURVE",
"663 394 CURVE SMOOTH",
"663 423 OFFCURVE",
"647 450 OFFCURVE",
"609 450 CURVE SMOOTH",
"576 450 OFFCURVE",
"544 422 OFFCURVE",
"544 384 CURVE SMOOTH",
"544 350 OFFCURVE",
"569 328 OFFCURVE",
"599 328 CURVE SMOOTH"
);
}
);
width = 693;
},
{
anchors = (
{
name = mark0;
position = "{346, -83}";
}
);
layerId = "D0FF1146-32FF-444C-BC95-9626761FC64D";
paths = (
{
closed = 1;
nodes = (
"29 74 LINE",
"29 0 LINE",
"611 0 LINE",
"637 297 LINE",
"527 311 LINE",
"458 98 LINE",
"305 87 LINE",
"305 649 LINE",
"398 664 LINE",
"398 743 LINE",
"30 743 LINE",
"30 664 LINE",
"102 649 LINE",
"102 85 LINE"
);
},
{
closed = 1;
nodes = (
"751 353 OFFCURVE",
"798 388 OFFCURVE",
"798 452 CURVE SMOOTH",
"798 500 OFFCURVE",
"760 546 OFFCURVE",
"698 546 CURVE SMOOTH",
"635 546 OFFCURVE",
"585 506 OFFCURVE",
"585 446 CURVE SMOOTH",
"585 392 OFFCURVE",
"632 353 OFFCURVE",
"681 353 CURVE SMOOTH"
);
}
);
width = 811;
}
);
unicode = 013F;
},
{
glyphname = Lslash;
layers = (
{
layerId = UUID0;
paths = (
{
closed = 1;
nodes = (
"25 378 LINE",
"25 317 LINE",
"172 380 LINE",
"139 412 LINE",
"139 52 LINE",
"53 43 LINE",
"53 0 LINE",
"573 0 LINE",
"610 208 LINE",
"562 216 LINE",
"506 60 LINE",
"221 52 LINE",
"221 446 LINE",
"188 386 LINE",
"430 492 LINE",
"430 556 LINE",
"189 449 LINE",
"221 427 LINE",
"221 689 LINE",
"321 700 LINE",
"321 743 LINE",
"55 743 LINE",
"55 700 LINE",
"139 689 LINE",
"139 392 LINE",
"172 442 LINE"
);
}
);
width = 633;
},
{
layerId = "D0FF1146-32FF-444C-BC95-9626761FC64D";
paths = (
{
closed = 1;
nodes = (
"21 383 LINE",
"21 303 LINE",
"187 366 LINE",
"102 425 LINE",
"102 85 LINE",
"29 74 LINE",
"29 0 LINE",
"611 0 LINE",
"637 297 LINE",
"527 311 LINE",
"458 98 LINE",
"305 87 LINE",
"305 501 LINE",
"220 377 LINE",
"461 471 LINE",
"461 557 LINE",
"221 460 LINE",
"305 403 LINE",
"305 649 LINE",
"398 664 LINE",
"398 743 LINE",
"30 743 LINE",
"30 664 LINE",
"102 649 LINE",
"102 323 LINE",
"187 446 LINE"
);
}
);
width = 640;
}
);
unicode = 0141;
},
{
glyphname = M;
layers = (
{
anchors = (
{
name = bottom;
position = "{494, 0}";
},
{
name = mark0;
position = "{486, -83}";
},
{
name = top;
position = "{494, 743}";
}
);
layerId = UUID0;
paths = (
{
closed = 1;
nodes = (
"8 43 LINE",
"8 0 LINE",
"258 0 LINE",
"258 43 LINE",
"160 52 LINE",
"201 508 LINE",
"227 708 LINE",
"286 514 LINE",
"454 36 LINE",
"496 36 LINE",
"677 570 LINE",
"721 708 LINE",
"743 508 LINE",
"789 52 LINE",
"696 43 LINE",
"696 0 LINE",
"965 0 LINE",
"965 43 LINE",
"874 53 LINE",
"795 689 LINE",
"910 700 LINE",
"910 743 LINE",
"671 743 LINE",
"518 281 LINE",
"484 147 LINE",
"447 281 LINE",
"296 743 LINE",
"56 743 LINE",
"56 700 LINE",
"173 689 LINE",
"93 52 LINE"
);
}
);
width = 973;
},
{
anchors = (
{
name = bottom;
position = "{521, 0}";
},
{
name = mark0;
position = "{440, -83}";
},
{
name = top;
position = "{521, 743}";
}
);
layerId = "D0FF1146-32FF-444C-BC95-9626761FC64D";
paths = (
{
closed = 1;
nodes = (
"0 74 LINE",
"0 0 LINE",
"294 0 LINE",
"294 74 LINE",
"191 86 LINE",
"229 508 LINE",
"244 677 LINE",
"280 509 LINE",
"405 26 LINE",
"568 26 LINE",
"685 508 LINE",
"717 676 LINE",
"733 508 LINE",
"770 86 LINE",
"688 74 LINE",
"688 0 LINE",
"1049 0 LINE",
"1049 74 LINE",
"977 86 LINE",
"897 649 LINE",
"1006 664 LINE",
"1006 743 LINE",
"634 743 LINE",
"544 340 LINE",
"527 238 LINE",
"509 340 LINE",
"424 743 LINE",
"42 743 LINE",
"42 664 LINE",
"147 649 LINE",
"74 85 LINE"
);
}
);
width = 1049;
}
);
unicode = 004D;
},
{
glyphname = N;
layers = (
{
anchors = (
{
name = bottom;
position = "{399, 0}";
},
{
name = mark0;
position = "{408, -83}";
},
{
name = top;
position = "{409, 743}";
}
);
layerId = UUID0;
paths = (
{
closed = 1;
nodes = (
"56 43 LINE",
"56 0 LINE",
"285 0 LINE",
"285 43 LINE",
"194 52 LINE",
"194 648 LINE",
"276 515 LINE",
"634 0 LINE",
"686 0 LINE",
"686 689 LINE",
"768 700 LINE",
"768 743 LINE",
"540 743 LINE",
"540 700 LINE",
"628 689 LINE",
"628 130 LINE",
"571 230 LINE",
"217 743 LINE",
"56 743 LINE",
"56 700 LINE",
"136 689 LINE",
"136 53 LINE"
);
}
);
width = 797;
},
{
anchors = (
{
name = bottom;
position = "{404, 0}";
},
{
name = mark0;
position = "{438, -83}";
},
{
name = top;
position = "{424, 743}";
}
);
layerId = "D0FF1146-32FF-444C-BC95-9626761FC64D";
paths = (
{
closed = 1;
nodes = (
"27 74 LINE",
"27 0 LINE",
"323 0 LINE",
"323 74 LINE",
"212 86 LINE",
"212 568 LINE",
"272 436 LINE",
"542 0 LINE",
"723 0 LINE",
"723 650 LINE",
"796 664 LINE",
"796 743 LINE",
"531 743 LINE",
"531 664 LINE",
"615 650 LINE",
"615 221 LINE",
"559 348 LINE",
"310 743 LINE",
"27 743 LINE",
"27 664 LINE",
"105 650 LINE",
"105 85 LINE"
);
}
);
width = 808;
}
);
unicode = 004E;
},
{
glyphname = Eng;
layers = (
{
layerId = UUID0;
paths = (
{
closed = 1;
nodes = (
"57 42 LINE",
"57 0 LINE",
"286 0 LINE",
"286 42 LINE",
"195 52 LINE",
"195 655 LINE",
"272 515 LINE",
"601 13 LINE",
"595 -6 OFFCURVE",
"585 -25 OFFCURVE",
"573 -42 CURVE SMOOTH",
"540 -90 OFFCURVE",
"488 -121 OFFCURVE",
"424 -135 CURVE",
"446 -170 LINE",
"512 -163 OFFCURVE",
"569 -141 OFFCURVE",
"625 -79 CURVE SMOOTH",
"660 -39 OFFCURVE",
"687 14 OFFCURVE",
"687 169 CURVE SMOOTH",
"687 689 LINE",
"768 701 LINE",
"768 743 LINE",
"544 743 LINE",
"544 701 LINE",
"629 689 LINE",
"629 95 LINE",
"553 230 LINE",
"221 743 LINE",
"57 743 LINE",
"57 701 LINE",
"137 689 LINE",
"137 52 LINE"
);
}
);
width = 784;
},
{
layerId = "D0FF1146-32FF-444C-BC95-9626761FC64D";
paths = (
{
closed = 1;
nodes = (
"22 73 LINE",
"22 0 LINE",
"316 0 LINE",
"316 73 LINE",
"219 85 LINE",
"219 551 LINE",
"263 455 LINE",
"547 -5 LINE",
"541 -20 OFFCURVE",
"534 -34 OFFCURVE",
"527 -44 CURVE SMOOTH",
"498 -92 OFFCURVE",
"457 -133 OFFCURVE",
"396 -165 CURVE",
"433 -224 LINE",
"492 -215 OFFCURVE",
"561 -185 OFFCURVE",
"617 -123 CURVE SMOOTH",
"654 -78 OFFCURVE",
"724 -1 OFFCURVE",
"724 210 CURVE SMOOTH",
"724 650 LINE",
"808 665 LINE",
"808 743 LINE",
"527 743 LINE",
"527 665 LINE",
"617 650 LINE",
"617 217 LINE",
"554 347 LINE",
"306 743 LINE",
"22 743 LINE",
"22 677 LINE",
"111 659 LINE",
"111 85 LINE"
);
}
);
width = 803;
}
);
unicode = 014A;
},
{
glyphname = O;
layers = (
{
anchors = (
{
name = bottom;
position = "{360, 0}";
},
{
name = center;
position = "{370, 372}";
},
{
name = mark0;
position = "{355, -83}";
},
{
name = ogonek;
position = "{647, 10}";
},
{
name = top;
position = "{360, 743}";
},
{
name = topleft;
position = "{20, 743}";
},
{
name = topright;
position = "{536, 743}";
}
);
layerId = UUID0;
paths = (
{
closed = 1;
nodes = (
"537 -8 OFFCURVE",
"683 143 OFFCURVE",
"683 378 CURVE SMOOTH",
"683 603 OFFCURVE",
"572 751 OFFCURVE",
"370 751 CURVE SMOOTH",
"184 751 OFFCURVE",
"37 602 OFFCURVE",
"37 366 CURVE SMOOTH",
"37 141 OFFCURVE",
"150 -15 OFFCURVE",
"353 -11 CURVE SMOOTH"
);
},
{
closed = 1;
nodes = (
"508 704 OFFCURVE",
"590 570 OFFCURVE",
"590 378 CURVE SMOOTH",
"590 151 OFFCURVE",
"496 36 OFFCURVE",
"358 36 CURVE SMOOTH",
"211 36 OFFCURVE",
"128 175 OFFCURVE",
"128 366 CURVE SMOOTH",
"128 593 OFFCURVE",
"223 704 OFFCURVE",
"361 704 CURVE SMOOTH"
);
}
);
width = 719;
},
{
anchors = (
{
name = bottom;
position = "{368, 0}";
},
{
name = center;
position = "{368, 372}";
},
{
name = mark0;
position = "{365, -83}";
},
{
name = ogonek;
position = "{661, 10}";
},
{
name = top;
position = "{375, 743}";
},
{
name = topleft;
position = "{20, 743}";
},
{
name = topright;
position = "{582, 743}";
}
);
layerId = "D0FF1146-32FF-444C-BC95-9626761FC64D";
paths = (
{
closed = 1;
nodes = (
"580 -10 OFFCURVE",
"712 153 OFFCURVE",
"712 386 CURVE SMOOTH",
"712 611 OFFCURVE",
"619 752 OFFCURVE",
"372 753 CURVE SMOOTH",
"155 754 OFFCURVE",
"23 604 OFFCURVE",
"23 372 CURVE SMOOTH",
"23 143 OFFCURVE",
"117 -12 OFFCURVE",
"364 -11 CURVE SMOOTH"
);
},
{
closed = 1;
nodes = (
"443 680 OFFCURVE",
"489 614 OFFCURVE",
"489 385 CURVE SMOOTH",
"489 175 OFFCURVE",
"445 63 OFFCURVE",
"367 63 CURVE SMOOTH",
"292 63 OFFCURVE",
"246 144 OFFCURVE",
"246 373 CURVE SMOOTH",
"246 582 OFFCURVE",
"289 680 OFFCURVE",
"368 680 CURVE SMOOTH"
);
}
);
width = 735;
}
);
unicode = 004F;
},
{
glyphname = Ohorn;
layers = (
{
anchors = (
{
name = _topright;
position = "{536, 743}";
},
{
name = bottom;
position = "{360, 0}";
},
{
name = center;
position = "{360, 372}";
},
{
name = mark0;
position = "{355, -83}";
},
{
name = ogonek;
position = "{647, 10}";
},
{
name = top;
position = "{371, 743}";
},
{
name = topleft;
position = "{20, 743}";
},
{
name = topright;
position = "{536, 743}";
}
);
layerId = UUID0;
paths = (
{
closed = 1;
nodes = (
"537 -8 OFFCURVE",
"683 143 OFFCURVE",
"683 378 CURVE SMOOTH",
"683 603 OFFCURVE",
"572 751 OFFCURVE",
"370 751 CURVE SMOOTH",
"184 751 OFFCURVE",
"37 602 OFFCURVE",
"37 366 CURVE SMOOTH",
"37 141 OFFCURVE",
"150 -15 OFFCURVE",
"353 -11 CURVE SMOOTH"
);
},
{
closed = 1;
nodes = (
"508 704 OFFCURVE",
"590 570 OFFCURVE",
"590 378 CURVE SMOOTH",
"590 151 OFFCURVE",
"496 36 OFFCURVE",
"358 36 CURVE SMOOTH",
"211 36 OFFCURVE",
"128 175 OFFCURVE",
"128 366 CURVE SMOOTH",
"128 593 OFFCURVE",
"223 704 OFFCURVE",
"361 704 CURVE SMOOTH"
);
},
{
closed = 1;
nodes = (
"665 651 OFFCURVE",
"727 739 OFFCURVE",
"727 843 CURVE SMOOTH",
"727 850 OFFCURVE",
"726 857 OFFCURVE",
"725 865 CURVE",
"650 865 LINE",
"651 861 OFFCURVE",
"651 855 OFFCURVE",
"651 848 CURVE SMOOTH",
"651 798 OFFCURVE",
"622 704 OFFCURVE",
"526 704 CURVE",
"543 651 LINE"
);
}
);
width = 719;
},
{
anchors = (
{
name = _topright;
position = "{582, 743}";
},
{
name = bottom;
position = "{368, 0}";
},
{
name = center;
position = "{368, 372}";
},
{
name = mark0;
position = "{365, -83}";
},
{
name = ogonek;
position = "{661, 10}";
},
{
name = top;
position = "{375, 743}";
},
{
name = topleft;
position = "{20, 743}";
},
{
name = topright;
position = "{582, 743}";
}
);
layerId = "D0FF1146-32FF-444C-BC95-9626761FC64D";
paths = (
{
closed = 1;
nodes = (
"580 -10 OFFCURVE",
"712 153 OFFCURVE",
"712 386 CURVE SMOOTH",
"712 611 OFFCURVE",
"619 752 OFFCURVE",
"372 753 CURVE SMOOTH",
"155 754 OFFCURVE",
"23 604 OFFCURVE",
"23 372 CURVE SMOOTH",
"23 143 OFFCURVE",
"117 -12 OFFCURVE",
"364 -11 CURVE SMOOTH"
);
},
{
closed = 1;
nodes = (
"443 680 OFFCURVE",
"489 614 OFFCURVE",
"489 385 CURVE SMOOTH",
"489 175 OFFCURVE",
"445 63 OFFCURVE",
"367 63 CURVE SMOOTH",
"292 63 OFFCURVE",
"246 144 OFFCURVE",
"246 373 CURVE SMOOTH",
"246 582 OFFCURVE",
"289 680 OFFCURVE",
"368 680 CURVE SMOOTH"
);
},
{
closed = 1;
nodes = (
"676 649 OFFCURVE",
"748 700 OFFCURVE",
"748 844 CURVE SMOOTH",
"748 851 OFFCURVE",
"747 859 OFFCURVE",
"745 865 CURVE",
"630 865 LINE",
"632 858 OFFCURVE",
"634 850 OFFCURVE",
"634 836 CURVE SMOOTH",
"634 796 OFFCURVE",
"627 714 OFFCURVE",
"532 714 CURVE",
"570 649 LINE"
);
}
);
width = 735;
}
);
unicode = 01A0;
},
{
glyphname = Oslash;
layers = (
{
anchors = (
{
name = top;
position = "{371, 743}";
}
);
layerId = UUID0;
paths = (
{
closed = 1;
nodes = (
"159 -86 LINE",
"197 -99 LINE",
"241 5 LINE",
"275 -6 OFFCURVE",
"312 -12 OFFCURVE",
"353 -11 CURVE SMOOTH",
"538 -8 OFFCURVE",
"683 143 OFFCURVE",
"683 378 CURVE SMOOTH",
"683 541 OFFCURVE",
"625 664 OFFCURVE",
"515 719 CURVE",
"556 819 LINE",
"518 833 LINE",
"479 734 LINE",
"446 745 OFFCURVE",
"410 751 OFFCURVE",
"370 751 CURVE SMOOTH",
"185 751 OFFCURVE",
"37 602 OFFCURVE",
"37 366 CURVE SMOOTH",
"37 204 OFFCURVE",
"96 78 OFFCURVE",
"205 21 CURVE"
);
},
{
closed = 1;
nodes = (
"397 704 OFFCURVE",
"429 696 OFFCURVE",
"456 682 CURVE",
"231 82 LINE",
"164 137 OFFCURVE",
"128 240 OFFCURVE",
"128 366 CURVE SMOOTH",
"128 593 OFFCURVE",
"223 704 OFFCURVE",
"362 704 CURVE SMOOTH"
);
},
{
closed = 1;
nodes = (
"591 151 OFFCURVE",
"496 36 OFFCURVE",
"359 36 CURVE SMOOTH",
"323 36 OFFCURVE",
"292 44 OFFCURVE",
"264 59 CURVE",
"490 659 LINE",
"555 604 OFFCURVE",
"591 503 OFFCURVE",
"591 378 CURVE SMOOTH"
);
}
);
width = 720;
},
{
anchors = (
{
name = top;
position = "{369, 743}";
}
);
layerId = "D0FF1146-32FF-444C-BC95-9626761FC64D";
paths = (
{
closed = 1;
nodes = (
"125 -98 LINE",
"215 -122 LINE",
"266 -2 LINE",
"295 -8 OFFCURVE",
"328 -11 OFFCURVE",
"364 -11 CURVE SMOOTH",
"580 -10 OFFCURVE",
"712 153 OFFCURVE",
"712 386 CURVE SMOOTH",
"712 543 OFFCURVE",
"667 660 OFFCURVE",
"554 716 CURVE",
"600 836 LINE",
"517 860 LINE",
"472 744 LINE",
"441 750 OFFCURVE",
"408 753 OFFCURVE",
"372 753 CURVE SMOOTH",
"155 754 OFFCURVE",
"23 604 OFFCURVE",
"23 372 CURVE SMOOTH",
"23 212 OFFCURVE",
"68 89 OFFCURVE",
"179 29 CURVE"
);
},
{
closed = 1;
nodes = (
"397 680 OFFCURVE",
"422 669 OFFCURVE",
"441 644 CURVE",
"262 182 LINE",
"251 229 OFFCURVE",
"246 292 OFFCURVE",
"246 373 CURVE SMOOTH",
"246 582 OFFCURVE",
"289 680 OFFCURVE",
"368 680 CURVE SMOOTH"
);
},
{
closed = 1;
nodes = (
"489 175 OFFCURVE",
"445 63 OFFCURVE",
"367 63 CURVE SMOOTH",
"336 63 OFFCURVE",
"311 76 OFFCURVE",
"291 106 CURVE",
"473 569 LINE",
"483 524 OFFCURVE",
"489 465 OFFCURVE",
"489 385 CURVE SMOOTH"
);
}
);
width = 735;
}
);
unicode = 00D8;
},
{
glyphname = OE;
layers = (
{
anchors = (
{
name = mark0;
position = "{498, -83}";
}
);
layerId = UUID0;
paths = (
{
closed = 1;
nodes = (
"505 0 LINE",
"963 0 LINE",
"1001 171 LINE",
"954 184 LINE",
"896 59 LINE",
"586 49 LINE",
"586 360 LINE",
"772 357 LINE",
"784 271 LINE",
"835 271 LINE",
"835 492 LINE",
"784 492 LINE",
"772 410 LINE",
"586 407 LINE",
"586 695 LINE",
"855 690 LINE",
"882 593 LINE",
"929 593 LINE",
"915 743 LINE",
"505 743 LINE",
"505 728 LINE",
"466 747 OFFCURVE",
"421 756 OFFCURVE",
"371 755 CURVE SMOOTH",
"186 751 OFFCURVE",
"37 603 OFFCURVE",
"37 367 CURVE SMOOTH",
"37 143 OFFCURVE",
"154 -12 OFFCURVE",
"356 -8 CURVE",
"410 -6 OFFCURVE",
"460 7 OFFCURVE",
"505 32 CURVE"
);
},
{
closed = 1;
nodes = (
"211 39 OFFCURVE",
"126 187 OFFCURVE",
"126 367 CURVE SMOOTH",
"126 587 OFFCURVE",
"221 709 OFFCURVE",
"364 709 CURVE SMOOTH",
"430 709 OFFCURVE",
"474 689 OFFCURVE",
"505 659 CURVE",
"505 96 LINE",
"470 59 OFFCURVE",
"422 39 OFFCURVE",
"362 39 CURVE SMOOTH"
);
}
);
width = 1027;
},
{
anchors = (
{
name = mark0;
position = "{503, -83}";
}
);
layerId = "D0FF1146-32FF-444C-BC95-9626761FC64D";
paths = (
{
closed = 1;
nodes = (
"470 0 LINE",
"1009 0 LINE",
"1041 191 LINE",
"948 218 LINE",
"874 91 LINE",
"678 76 LINE",
"678 334 LINE",
"779 331 LINE",
"797 244 LINE",
"878 244 LINE",
"878 505 LINE",
"797 505 LINE",
"779 425 LINE",
"678 421 LINE",
"678 671 LINE",
"853 658 LINE",
"889 556 LINE",
"980 556 LINE",
"966 743 LINE",
"470 743 LINE",
"470 738 LINE",
"440 749 OFFCURVE",
"408 754 OFFCURVE",
"374 754 CURVE SMOOTH",
"148 753 OFFCURVE",
"23 604 OFFCURVE",
"23 372 CURVE SMOOTH",
"23 148 OFFCURVE",
"124 -8 OFFCURVE",
"365 -8 CURVE SMOOTH",
"403 -8 OFFCURVE",
"438 0 OFFCURVE",
"470 18 CURVE"
);
},
{
closed = 1;
nodes = (
"293 63 OFFCURVE",
"245 149 OFFCURVE",
"245 373 CURVE SMOOTH",
"245 580 OFFCURVE",
"286 681 OFFCURVE",
"366 681 CURVE SMOOTH",
"416 681 OFFCURVE",
"451 659 OFFCURVE",
"470 574 CURVE",
"470 197 LINE",
"452 115 OFFCURVE",
"419 63 OFFCURVE",
"369 63 CURVE SMOOTH"
);
}
);
width = 1044;
}
);
unicode = 0152;
},
{
glyphname = P;
layers = (
{
anchors = (
{
name = bottom;
position = "{321, 0}";
},
{
name = mark0;
position = "{330, -83}";
},
{
name = top;
position = "{351, 743}";
}
);
layerId = UUID0;
paths = (
{
closed = 1;
nodes = (
"53 43 LINE",
"53 0 LINE",
"360 0 LINE",
"360 43 LINE",
"221 53 LINE",
"221 288 LINE",
"230 286 OFFCURVE",
"288 284 OFFCURVE",
"327 284 CURVE SMOOTH",
"486 284 OFFCURVE",
"613 378 OFFCURVE",
"613 540 CURVE SMOOTH",
"613 672 OFFCURVE",
"551 750 OFFCURVE",
"355 750 CURVE SMOOTH",
"268 750 OFFCURVE",
"246 743 OFFCURVE",
"180 743 CURVE SMOOTH",
"59 743 LINE",
"59 700 LINE",
"139 689 LINE",
"139 52 LINE"
);
},
{
closed = 1;
nodes = (
"221 696 LINE",
"249 696 OFFCURVE",
"282 702 OFFCURVE",
"330 702 CURVE SMOOTH",
"462 702 OFFCURVE",
"525 659 OFFCURVE",
"525 540 CURVE SMOOTH",
"525 381 OFFCURVE",
"430 333 OFFCURVE",
"329 333 CURVE SMOOTH",
"279 333 OFFCURVE",
"240 334 OFFCURVE",
"221 337 CURVE"
);
}
);
width = 641;
},
{
anchors = (
{
name = bottom;
position = "{223, 0}";
},
{
name = mark0;
position = "{336, -83}";
},
{
name = top;
position = "{379, 743}";
}
);
layerId = "D0FF1146-32FF-444C-BC95-9626761FC64D";
paths = (
{
closed = 1;
nodes = (
"29 74 LINE",
"29 0 LINE",
"434 0 LINE",
"434 74 LINE",
"305 85 LINE",
"305 249 LINE",
"313 248 OFFCURVE",
"336 246 OFFCURVE",
"361 246 CURVE SMOOTH",
"566 246 OFFCURVE",
"666 349 OFFCURVE",
"666 521 CURVE SMOOTH",
"666 667 OFFCURVE",
"601 747 OFFCURVE",
"373 748 CURVE",
"300 749 OFFCURVE",
"246 743 OFFCURVE",
"208 743 CURVE SMOOTH",
"31 743 LINE",
"31 664 LINE",
"102 649 LINE",
"102 85 LINE"
);
},
{
closed = 1;
nodes = (
"304 669 LINE",
"315 672 OFFCURVE",
"321 675 OFFCURVE",
"354 675 CURVE SMOOTH",
"423 675 OFFCURVE",
"461 626 OFFCURVE",
"461 516 CURVE SMOOTH",
"461 366 OFFCURVE",
"417 320 OFFCURVE",
"355 320 CURVE SMOOTH",
"328 320 OFFCURVE",
"313 322 OFFCURVE",
"304 325 CURVE"
);
}
);
width = 678;
}
);
unicode = 0050;
},
{
glyphname = Thorn;
layers = (
{
layerId = UUID0;
paths = (
{
closed = 1;
nodes = (
"50 42 LINE",
"50 0 LINE",
"325 0 LINE",
"325 42 LINE",
"216 52 LINE",
"216 175 LINE",
"248 172 OFFCURVE",
"285 171 OFFCURVE",
"342 171 CURVE SMOOTH",
"503 171 OFFCURVE",
"604 240 OFFCURVE",
"604 390 CURVE SMOOTH",
"604 521 OFFCURVE",
"518 586 OFFCURVE",
"375 586 CURVE SMOOTH",
"320 586 OFFCURVE",
"266 580 OFFCURVE",
"216 576 CURVE",
"216 690 LINE",
"306 701 LINE",
"306 744 LINE",
"52 744 LINE",
"52 701 LINE",
"135 690 LINE",
"135 52 LINE"
);
},
{
closed = 1;
nodes = (
"302 216 OFFCURVE",
"259 215 OFFCURVE",
"216 220 CURVE",
"216 528 LINE",
"246 532 OFFCURVE",
"288 537 OFFCURVE",
"333 538 CURVE SMOOTH",
"460 541 OFFCURVE",
"513 484 OFFCURVE",
"513 385 CURVE SMOOTH",
"513 259 OFFCURVE",
"438 216 OFFCURVE",
"339 216 CURVE SMOOTH"
);
}
);
width = 635;
},
{
layerId = "D0FF1146-32FF-444C-BC95-9626761FC64D";
paths = (
{
closed = 1;
nodes = (
"26 73 LINE",
"26 0 LINE",
"405 0 LINE",
"405 73 LINE",
"305 85 LINE",
"305 163 LINE",
"325 161 OFFCURVE",
"365 156 OFFCURVE",
"408 156 CURVE SMOOTH",
"562 156 OFFCURVE",
"668 230 OFFCURVE",
"668 389 CURVE SMOOTH",
"668 525 OFFCURVE",
"582 589 OFFCURVE",
"435 589 CURVE SMOOTH",
"375 589 OFFCURVE",
"354 583 OFFCURVE",
"305 579 CURVE",
"305 649 LINE",
"386 665 LINE",
"385 743 LINE",
"25 743 LINE",
"25 665 LINE",
"102 649 LINE",
"102 85 LINE"
);
},
{
closed = 1;
nodes = (
"355 230 OFFCURVE",
"330 229 OFFCURVE",
"305 234 CURVE",
"305 504 LINE",
"317 508 OFFCURVE",
"341 511 OFFCURVE",
"360 511 CURVE SMOOTH",
"430 511 OFFCURVE",
"456 446 OFFCURVE",
"456 382 CURVE SMOOTH",
"456 292 OFFCURVE",
"420 230 OFFCURVE",
"374 230 CURVE SMOOTH"
);
}
);
width = 682;
}
);
unicode = 00DE;
},
{
glyphname = Q;
layers = (
{
anchors = (
{
name = mark0;
position = "{358, -83}";
}
);
layerId = UUID0;
paths = (
{
closed = 1;
nodes = (
"840 -202 OFFCURVE",
"874 -192 OFFCURVE",
"896 -172 CURVE",
"886 -131 LINE",
"879 -131 OFFCURVE",
"874 -132 OFFCURVE",
"863 -132 CURVE",
"733 -132 OFFCURVE",
"626 6 OFFCURVE",
"480 16 CURVE",
"602 70 OFFCURVE",
"686 199 OFFCURVE",
"686 378 CURVE SMOOTH",
"686 603 OFFCURVE",
"575 751 OFFCURVE",
"373 751 CURVE SMOOTH",
"187 751 OFFCURVE",
"40 602 OFFCURVE",
"40 366 CURVE SMOOTH",
"40 141 OFFCURVE",
"153 -15 OFFCURVE",
"355 -11 CURVE SMOOTH",
"377 -11 OFFCURVE",
"399 -8 OFFCURVE",
"420 -3 CURVE",
"549 -25 OFFCURVE",
"642 -202 OFFCURVE",
"814 -202 CURVE SMOOTH"
);
},
{
closed = 1;
nodes = (
"214 36 OFFCURVE",
"131 175 OFFCURVE",
"131 366 CURVE SMOOTH",
"131 593 OFFCURVE",
"226 704 OFFCURVE",
"364 704 CURVE SMOOTH",
"511 704 OFFCURVE",
"593 570 OFFCURVE",
"593 378 CURVE SMOOTH",
"593 151 OFFCURVE",
"499 36 OFFCURVE",
"361 36 CURVE SMOOTH"
);
}
);
width = 725;
},
{
anchors = (
{
name = mark0;
position = "{365, -83}";
}
);
layerId = "D0FF1146-32FF-444C-BC95-9626761FC64D";
paths = (
{
closed = 1;
nodes = (
"830 -186 OFFCURVE",
"865 -167 OFFCURVE",
"903 -116 CURVE",
"886 -63 LINE",
"876 -67 OFFCURVE",
"859 -70 OFFCURVE",
"823 -70 CURVE SMOOTH",
"732 -70 OFFCURVE",
"627 3 OFFCURVE",
"527 26 CURVE",
"645 91 OFFCURVE",
"712 227 OFFCURVE",
"712 386 CURVE SMOOTH",
"712 611 OFFCURVE",
"619 752 OFFCURVE",
"372 753 CURVE SMOOTH",
"155 754 OFFCURVE",
"23 604 OFFCURVE",
"23 372 CURVE SMOOTH",
"23 143 OFFCURVE",
"117 -12 OFFCURVE",
"364 -11 CURVE SMOOTH",
"389 -11 OFFCURVE",
"413 -8 OFFCURVE",
"436 -4 CURVE",
"544 -50 OFFCURVE",
"614 -186 OFFCURVE",
"760 -186 CURVE SMOOTH"
);
},
{
closed = 1;
nodes = (
"292 63 OFFCURVE",
"246 144 OFFCURVE",
"246 373 CURVE SMOOTH",
"246 582 OFFCURVE",
"289 680 OFFCURVE",
"368 680 CURVE SMOOTH",
"443 680 OFFCURVE",
"489 614 OFFCURVE",
"489 385 CURVE SMOOTH",
"489 175 OFFCURVE",
"445 63 OFFCURVE",
"367 63 CURVE SMOOTH"
);
}
);
width = 735;
}
);
unicode = 0051;
},
{
glyphname = R;
layers = (
{
anchors = (
{
name = bottom;
position = "{377, 0}";
},
{
name = mark0;
position = "{371, -83}";
},
{
name = top;
position = "{347, 743}";
}
);
layerId = UUID0;
paths = (
{
closed = 1;
nodes = (
"321 0 LINE",
"321 43 LINE",
"218 52 LINE",
"218 331 LINE",
"237 330 OFFCURVE",
"328 330 OFFCURVE",
"359 330 CURVE",
"435 293 OFFCURVE",
"525 0 OFFCURVE",
"575 0 CURVE SMOOTH",
"689 0 LINE",
"689 42 LINE",
"647 53 LINE",
"598 64 OFFCURVE",
"517 297 OFFCURVE",
"441 344 CURVE",
"536 372 OFFCURVE",
"591 461 OFFCURVE",
"591 555 CURVE SMOOTH",
"591 679 OFFCURVE",
"526 751 OFFCURVE",
"338 751 CURVE SMOOTH",
"302 751 OFFCURVE",
"250 743 OFFCURVE",
"178 743 CURVE SMOOTH",
"56 743 LINE",
"56 702 LINE",
"136 690 LINE",
"136 52 LINE",
"50 43 LINE",
"50 0 LINE"
);
},
{
closed = 1;
nodes = (
"329 379 OFFCURVE",
"253 378 OFFCURVE",
"218 380 CURVE",
"218 696 LINE",
"253 698 OFFCURVE",
"290 702 OFFCURVE",
"318 702 CURVE SMOOTH",
"463 702 OFFCURVE",
"504 637 OFFCURVE",
"504 548 CURVE SMOOTH",
"504 434 OFFCURVE",
"442 379 OFFCURVE",
"353 379 CURVE SMOOTH"
);
}
);
width = 693;
},
{
anchors = (
{
name = bottom;
position = "{419, 0}";
},
{
name = mark0;
position = "{381, -83}";
},
{
name = top;
position = "{373, 743}";
}
);
layerId = "D0FF1146-32FF-444C-BC95-9626761FC64D";
paths = (
{
closed = 1;
nodes = (
"389 0 LINE",
"389 74 LINE",
"305 85 LINE",
"305 311 LINE",
"329 311 OFFCURVE",
"352 311 OFFCURVE",
"376 311 CURVE",
"451 287 OFFCURVE",
"488 0 OFFCURVE",
"537 0 CURVE SMOOTH",
"753 0 LINE",
"753 74 LINE",
"729 83 LINE",
"682 95 OFFCURVE",
"661 303 OFFCURVE",
"532 343 CURVE",
"633 375 OFFCURVE",
"671 472 OFFCURVE",
"671 549 CURVE SMOOTH",
"671 693 OFFCURVE",
"591 749 OFFCURVE",
"372 749 CURVE SMOOTH",
"295 749 OFFCURVE",
"257 743 OFFCURVE",
"197 743 CURVE SMOOTH",
"31 743 LINE",
"31 664 LINE",
"102 649 LINE",
"102 85 LINE",
"29 74 LINE",
"29 0 LINE"
);
},
{
closed = 1;
nodes = (
"349 382 OFFCURVE",
"313 381 OFFCURVE",
"305 385 CURVE",
"305 672 LINE",
"312 674 OFFCURVE",
"327 676 OFFCURVE",
"355 676 CURVE SMOOTH",
"427 676 OFFCURVE",
"458 639 OFFCURVE",
"458 543 CURVE SMOOTH",
"458 431 OFFCURVE",
"422 382 OFFCURVE",
"361 382 CURVE SMOOTH"
);
}
);
width = 745;
}
);
unicode = 0052;
},
{
glyphname = S;
layers = (
{
anchors = (
{
name = bottom;
position = "{294, 0}";
},
{
name = mark0;
position = "{293, -83}";
},
{
name = top;
position = "{324, 743}";
}
);
layerId = UUID0;
paths = (
{
closed = 1;
nodes = (
"451 -11 OFFCURVE",
"545 96 OFFCURVE",
"545 199 CURVE SMOOTH",
"545 319 OFFCURVE",
"429 370 OFFCURVE",
"331 417 CURVE SMOOTH",
"226 466 OFFCURVE",
"154 497 OFFCURVE",
"154 583 CURVE SMOOTH",
"154 664 OFFCURVE",
"208 704 OFFCURVE",
"306 704 CURVE SMOOTH",
"363 704 OFFCURVE",
"412 687 OFFCURVE",
"426 675 CURVE",
"444 551 LINE",
"494 551 LINE",
"500 715 LINE",
"471 720 OFFCURVE",
"400 751 OFFCURVE",
"311 751 CURVE SMOOTH",
"172 751 OFFCURVE",
"75 675 OFFCURVE",
"75 563 CURVE SMOOTH",
"75 434 OFFCURVE",
"196 380 OFFCURVE",
"279 344 CURVE SMOOTH",
"380 301 OFFCURVE",
"458 265 OFFCURVE",
"458 177 CURVE SMOOTH",
"458 92 OFFCURVE",
"401 38 OFFCURVE",
"291 38 CURVE SMOOTH",
"222 38 OFFCURVE",
"163 60 OFFCURVE",
"140 82 CURVE",
"125 213 LINE",
"73 213 LINE",
"65 35 LINE",
"96 32 OFFCURVE",
"173 -11 OFFCURVE",
"286 -11 CURVE SMOOTH"
);
}
);
width = 588;
},
{
anchors = (
{
name = bottom;
position = "{308, 0}";
},
{
name = mark0;
position = "{305, -83}";
},
{
name = top;
position = "{338, 743}";
}
);
layerId = "D0FF1146-32FF-444C-BC95-9626761FC64D";
paths = (
{
closed = 1;
nodes = (
"550 -11 OFFCURVE",
"600 123 OFFCURVE",
"600 219 CURVE SMOOTH",
"600 342 OFFCURVE",
"495 403 OFFCURVE",
"422 438 CURVE",
"331 484 OFFCURVE",
"243 523 OFFCURVE",
"243 596 CURVE SMOOTH",
"243 636 OFFCURVE",
"267 679 OFFCURVE",
"338 679 CURVE SMOOTH",
"378 679 OFFCURVE",
"407 667 OFFCURVE",
"413 657 CURVE",
"437 535 LINE",
"543 535 LINE",
"549 718 LINE",
"520 719 OFFCURVE",
"451 753 OFFCURVE",
"326 753 CURVE SMOOTH",
"127 753 OFFCURVE",
"52 648 OFFCURVE",
"52 543 CURVE SMOOTH",
"52 401 OFFCURVE",
"161 333 OFFCURVE",
"235 298 CURVE SMOOTH",
"338 249 OFFCURVE",
"399 215 OFFCURVE",
"399 154 CURVE SMOOTH",
"399 101 OFFCURVE",
"367 66 OFFCURVE",
"293 66 CURVE SMOOTH",
"238 66 OFFCURVE",
"205 82 OFFCURVE",
"195 96 CURVE",
"167 222 LINE",
"59 222 LINE",
"50 32 LINE",
"84 30 OFFCURVE",
"180 -11 OFFCURVE",
"306 -11 CURVE SMOOTH"
);
}
);
width = 616;
}
);
unicode = 0053;
},
{
glyphname = Scedilla;
layers = (
{
anchors = (
{
name = _bottom;
position = "{294, 0}";
},
{
name = bottom;
position = "{294, -235}";
},
{
name = mark0;
position = "{293, -83}";
}
);
layerId = UUID0;
paths = (
{
closed = 1;
nodes = (
"95.426 32.056 OFFCURVE",
"170.166 -9.422 OFFCURVE",
"279.764 -10.956 CURVE",
"290.777 -30.387 OFFCURVE",
"307 -66.167 OFFCURVE",
"307 -100 CURVE SMOOTH",
"307 -161 OFFCURVE",
"280 -171 OFFCURVE",
"231 -171 CURVE SMOOTH",
"221 -171 OFFCURVE",
"199 -168 OFFCURVE",
"185 -163 CURVE",
"184 -222 LINE",
"202 -229 OFFCURVE",
"232 -235 OFFCURVE",
"255 -235 CURVE SMOOTH",
"330 -235 OFFCURVE",
"374 -211 OFFCURVE",
"377 -143 CURVE SMOOTH",
"379.621 -87.961 OFFCURVE",
"345.607 -34.449 OFFCURVE",
"322.966 -9.135 CURVE",
"464.965 5.512 OFFCURVE",
"545 103.959 OFFCURVE",
"545 199 CURVE SMOOTH",
"545 319 OFFCURVE",
"429 370 OFFCURVE",
"331 417 CURVE SMOOTH",
"226 466 OFFCURVE",
"154 497 OFFCURVE",
"154 583 CURVE SMOOTH",
"154 664 OFFCURVE",
"208 704 OFFCURVE",
"306 704 CURVE SMOOTH",
"363 704 OFFCURVE",
"412 687 OFFCURVE",
"426 675 CURVE",
"444 551 LINE",
"494 551 LINE",
"500 715 LINE",
"471 720 OFFCURVE",
"400 751 OFFCURVE",
"311 751 CURVE SMOOTH",
"172 751 OFFCURVE",
"75 675 OFFCURVE",
"75 563 CURVE SMOOTH",
"75 434 OFFCURVE",
"196 380 OFFCURVE",
"279 344 CURVE SMOOTH",
"380 301 OFFCURVE",
"458 265 OFFCURVE",
"458 177 CURVE SMOOTH",
"458 92 OFFCURVE",
"401 38 OFFCURVE",
"291 38 CURVE SMOOTH",
"222 38 OFFCURVE",
"163 60 OFFCURVE",
"140 82 CURVE",
"125 213 LINE",
"73 213 LINE",
"65 35 LINE"
);
}
);
width = 588;
},
{
anchors = (
{
name = _bottom;
position = "{308, 0}";
},
{
name = bottom;
position = "{308, -264}";
},
{
name = mark0;
position = "{305, -83}";
}
);
layerId = "D0FF1146-32FF-444C-BC95-9626761FC64D";
paths = (
{
closed = 1;
nodes = (
"81.378 30.154 OFFCURVE",
"165.564 -4.909 OFFCURVE",
"277.404 -10.305 CURVE",
"288.01 -28.763 OFFCURVE",
"300 -57.309 OFFCURVE",
"300 -83 CURVE SMOOTH",
"300 -145 OFFCURVE",
"277 -151 OFFCURVE",
"233 -151 CURVE SMOOTH",
"226 -151 OFFCURVE",
"207 -149 OFFCURVE",
"193 -145 CURVE",
"193 -249 LINE",
"210 -257 OFFCURVE",
"241 -264 OFFCURVE",
"264 -264 CURVE SMOOTH",
"362 -264 OFFCURVE",
"418 -237 OFFCURVE",
"423 -145 CURVE SMOOTH",
"426.356 -86.271 OFFCURVE",
"388.886 -34.582 OFFCURVE",
"363.741 -8.238 CURVE",
"558.087 11.356 OFFCURVE",
"600 131.105 OFFCURVE",
"600 219 CURVE SMOOTH",
"600 342 OFFCURVE",
"495 403 OFFCURVE",
"422 438 CURVE SMOOTH",
"331 484 OFFCURVE",
"243 523 OFFCURVE",
"243 596 CURVE SMOOTH",
"243 636 OFFCURVE",
"267 679 OFFCURVE",
"338 679 CURVE SMOOTH",
"378 679 OFFCURVE",
"407 667 OFFCURVE",
"413 657 CURVE",
"437 535 LINE",
"543 535 LINE",
"549 718 LINE",
"520 719 OFFCURVE",
"451 753 OFFCURVE",
"326 753 CURVE SMOOTH",
"127 753 OFFCURVE",
"52 648 OFFCURVE",
"52 543 CURVE SMOOTH",
"52 401 OFFCURVE",
"161 333 OFFCURVE",
"235 298 CURVE SMOOTH",
"338 249 OFFCURVE",
"399 215 OFFCURVE",
"399 154 CURVE SMOOTH",
"399 101 OFFCURVE",
"367 66 OFFCURVE",
"293 66 CURVE SMOOTH",
"238 66 OFFCURVE",
"205 82 OFFCURVE",
"195 96 CURVE",
"167 222 LINE",
"59 222 LINE",
"50 32 LINE"
);
}
);
width = 616;
}
);
unicode = 015E;
},
{
glyphname = Germandbls;
layers = (
{
layerId = UUID0;
paths = (
{
closed = 1;
nodes = (
"20 0 LINE",
"166 0 LINE",
"166 463 LINE SMOOTH",
"166 615 OFFCURVE",
"260 705 OFFCURVE",
"371 705 CURVE SMOOTH",
"461 705 OFFCURVE",
"504 672 OFFCURVE",
"523 652 CURVE",
"389 426 LINE",
"389 406 LINE",
"453 376 OFFCURVE",
"612 308 OFFCURVE",
"612 189 CURVE SMOOTH",
"612 77 OFFCURVE",
"555 36 OFFCURVE",
"487 36 CURVE SMOOTH",
"439 36 OFFCURVE",
"390 52 OFFCURVE",
"374 74 CURVE",
"357 200 LINE",
"306 200 LINE",
"300 30 LINE",
"327 27 OFFCURVE",
"392 -11 OFFCURVE",
"482 -11 CURVE SMOOTH",
"611 -11 OFFCURVE",
"693 85 OFFCURVE",
"693 207 CURVE SMOOTH",
"693 354 OFFCURVE",
"559 409 OFFCURVE",
"473 457 CURVE",
"601 661 LINE",
"601 696 LINE",
"548 728 OFFCURVE",
"487 751 OFFCURVE",
"396 751 CURVE SMOOTH",
"220 751 OFFCURVE",
"82 616 OFFCURVE",
"82 445 CURVE SMOOTH",
"82 52 LINE",
"20 42 LINE"
);
}
);
width = 717;
},
{
layerId = "D0FF1146-32FF-444C-BC95-9626761FC64D";
paths = (
{
closed = 1;
nodes = (
"6 0 LINE",
"253 0 LINE",
"253 456 LINE SMOOTH",
"253 596 OFFCURVE",
"303 680 OFFCURVE",
"412 680 CURVE SMOOTH",
"452 680 OFFCURVE",
"479 671 OFFCURVE",
"502 655 CURVE",
"368 497 LINE",
"368 396 LINE",
"464 369 OFFCURVE",
"555 284 OFFCURVE",
"555 204 CURVE SMOOTH",
"555 97 OFFCURVE",
"525 63 OFFCURVE",
"490 63 CURVE SMOOTH",
"470 63 OFFCURVE",
"450 70 OFFCURVE",
"441 84 CURVE",
"414 209 LINE",
"321 209 LINE",
"317 28 LINE",
"354 27 OFFCURVE",
"397 -12 OFFCURVE",
"502 -12 CURVE SMOOTH",
"672 -12 OFFCURVE",
"761 84 OFFCURVE",
"761 229 CURVE SMOOTH",
"761 387 OFFCURVE",
"606 448 OFFCURVE",
"521 474 CURVE",
"668 632 LINE",
"669 710 LINE",
"622 719 OFFCURVE",
"563 753 OFFCURVE",
"429 753 CURVE SMOOTH",
"195 753 OFFCURVE",
"57 642 OFFCURVE",
"57 443 CURVE SMOOTH",
"57 85 LINE",
"6 74 LINE"
);
}
);
width = 757;
}
);
unicode = 1E9E;
},
{
glyphname = Schwa;
layers = (
{
layerId = UUID0;
paths = (
{
closed = 1;
nodes = (
"482 -11 OFFCURVE",
"620 146 OFFCURVE",
"620 376 CURVE SMOOTH",
"620 599 OFFCURVE",
"505 751 OFFCURVE",
"324 751 CURVE SMOOTH",
"185 751 OFFCURVE",
"127 715 OFFCURVE",
"71 712 CURVE",
"65 569 LINE",
"118 569 LINE",
"136 649 LINE",
"165 673 OFFCURVE",
"213 702 OFFCURVE",
"308 702 CURVE SMOOTH",
"437 702 OFFCURVE",
"528 582 OFFCURVE",
"536 381 CURVE",
"53 381 LINE",
"48 358 OFFCURVE",
"48 325 OFFCURVE",
"48 284 CURVE",
"52 96 OFFCURVE",
"149 -11 OFFCURVE",
"299 -11 CURVE SMOOTH"
);
},
{
closed = 1;
nodes = (
"190 43 OFFCURVE",
"133 167 OFFCURVE",
"133 277 CURVE SMOOTH",
"133 296 OFFCURVE",
"134 314 OFFCURVE",
"137 332 CURVE",
"536 332 LINE",
"531 126 OFFCURVE",
"438 43 OFFCURVE",
"320 43 CURVE SMOOTH"
);
}
);
width = 655;
},
{
layerId = "D0FF1146-32FF-444C-BC95-9626761FC64D";
paths = (
{
closed = 1;
nodes = (
"532 -11 OFFCURVE",
"681 125 OFFCURVE",
"681 379 CURVE SMOOTH",
"681 625 OFFCURVE",
"538 751 OFFCURVE",
"342 751 CURVE SMOOTH",
"202 751 OFFCURVE",
"121 715 OFFCURVE",
"65 712 CURVE",
"66 542 LINE",
"205 536 LINE",
"223 601 LINE",
"241 640 OFFCURVE",
"249 676 OFFCURVE",
"326 676 CURVE SMOOTH",
"419 676 OFFCURVE",
"464 567 OFFCURVE",
"472 413 CURVE",
"41 414 LINE",
"35 388 OFFCURVE",
"30 323 OFFCURVE",
"30 278 CURVE",
"36 70 OFFCURVE",
"177 -11 OFFCURVE",
"327 -11 CURVE SMOOTH"
);
},
{
closed = 1;
nodes = (
"253 80 OFFCURVE",
"232 190 OFFCURVE",
"232 271 CURVE SMOOTH",
"232 292 OFFCURVE",
"232 305 OFFCURVE",
"233 323 CURVE",
"474 322 LINE",
"474 160 OFFCURVE",
"436 80 OFFCURVE",
"350 80 CURVE SMOOTH"
);
}
);
width = 702;
}
);
unicode = 018F;
},
{
glyphname = T;
layers = (
{
anchors = (
{
name = bottom;
position = "{340, 0}";
},
{
name = center;
position = "{340, 372}";
},
{
name = mark0;
position = "{348, -83}";
},
{
name = top;
position = "{340, 743}";
}
);
layerId = UUID0;
paths = (
{
closed = 1;
nodes = (
"164 43 LINE",
"164 0 LINE",
"524 0 LINE",
"524 43 LINE",
"381 52 LINE",
"381 698 LINE",
"574 692 LINE",
"602 489 LINE",
"655 489 LINE",
"644 743 LINE",
"35 743 LINE",
"18 489 LINE",
"73 489 LINE",
"105 692 LINE",
"295 698 LINE",
"295 52 LINE"
);
}
);
width = 679;
},
{
anchors = (
{
name = bottom;
position = "{371, 0}";
},
{
name = center;
position = "{371, 372}";
},
{
name = mark0;
position = "{372, -83}";
},
{
name = top;
position = "{371, 743}";
}
);
layerId = "D0FF1146-32FF-444C-BC95-9626761FC64D";
paths = (
{
closed = 1;
nodes = (
"145 74 LINE",
"145 0 LINE",
"612 0 LINE",
"612 74 LINE",
"474 86 LINE",
"474 659 LINE",
"570 654 LINE",
"619 424 LINE",
"721 424 LINE",
"708 743 LINE",
"31 743 LINE",
"15 424 LINE",
"123 424 LINE",
"169 654 LINE",
"271 659 LINE",
"271 86 LINE"
);
}
);
width = 741;
}
);
unicode = 0054;
},
{
glyphname = Tbar;
layers = (
{
layerId = UUID0;
paths = (
{
closed = 1;
nodes = (
"180 373 LINE",
"180 319 LINE",
"305 319 LINE",
"305 52 LINE",
"174 43 LINE",
"174 0 LINE",
"534 0 LINE",
"534 43 LINE",
"391 52 LINE",
"391 319 LINE",
"517 319 LINE",
"517 373 LINE",
"391 373 LINE",
"391 698 LINE",
"583 692 LINE",
"611 489 LINE",
"665 489 LINE",
"654 743 LINE",
"44 743 LINE",
"28 489 LINE",
"83 489 LINE",
"115 692 LINE",
"305 698 LINE",
"305 373 LINE"
);
}
);
width = 697;
},
{
layerId = "D0FF1146-32FF-444C-BC95-9626761FC64D";
paths = (
{
closed = 1;
nodes = (
"172 352 LINE",
"172 268 LINE",
"273 268 LINE",
"273 86 LINE",
"148 74 LINE",
"148 0 LINE",
"615 0 LINE",
"615 74 LINE",
"477 86 LINE",
"477 268 LINE",
"575 268 LINE",
"575 352 LINE",
"477 352 LINE",
"477 659 LINE",
"573 654 LINE",
"622 424 LINE",
"724 424 LINE",
"710 743 LINE",
"34 743 LINE",
"18 424 LINE",
"126 424 LINE",
"172 654 LINE",
"273 659 LINE",
"273 352 LINE"
);
}
);
width = 747;
}
);
unicode = 0166;
},
{
glyphname = Tcedilla;
layers = (
{
anchors = (
{
name = _bottom;
position = "{340, 0}";
},
{
name = bottom;
position = "{340, 0}";
},
{
name = center;
position = "{340, 372}";
},
{
name = mark0;
position = "{348, -83}";
},
{
name = top;
position = "{340, 743}";
}
);
layerId = UUID0;
paths = (
{
closed = 1;
nodes = (
"73 489 LINE",
"105 692 LINE",
"295 698 LINE",
"295 52 LINE",
"164 43 LINE",
"164 0 LINE",
"319 0 LINE",
"328 -13 OFFCURVE",
"353 -58 OFFCURVE",
"353 -100 CURVE SMOOTH",
"353 -161 OFFCURVE",
"326 -171 OFFCURVE",
"277 -171 CURVE SMOOTH",
"267 -171 OFFCURVE",
"245 -168 OFFCURVE",
"231 -163 CURVE",
"230 -222 LINE",
"248 -229 OFFCURVE",
"278 -235 OFFCURVE",
"301 -235 CURVE SMOOTH",
"376 -235 OFFCURVE",
"420 -211 OFFCURVE",
"423 -143 CURVE SMOOTH",
"426 -80 OFFCURVE",
"381 -19 OFFCURVE",
"360 0 CURVE",
"524 0 LINE",
"524 43 LINE",
"381 52 LINE",
"381 698 LINE",
"574 692 LINE",
"602 489 LINE",
"655 489 LINE",
"644 743 LINE",
"35 743 LINE",
"18 489 LINE"
);
}
);
width = 679;
},
{
anchors = (
{
name = _bottom;
position = "{371, 0}";
},
{
name = bottom;
position = "{371, 0}";
},
{
name = center;
position = "{371, 372}";
},
{
name = mark0;
position = "{372, -83}";
},
{
name = top;
position = "{371, 743}";
}
);
layerId = "D0FF1146-32FF-444C-BC95-9626761FC64D";
paths = (
{
closed = 1;
nodes = (
"123 424 LINE",
"169 654 LINE",
"271 659 LINE",
"271 86 LINE",
"145 74 LINE",
"145 0 LINE",
"333.938 0 LINE",
"345.352 -16.46 OFFCURVE",
"363 -51.831 OFFCURVE",
"363 -83 CURVE SMOOTH",
"363 -145 OFFCURVE",
"340 -151 OFFCURVE",
"296 -151 CURVE SMOOTH",
"289 -151 OFFCURVE",
"270 -149 OFFCURVE",
"256 -145 CURVE",
"256 -249 LINE",
"273 -257 OFFCURVE",
"304 -264 OFFCURVE",
"327 -264 CURVE SMOOTH",
"425 -264 OFFCURVE",
"481 -237 OFFCURVE",
"486 -145 CURVE SMOOTH",
"489.752 -79.341 OFFCURVE",
"442.474 -22.479 OFFCURVE",
"418.44 0 CURVE",
"612 0 LINE",
"612 74 LINE",
"474 86 LINE",
"474 659 LINE",
"570 654 LINE",
"619 424 LINE",
"721 424 LINE",
"708 743 LINE",
"31 743 LINE",
"15 424 LINE"
);
}
);
width = 741;
}
);
unicode = 0162;
},
{
glyphname = U;
layers = (
{
anchors = (
{
name = bottom;
position = "{369, 0}";
},
{
name = mark0;
position = "{385, -83}";
},
{
name = ogonek;
position = "{664, 10}";
},
{
name = top;
position = "{385, 743}";
},
{
name = topright;
position = "{718, 743}";
}
);
layerId = UUID0;
paths = (
{
closed = 1;
nodes = (
"531 -8 OFFCURVE",
"644 88 OFFCURVE",
"644 305 CURVE SMOOTH",
"644 689 LINE",
"720 700 LINE",
"720 743 LINE",
"498 743 LINE",
"498 700 LINE",
"581 688 LINE",
"581 301 LINE SMOOTH",
"581 131 OFFCURVE",
"515 41 OFFCURVE",
"387 41 CURVE SMOOTH",
"270 41 OFFCURVE",
"186 102 OFFCURVE",
"186 309 CURVE SMOOTH",
"186 689 LINE",
"272 700 LINE",
"272 743 LINE",
"27 743 LINE",
"27 700 LINE",
"102 689 LINE",
"102 318 LINE SMOOTH",
"102 97 OFFCURVE",
"186 -8 OFFCURVE",
"379 -8 CURVE SMOOTH"
);
}
);
width = 738;
},
{
anchors = (
{
name = bottom;
position = "{374, 0}";
},
{
name = mark0;
position = "{368, -83}";
},
{
name = ogonek;
position = "{672, 10}";
},
{
name = top;
position = "{414, 743}";
},
{
name = topright;
position = "{727, 743}";
}
);
layerId = "D0FF1146-32FF-444C-BC95-9626761FC64D";
paths = (
{
closed = 1;
nodes = (
"559 -8 OFFCURVE",
"681 75 OFFCURVE",
"681 292 CURVE SMOOTH",
"681 649 LINE",
"743 664 LINE",
"743 743 LINE",
"469 743 LINE",
"469 664 LINE",
"557 649 LINE",
"557 281 LINE SMOOTH",
"557 162 OFFCURVE",
"523 69 OFFCURVE",
"421 69 CURVE SMOOTH",
"316 69 OFFCURVE",
"280 156 OFFCURVE",
"280 281 CURVE SMOOTH",
"280 647 LINE",
"363 664 LINE",
"363 743 LINE",
"12 743 LINE",
"12 664 LINE",
"70 649 LINE",
"70 297 LINE SMOOTH",
"70 81 OFFCURVE",
"182 -8 OFFCURVE",
"390 -8 CURVE SMOOTH"
);
}
);
width = 747;
}
);
unicode = 0055;
},
{
glyphname = Uhorn;
layers = (
{
anchors = (
{
name = bottom;
position = "{379, 0}";
},
{
name = mark0;
position = "{385, -83}";
},
{
name = ogonek;
position = "{664, 10}";
},
{
name = top;
position = "{388, 743}";
}
);
layerId = UUID0;
paths = (
{
closed = 1;
nodes = (
"102 689 LINE",
"102 318 LINE SMOOTH",
"102 97 OFFCURVE",
"186 -8 OFFCURVE",
"379 -8 CURVE SMOOTH",
"531 -8 OFFCURVE",
"644 88 OFFCURVE",
"644 305 CURVE SMOOTH",
"644 694.867 LINE",
"714.674 709.575 OFFCURVE",
"762.637 757.855 OFFCURVE",
"761 843 CURVE",
"761 850 OFFCURVE",
"760 857 OFFCURVE",
"759 865 CURVE",
"684 865 LINE",
"685 861 OFFCURVE",
"685 855 OFFCURVE",
"685 848 CURVE SMOOTH",
"685 798 OFFCURVE",
"659 743 OFFCURVE",
"577 743 CURVE SMOOTH",
"498 743 LINE",
"498 700 LINE",
"581 688 LINE",
"581 301 LINE SMOOTH",
"581 131 OFFCURVE",
"515 41 OFFCURVE",
"387 41 CURVE SMOOTH",
"270 41 OFFCURVE",
"186 102 OFFCURVE",
"186 309 CURVE SMOOTH",
"186 689 LINE",
"272 700 LINE",
"272 743 LINE",
"27 743 LINE",
"27 700 LINE"
);
}
);
width = 738;
},
{
anchors = (
{
name = bottom;
position = "{390, 0}";
},
{
name = mark0;
position = "{368, -83}";
},
{
name = ogonek;
position = "{672, 10}";
},
{
name = top;
position = "{398, 743}";
}
);
layerId = "D0FF1146-32FF-444C-BC95-9626761FC64D";
paths = (
{
closed = 1;
nodes = (
"70 649 LINE",
"70 297 LINE SMOOTH",
"70 81 OFFCURVE",
"182 -8 OFFCURVE",
"390 -8 CURVE SMOOTH",
"559 -8 OFFCURVE",
"681 75 OFFCURVE",
"681 292 CURVE SMOOTH",
"681 660.033 LINE",
"762.783 675.198 OFFCURVE",
"829 726.822 OFFCURVE",
"829 844 CURVE SMOOTH",
"829 851 OFFCURVE",
"828 859 OFFCURVE",
"826 865 CURVE",
"711 865 LINE",
"713 858 OFFCURVE",
"715 850 OFFCURVE",
"715 836 CURVE SMOOTH",
"715 796 OFFCURVE",
"703 743 OFFCURVE",
"608 743 CURVE SMOOTH",
"469 743 LINE",
"469 664 LINE",
"557 649 LINE",
"557 281 LINE SMOOTH",
"557 162 OFFCURVE",
"523 69 OFFCURVE",
"421 69 CURVE SMOOTH",
"316 69 OFFCURVE",
"280 156 OFFCURVE",
"280 281 CURVE SMOOTH",
"280 647 LINE",
"363 664 LINE",
"363 743 LINE",
"12 743 LINE",
"12 664 LINE"
);
}
);
width = 747;
}
);
unicode = 01AF;
},
{
glyphname = Uogonek;
layers = (
{
layerId = UUID0;
paths = (
{
closed = 1;
nodes = (
"384 -8 OFFCURVE",
"388 -8 OFFCURVE",
"392 -7 CURVE",
"327 -40 OFFCURVE",
"271 -104 OFFCURVE",
"271 -155 CURVE SMOOTH",
"271 -226 OFFCURVE",
"331 -249 OFFCURVE",
"393 -249 CURVE SMOOTH",
"434 -249 OFFCURVE",
"478 -236 OFFCURVE",
"505 -215 CURVE",
"505 -173 LINE",
"482 -185 OFFCURVE",
"454 -193 OFFCURVE",
"427 -193 CURVE SMOOTH",
"386 -193 OFFCURVE",
"350 -176 OFFCURVE",
"350 -128 CURVE SMOOTH",
"350 -87 OFFCURVE",
"402 -31 OFFCURVE",
"466 4 CURVE",
"572 36 OFFCURVE",
"644 132 OFFCURVE",
"644 305 CURVE SMOOTH",
"644 689 LINE",
"720 700 LINE",
"720 743 LINE",
"498 743 LINE",
"498 700 LINE",
"581 688 LINE",
"581 301 LINE SMOOTH",
"581 131 OFFCURVE",
"515 41 OFFCURVE",
"387 41 CURVE SMOOTH",
"270 41 OFFCURVE",
"186 102 OFFCURVE",
"186 309 CURVE SMOOTH",
"186 689 LINE",
"272 700 LINE",
"272 743 LINE",
"27 743 LINE",
"27 700 LINE",
"102 689 LINE",
"102 318 LINE SMOOTH",
"102 97 OFFCURVE",
"186 -8 OFFCURVE",
"379 -8 CURVE SMOOTH"
);
}
);
width = 738;
},
{
layerId = "D0FF1146-32FF-444C-BC95-9626761FC64D";
paths = (
{
closed = 1;
nodes = (
"402 -8 OFFCURVE",
"414 -7 OFFCURVE",
"426 -6 CURVE",
"371 -33 OFFCURVE",
"303 -88 OFFCURVE",
"303 -149 CURVE SMOOTH",
"303 -220 OFFCURVE",
"366 -251 OFFCURVE",
"438 -251 CURVE SMOOTH",
"480 -251 OFFCURVE",
"538 -239 OFFCURVE",
"566 -218 CURVE",
"566 -139 LINE",
"543 -148 OFFCURVE",
"535 -150 OFFCURVE",
"511 -150 CURVE SMOOTH",
"473 -150 OFFCURVE",
"453 -121 OFFCURVE",
"453 -93 CURVE SMOOTH",
"453 -57 OFFCURVE",
"484 -21 OFFCURVE",
"531 18 CURVE",
"623 57 OFFCURVE",
"681 143 OFFCURVE",
"681 292 CURVE SMOOTH",
"681 649 LINE",
"743 664 LINE",
"743 743 LINE",
"469 743 LINE",
"469 664 LINE",
"557 649 LINE",
"557 281 LINE SMOOTH",
"557 162 OFFCURVE",
"523 69 OFFCURVE",
"421 69 CURVE SMOOTH",
"316 69 OFFCURVE",
"280 156 OFFCURVE",
"280 281 CURVE SMOOTH",
"280 647 LINE",
"363 664 LINE",
"363 743 LINE",
"12 743 LINE",
"12 664 LINE",
"70 649 LINE",
"70 297 LINE SMOOTH",
"70 81 OFFCURVE",
"182 -8 OFFCURVE",
"390 -8 CURVE SMOOTH"
);
}
);
width = 747;
}
);
unicode = 0172;
},
{
glyphname = V;
layers = (
{
anchors = (
{
name = mark0;
position = "{343, -83}";
}
);
layerId = UUID0;
paths = (
{
closed = 1;
nodes = (
"47 689 LINE",
"306 -8 LINE",
"372 -8 LINE",
"613 689 LINE",
"677 700 LINE",
"677 743 LINE",
"466 743 LINE",
"466 700 LINE",
"546 689 LINE",
"390 209 LINE",
"352 71 LINE",
"310 207 LINE",
"136 689 LINE",
"228 700 LINE",
"228 743 LINE",
"-15 743 LINE",
"-15 700 LINE"
);
}
);
width = 660;
},
{
anchors = (
{
name = mark0;
position = "{331, -83}";
}
);
layerId = "D0FF1146-32FF-444C-BC95-9626761FC64D";
paths = (
{
closed = 1;
nodes = (
"37 649 LINE",
"283 -7 LINE",
"448 -7 LINE",
"669 649 LINE",
"734 664 LINE",
"734 743 LINE",
"464 743 LINE",
"464 664 LINE",
"542 649 LINE",
"417 232 LINE",
"403 161 LINE",
"385 232 LINE",
"258 650 LINE",
"336 664 LINE",
"336 743 LINE",
"-21 743 LINE",
"-21 664 LINE"
);
}
);
width = 710;
}
);
unicode = 0056;
},
{
glyphname = W;
layers = (
{
anchors = (
{
name = bottom;
position = "{496, 0}";
},
{
name = mark0;
position = "{488, -83}";
},
{
name = top;
position = "{496, 743}";
}
);
layerId = UUID0;
paths = (
{
closed = 1;
nodes = (
"50 688 LINE",
"266 -5 LINE",
"339 -5 LINE",
"498 518 LINE",
"660 -5 LINE",
"737 -5 LINE",
"942 689 LINE",
"1009 700 LINE",
"1009 743 LINE",
"772 743 LINE",
"772 700 LINE",
"877 689 LINE",
"744 214 LINE",
"711 44 LINE",
"672 214 LINE",
"531 689 LINE",
"630 700 LINE",
"630 743 LINE",
"370 743 LINE",
"370 700 LINE",
"444 689 LINE",
"471 605 LINE",
"351 214 LINE",
"312 56 LINE",
"279 214 LINE",
"134 689 LINE",
"232 700 LINE",
"232 743 LINE",
"-20 743 LINE",
"-20 700 LINE"
);
}
);
width = 989;
},
{
anchors = (
{
name = bottom;
position = "{521, 0}";
},
{
name = mark0;
position = "{453, -83}";
},
{
name = top;
position = "{551, 743}";
}
);
layerId = "D0FF1146-32FF-444C-BC95-9626761FC64D";
paths = (
{
closed = 1;
nodes = (
"37 649 LINE",
"235 -5 LINE",
"414 -5 LINE",
"522 413 LINE",
"640 -5 LINE",
"820 -5 LINE",
"997 649 LINE",
"1058 664 LINE",
"1058 743 LINE",
"813 743 LINE",
"813 664 LINE",
"891 649 LINE",
"793 220 LINE",
"782 143 LINE",
"766 220 LINE",
"654 649 LINE",
"748 664 LINE",
"748 743 LINE",
"388 743 LINE",
"388 664 LINE",
"447 649 LINE",
"476 563 LINE",
"381 220 LINE",
"372 150 LINE",
"358 220 LINE",
"248 649 LINE",
"326 664 LINE",
"326 743 LINE",
"-17 743 LINE",
"-17 664 LINE"
);
}
);
width = 1041;
}
);
unicode = 0057;
},
{
glyphname = Wacute;
layers = (
{
anchors = (
{
name = mark0;
position = "{487, -83}";
}
);
components = (
{
name = W;
},
{
name = acutecomb.case;
transform = "{1, 0, 0, 1, 496, 0}";
}
);
layerId = UUID0;
width = 989;
},
{
anchors = (
{
name = mark0;
position = "{451, -83}";
}
);
background = {
paths = (
{
closed = 1;
nodes = (
"605 823 OFFCURVE",
"689 902 OFFCURVE",
"712 947 CURVE",
"593 1027 LINE",
"468 842 LINE",
"548 794 LINE"
);
}
);
};
components = (
{
name = W;
},
{
name = acutecomb.case;
transform = "{1, 0, 0, 1, 551, 0}";
}
);
layerId = "D0FF1146-32FF-444C-BC95-9626761FC64D";
width = 1041;
}
);
unicode = 1E82;
},
{
glyphname = X;
layers = (
{
anchors = (
{
name = mark0;
position = "{354, -83}";
}
);
layerId = UUID0;
paths = (
{
closed = 1;
nodes = (
"7 43 LINE",
"7 0 LINE",
"270 0 LINE",
"270 43 LINE",
"167 52 LINE",
"342 342 LINE",
"524 52 LINE",
"426 43 LINE",
"426 0 LINE",
"705 0 LINE",
"705 43 LINE",
"625 52 LINE",
"398 386 LINE",
"607 688 LINE",
"686 700 LINE",
"686 743 LINE",
"447 743 LINE",
"447 700 LINE",
"537 689 LINE",
"371 419 LINE",
"203 688 LINE",
"305 700 LINE",
"305 743 LINE",
"25 743 LINE",
"25 700 LINE",
"102 688 LINE",
"313 376 LINE",
"94 52 LINE"
);
}
);
width = 708;
},
{
anchors = (
{
name = mark0;
position = "{359, -83}";
}
);
layerId = "D0FF1146-32FF-444C-BC95-9626761FC64D";
paths = (
{
closed = 1;
nodes = (
"5 74 LINE",
"5 0 LINE",
"286 0 LINE",
"286 74 LINE",
"197 85 LINE",
"314 292 LINE",
"436 86 LINE",
"365 74 LINE",
"365 0 LINE",
"731 0 LINE",
"731 74 LINE",
"670 86 LINE",
"459 403 LINE",
"641 649 LINE",
"723 664 LINE",
"723 743 LINE",
"451 743 LINE",
"451 664 LINE",
"533 649 LINE",
"414 459 LINE",
"304 648 LINE",
"374 664 LINE",
"374 743 LINE",
"7 743 LINE",
"7 664 LINE",
"69 649 LINE",
"267 351 LINE",
"86 85 LINE"
);
}
);
width = 728;
}
);
unicode = 0058;
},
{
glyphname = Y;
layers = (
{
anchors = (
{
name = bottom;
position = "{320, 0}";
},
{
name = mark0;
position = "{305, -83}";
},
{
name = top;
position = "{330, 743}";
},
{
name = topleft;
position = "{20, 743}";
}
);
layerId = UUID0;
paths = (
{
closed = 1;
nodes = (
"173 43 LINE",
"173 0 LINE",
"482 0 LINE",
"482 43 LINE",
"368 53 LINE",
"368 287 LINE",
"584 689 LINE",
"650 700 LINE",
"650 743 LINE",
"433 743 LINE",
"433 700 LINE",
"517 689 LINE",
"372 406 LINE",
"333 326 LINE",
"297 406 LINE",
"146 689 LINE",
"230 700 LINE",
"230 743 LINE",
"-9 743 LINE",
"-9 700 LINE",
"53 688 LINE",
"284 286 LINE",
"284 52 LINE"
);
}
);
width = 640;
},
{
anchors = (
{
name = bottom;
position = "{331, 0}";
},
{
name = mark0;
position = "{265, -83}";
},
{
name = top;
position = "{373, 743}";
},
{
name = topleft;
position = "{20, 743}";
}
);
layerId = "D0FF1146-32FF-444C-BC95-9626761FC64D";
paths = (
{
closed = 1;
nodes = (
"129 74 LINE",
"129 0 LINE",
"549 0 LINE",
"549 74 LINE",
"445 85 LINE",
"445 303 LINE",
"629 652 LINE",
"688 664 LINE",
"688 743 LINE",
"419 743 LINE",
"419 664 LINE",
"493 649 LINE",
"404 438 LINE",
"383 379 LINE",
"362 438 LINE",
"261 649 LINE",
"320 664 LINE",
"320 743 LINE",
"-23 743 LINE",
"-23 664 LINE",
"30 650 LINE",
"229 302 LINE",
"229 86 LINE"
);
}
);
width = 661;
}
);
unicode = 0059;
},
{
glyphname = Z;
layers = (
{
anchors = (
{
name = bottom;
position = "{327, 0}";
},
{
name = mark0;
position = "{333, -83}";
},
{
name = top;
position = "{345, 743}";
}
);
layerId = UUID0;
paths = (
{
closed = 1;
nodes = (
"42 39 LINE",
"66 0 LINE",
"586 0 LINE",
"610 211 LINE",
"562 222 LINE",
"512 64 LINE",
"142 47 LINE",
"207 125 LINE",
"599 709 LINE",
"577 746 LINE",
"106 746 LINE",
"85 565 LINE",
"131 560 LINE",
"180 690 LINE",
"498 700 LINE",
"441 628 LINE"
);
}
);
width = 653;
},
{
anchors = (
{
name = bottom;
position = "{328, 0}";
},
{
name = mark0;
position = "{339, -83}";
},
{
name = top;
position = "{337, 743}";
}
);
layerId = "D0FF1146-32FF-444C-BC95-9626761FC64D";
paths = (
{
closed = 1;
nodes = (
"5 65 LINE",
"42 0 LINE",
"618 0 LINE",
"640 229 LINE",
"540 249 LINE",
"479 96 LINE",
"224 74 LINE",
"297 135 LINE",
"633 678 LINE",
"607 745 LINE",
"69 745 LINE",
"43 534 LINE",
"143 519 LINE",
"201 659 LINE",
"411 675 LINE",
"350 609 LINE"
);
}
);
width = 656;
}
);
unicode = 005A;
},
{
glyphname = I.uc;
layers = (
{
layerId = UUID0;
paths = (
{
closed = 1;
nodes = (
"236 836 OFFCURVE",
"256 866 OFFCURVE",
"256 901 CURVE SMOOTH",
"256 930 OFFCURVE",
"237 959 OFFCURVE",
"203 959 CURVE SMOOTH",
"163 959 OFFCURVE",
"144 927 OFFCURVE",
"144 893 CURVE SMOOTH",
"144 861 OFFCURVE",
"163 836 OFFCURVE",
"195 836 CURVE SMOOTH"
);
},
{
closed = 1;
nodes = (
"337 0 LINE",
"337 42 LINE",
"240 52 LINE",
"240 689 LINE",
"337 700 LINE",
"337 743 LINE",
"60 743 LINE",
"60 700 LINE",
"157 689 LINE",
"157 52 LINE",
"60 43 LINE",
"60 0 LINE"
);
}
);
width = 397;
},
{
background = {
paths = (
{
closed = 1;
nodes = (
"393 0 LINE",
"393 73 LINE",
"314 85 LINE",
"314 649 LINE",
"393 664 LINE",
"393 743 LINE",
"35 743 LINE",
"35 664 LINE",
"111 649 LINE",
"111 86 LINE",
"36 74 LINE",
"36 0 LINE"
);
}
);
};
layerId = "D0FF1146-32FF-444C-BC95-9626761FC64D";
paths = (
{
closed = 1;
nodes = (
"277 800 OFFCURVE",
"312 837 OFFCURVE",
"312 896 CURVE SMOOTH",
"312 943 OFFCURVE",
"275 977 OFFCURVE",
"211 977 CURVE",
"145 977 OFFCURVE",
"108 941 OFFCURVE",
"108 882 CURVE SMOOTH",
"108 835 OFFCURVE",
"147 800 OFFCURVE",
"201 800 CURVE SMOOTH"
);
},
{
closed = 1;
nodes = (
"393 0 LINE",
"393 73 LINE",
"314 85 LINE",
"314 649 LINE",
"393 664 LINE",
"393 743 LINE",
"35 743 LINE",
"35 664 LINE",
"111 649 LINE",
"111 86 LINE",
"36 74 LINE",
"36 0 LINE"
);
}
);
width = 425;
}
);
},
{
glyphname = a;
layers = (
{
anchors = (
{
name = bottom;
position = "{279, 0}";
},
{
name = mark0;
position = "{257, -83}";
},
{
name = ogonek;
position = "{471, 10}";
},
{
name = top;
position = "{270, 555}";
}
);
layerId = UUID0;
paths = (
{
closed = 1;
nodes = (
"51 37 OFFCURVE",
"129 -11 OFFCURVE",
"218 -11 CURVE SMOOTH",
"302 -11 OFFCURVE",
"368 48 OFFCURVE",
"393 70 CURVE",
"393 33 LINE SMOOTH",
"393 -6 OFFCURVE",
"406 -9 OFFCURVE",
"435 -9 CURVE SMOOTH",
"465 -9 OFFCURVE",
"506 0 OFFCURVE",
"528 6 CURVE",
"528 43 LINE",
"466 43 LINE",
"466 373 LINE SMOOTH",
"466 513 OFFCURVE",
"419 566 OFFCURVE",
"284 566 CURVE SMOOTH",
"192 566 OFFCURVE",
"89 509 OFFCURVE",
"71 492 CURVE",
"93 448 LINE",
"125 466 OFFCURVE",
"188 501 OFFCURVE",
"266 501 CURVE SMOOTH",
"360 501 OFFCURVE",
"386 463 OFFCURVE",
"386 364 CURVE SMOOTH",
"386 333 LINE",
"221 330 OFFCURVE",
"51 286 OFFCURVE",
"51 146 CURVE SMOOTH"
);
},
{
closed = 1;
nodes = (
"187 48 OFFCURVE",
"140 76 OFFCURVE",
"140 156 CURVE SMOOTH",
"140 232 OFFCURVE",
"220 285 OFFCURVE",
"386 286 CURVE",
"386 109 LINE",
"346 78 OFFCURVE",
"288 48 OFFCURVE",
"248 48 CURVE SMOOTH"
);
}
);
width = 557;
},
{
anchors = (
{
name = bottom;
position = "{289, 0}";
},
{
name = mark0;
position = "{275, -83}";
},
{
name = ogonek;
position = "{495, 10}";
},
{
name = top;
position = "{283, 556}";
}
);
layerId = "D0FF1146-32FF-444C-BC95-9626761FC64D";
paths = (
{
closed = 1;
nodes = (
"18 56 OFFCURVE",
"95 -11 OFFCURVE",
"188 -11 CURVE SMOOTH",
"269 -11 OFFCURVE",
"322 29 OFFCURVE",
"348 65 CURVE",
"348 47 LINE SMOOTH",
"348 2 OFFCURVE",
"359 -13 OFFCURVE",
"418 -13 CURVE SMOOTH",
"466 -13 OFFCURVE",
"542 -3 OFFCURVE",
"566 2 CURVE",
"566 74 LINE",
"518 74 LINE",
"518 360 LINE SMOOTH",
"518 509 OFFCURVE",
"467 570 OFFCURVE",
"298 570 CURVE SMOOTH",
"168 570 OFFCURVE",
"71 514 OFFCURVE",
"43 492 CURVE",
"82 410 LINE",
"114 423 OFFCURVE",
"172 448 OFFCURVE",
"248 448 CURVE SMOOTH",
"327 448 OFFCURVE",
"339 420 OFFCURVE",
"339 362 CURVE SMOOTH",
"339 347 LINE",
"144 346 OFFCURVE",
"18 280 OFFCURVE",
"18 165 CURVE SMOOTH"
);
},
{
closed = 1;
nodes = (
"242 92 OFFCURVE",
"219 130 OFFCURVE",
"219 183 CURVE SMOOTH",
"219 228 OFFCURVE",
"248 273 OFFCURVE",
"339 273 CURVE",
"339 120 LINE",
"325 104 OFFCURVE",
"301 92 OFFCURVE",
"282 92 CURVE SMOOTH"
);
}
);
width = 574;
}
);
unicode = 0061;
},
{
glyphname = agrave;
layers = (
{
components = (
{
name = a;
},
{
name = gravecomb;
transform = "{1, 0, 0, 1, 270, 0}";
}
);
layerId = UUID0;
width = 557;
},
{
background = {
anchors = (
{
name = mark0;
position = "{277, -83}";
}
);
paths = (
{
closed = 1;
nodes = (
"302 628 LINE",
"375 685 LINE",
"189 906 LINE",
"83 809 LINE",
"121 742 OFFCURVE",
"238 651 OFFCURVE",
"301 628 CURVE"
);
},
{
closed = 1;
nodes = (
"20 52 OFFCURVE",
"97 -11 OFFCURVE",
"190 -11 CURVE SMOOTH",
"271 -11 OFFCURVE",
"324 29 OFFCURVE",
"350 65 CURVE",
"350 47 LINE SMOOTH",
"350 2 OFFCURVE",
"361 -13 OFFCURVE",
"420 -13 CURVE SMOOTH",
"468 -13 OFFCURVE",
"544 -3 OFFCURVE",
"568 2 CURVE",
"568 74 LINE",
"520 74 LINE",
"520 360 LINE SMOOTH",
"520 509 OFFCURVE",
"469 570 OFFCURVE",
"300 570 CURVE SMOOTH",
"170 570 OFFCURVE",
"70 514 OFFCURVE",
"42 492 CURVE",
"81 410 LINE",
"113 423 OFFCURVE",
"171 448 OFFCURVE",
"250 448 CURVE SMOOTH",
"329 448 OFFCURVE",
"341 420 OFFCURVE",
"341 362 CURVE SMOOTH",
"341 347 LINE",
"123 346 OFFCURVE",
"20 276 OFFCURVE",
"20 161 CURVE SMOOTH"
);
},
{
closed = 1;
nodes = (
"244 92 OFFCURVE",
"221 130 OFFCURVE",
"221 183 CURVE SMOOTH",
"221 228 OFFCURVE",
"250 273 OFFCURVE",
"341 273 CURVE",
"341 120 LINE",
"327 104 OFFCURVE",
"303 92 OFFCURVE",
"284 92 CURVE SMOOTH"
);
}
);
};
components = (
{
name = a;
},
{
name = gravecomb;
transform = "{1, 0, 0, 1, 283, 0}";
}
);
layerId = "D0FF1146-32FF-444C-BC95-9626761FC64D";
width = 574;
}
);
unicode = 00E0;
},
{
glyphname = aogonek;
layers = (
{
anchors = (
{
name = _ogonek;
position = "{471, 10}";
},
{
name = bottom;
position = "{279, 0}";
},
{
name = mark0;
position = "{257, -83}";
},
{
name = ogonek;
position = "{471, 10}";
},
{
name = top;
position = "{270, 555}";
}
);
layerId = UUID0;
paths = (
{
closed = 1;
nodes = (
"302 -11 OFFCURVE",
"368 48 OFFCURVE",
"393 70 CURVE",
"393 33 LINE SMOOTH",
"393 2.887 OFFCURVE",
"400.751 -5.764 OFFCURVE",
"417.633 -8.142 CURVE",
"356.933 -42.574 OFFCURVE",
"300 -101.531 OFFCURVE",
"300 -150 CURVE SMOOTH",
"300 -218 OFFCURVE",
"351 -243 OFFCURVE",
"412 -243 CURVE SMOOTH",
"493 -243 OFFCURVE",
"539 -209 OFFCURVE",
"564 -190 CURVE",
"555 -152 LINE",
"538 -162 OFFCURVE",
"494 -191 OFFCURVE",
"448 -191 CURVE SMOOTH",
"401 -191 OFFCURVE",
"375 -175 OFFCURVE",
"375 -127 CURVE SMOOTH",
"375 -87.241 OFFCURVE",
"438.688 -28.703 OFFCURVE",
"495.972 -1.555 CURVE",
"508 2 OFFCURVE",
"519.557 3.697 OFFCURVE",
"528 6 CURVE",
"528 43 LINE",
"466 43 LINE",
"466 373 LINE SMOOTH",
"466 513 OFFCURVE",
"419 566 OFFCURVE",
"284 566 CURVE SMOOTH",
"192 566 OFFCURVE",
"86 509 OFFCURVE",
"68 492 CURVE",
"90 448 LINE",
"122 466 OFFCURVE",
"188 501 OFFCURVE",
"266 501 CURVE SMOOTH",
"360 501 OFFCURVE",
"386 463 OFFCURVE",
"386 364 CURVE SMOOTH",
"386 333 LINE",
"221 330 OFFCURVE",
"51 286 OFFCURVE",
"51 146 CURVE SMOOTH",
"51 37 OFFCURVE",
"129 -11 OFFCURVE",
"218 -11 CURVE SMOOTH"
);
},
{
closed = 1;
nodes = (
"140 232 OFFCURVE",
"220 285 OFFCURVE",
"386 286 CURVE",
"386 109 LINE",
"346 78 OFFCURVE",
"288 48 OFFCURVE",
"248 48 CURVE SMOOTH",
"187 48 OFFCURVE",
"140 76 OFFCURVE",
"140 156 CURVE SMOOTH"
);
}
);
width = 557;
},
{
anchors = (
{
name = _ogonek;
position = "{497, 10}";
},
{
name = bottom;
position = "{291, 0}";
},
{
name = mark0;
position = "{277, -83}";
},
{
name = ogonek;
position = "{497, 10}";
},
{
name = top;
position = "{285, 556}";
}
);
layerId = "D0FF1146-32FF-444C-BC95-9626761FC64D";
paths = (
{
closed = 1;
nodes = (
"271 -11 OFFCURVE",
"324 29 OFFCURVE",
"350 65 CURVE",
"350 47 LINE SMOOTH",
"350 3.508 OFFCURVE",
"360.275 -11.961 OFFCURVE",
"414.229 -12.949 CURVE",
"352.145 -47.966 OFFCURVE",
"325 -96.391 OFFCURVE",
"325 -139 CURVE SMOOTH",
"325 -211 OFFCURVE",
"400 -241 OFFCURVE",
"463 -241 CURVE SMOOTH",
"503 -241 OFFCURVE",
"560 -228 OFFCURVE",
"588 -207 CURVE",
"589 -128 LINE",
"566 -136 OFFCURVE",
"559 -140 OFFCURVE",
"536 -140 CURVE SMOOTH",
"496 -140 OFFCURVE",
"475 -119 OFFCURVE",
"475 -91 CURVE SMOOTH",
"475 -64 OFFCURVE",
"491 -29 OFFCURVE",
"541 -3 CURVE",
"550 -1 OFFCURVE",
"561 1 OFFCURVE",
"568 2 CURVE",
"568 74 LINE",
"520 74 LINE",
"520 360 LINE SMOOTH",
"520 509 OFFCURVE",
"469 570 OFFCURVE",
"300 570 CURVE SMOOTH",
"170 570 OFFCURVE",
"70 514 OFFCURVE",
"42 492 CURVE",
"81 410 LINE",
"113 423 OFFCURVE",
"171 448 OFFCURVE",
"250 448 CURVE SMOOTH",
"329 448 OFFCURVE",
"341 420 OFFCURVE",
"341 362 CURVE SMOOTH",
"341 347 LINE",
"143 346 OFFCURVE",
"20 280 OFFCURVE",
"20 165 CURVE SMOOTH",
"20 56 OFFCURVE",
"97 -11 OFFCURVE",
"190 -11 CURVE SMOOTH"
);
},
{
closed = 1;
nodes = (
"221 228 OFFCURVE",
"250 273 OFFCURVE",
"341 273 CURVE",
"341 120 LINE",
"327 104 OFFCURVE",
"303 92 OFFCURVE",
"284 92 CURVE SMOOTH",
"244 92 OFFCURVE",
"221 130 OFFCURVE",
"221 183 CURVE SMOOTH"
);
}
);
width = 574;
}
);
unicode = 0105;
},
{
glyphname = ae;
layers = (
{
anchors = (
{
name = bottom;
position = "{435, 0}";
},
{
name = top;
position = "{455, 555}";
}
);
background = {
paths = (
{
closed = 1;
nodes = (
"473 470 OFFCURVE",
"533 519 OFFCURVE",
"613 519 CURVE SMOOTH",
"702 519 OFFCURVE",
"737 457 OFFCURVE",
"737 375 CURVE SMOOTH",
"737 361 OFFCURVE",
"736 345 OFFCURVE",
"735 331 CURVE",
"464 331 LINE"
);
},
{
closed = 1;
nodes = (
"184 48 OFFCURVE",
"136 76 OFFCURVE",
"136 156 CURVE SMOOTH",
"136 231 OFFCURVE",
"216 289 OFFCURVE",
"377 290 CURVE",
"377 233 OFFCURVE",
"383 185 OFFCURVE",
"400 139 CURVE",
"376 98 OFFCURVE",
"314 48 OFFCURVE",
"244 48 CURVE SMOOTH"
);
}
);
};
layerId = UUID0;
paths = (
{
closed = 1;
nodes = (
"320 -11 OFFCURVE",
"388 56 OFFCURVE",
"419 99 CURVE",
"458 30 OFFCURVE",
"526 -11 OFFCURVE",
"619 -11 CURVE SMOOTH",
"695 -11 OFFCURVE",
"775 21 OFFCURVE",
"813 60 CURVE",
"797 97 LINE",
"767 70 OFFCURVE",
"701 46 OFFCURVE",
"644 46 CURVE SMOOTH",
"525 46 OFFCURVE",
"463 149 OFFCURVE",
"463 284 CURVE",
"819 284 LINE",
"824 306 OFFCURVE",
"825 334 OFFCURVE",
"825 372 CURVE",
"820 501 OFFCURVE",
"751 570 OFFCURVE",
"633 570 CURVE SMOOTH",
"557 570 OFFCURVE",
"492 539 OFFCURVE",
"446 485 CURVE",
"423 542 OFFCURVE",
"372 566 OFFCURVE",
"281 566 CURVE SMOOTH",
"191 566 OFFCURVE",
"83 512 OFFCURVE",
"59 489 CURVE",
"80 447 LINE",
"119 468 OFFCURVE",
"186 504 OFFCURVE",
"262 504 CURVE SMOOTH",
"362 504 OFFCURVE",
"377 474 OFFCURVE",
"377 333 CURVE",
"218 330 OFFCURVE",
"47 285 OFFCURVE",
"47 146 CURVE SMOOTH",
"47 37 OFFCURVE",
"126 -11 OFFCURVE",
"215 -11 CURVE SMOOTH"
);
},
{
closed = 1;
nodes = (
"473 470 OFFCURVE",
"533 519 OFFCURVE",
"613 519 CURVE SMOOTH",
"702 519 OFFCURVE",
"737 457 OFFCURVE",
"737 375 CURVE SMOOTH",
"737 361 OFFCURVE",
"736 345 OFFCURVE",
"735 331 CURVE",
"464 331 LINE"
);
},
{
closed = 1;
nodes = (
"184 48 OFFCURVE",
"136 76 OFFCURVE",
"136 156 CURVE SMOOTH",
"136 231 OFFCURVE",
"216 289 OFFCURVE",
"377 290 CURVE",
"377 233 OFFCURVE",
"383 185 OFFCURVE",
"400 139 CURVE",
"376 98 OFFCURVE",
"314 48 OFFCURVE",
"244 48 CURVE SMOOTH"
);
}
);
width = 869;
},
{
anchors = (
{
name = bottom;
position = "{434, 0}";
},
{
name = top;
position = "{454, 556}";
}
);
background = {
paths = (
{
closed = 1;
nodes = (
"531 471 OFFCURVE",
"560 494 OFFCURVE",
"601 494 CURVE SMOOTH",
"646 494 OFFCURVE",
"657 446 OFFCURVE",
"657 371 CURVE SMOOTH",
"657 362 OFFCURVE",
"657 339 OFFCURVE",
"656 330 CURVE",
"530 330 LINE"
);
},
{
closed = 1;
nodes = (
"251 92 OFFCURVE",
"229 119 OFFCURVE",
"229 182 CURVE SMOOTH",
"229 225 OFFCURVE",
"251 274 OFFCURVE",
"340 276 CURVE",
"340 225 OFFCURVE",
"347 178 OFFCURVE",
"362 137 CURVE",
"346 112 OFFCURVE",
"315 92 OFFCURVE",
"286 92 CURVE SMOOTH"
);
}
);
};
layerId = "D0FF1146-32FF-444C-BC95-9626761FC64D";
paths = (
{
closed = 1;
nodes = (
"270 -11 OFFCURVE",
"352 26 OFFCURVE",
"390 85 CURVE",
"433 24 OFFCURVE",
"505 -11 OFFCURVE",
"615 -11 CURVE SMOOTH",
"715 -11 OFFCURVE",
"811 43 OFFCURVE",
"838 74 CURVE",
"808 142 LINE",
"777 126 OFFCURVE",
"716 105 OFFCURVE",
"663 105 CURVE SMOOTH",
"584 105 OFFCURVE",
"542 152 OFFCURVE",
"532 257 CURVE",
"835 257 LINE",
"840 284 OFFCURVE",
"843 317 OFFCURVE",
"843 365 CURVE SMOOTH",
"842 492 OFFCURVE",
"767 570 OFFCURVE",
"616 570 CURVE SMOOTH",
"552 570 OFFCURVE",
"496 555 OFFCURVE",
"452 525 CURVE",
"425 556 OFFCURVE",
"378 570 OFFCURVE",
"298 570 CURVE SMOOTH",
"168 570 OFFCURVE",
"68 516 OFFCURVE",
"40 492 CURVE",
"79 409 LINE",
"120 424 OFFCURVE",
"169 444 OFFCURVE",
"246 444 CURVE SMOOTH",
"325 444 OFFCURVE",
"344 422 OFFCURVE",
"344 347 CURVE",
"127 346 OFFCURVE",
"20 275 OFFCURVE",
"20 155 CURVE SMOOTH",
"20 46 OFFCURVE",
"97 -11 OFFCURVE",
"189 -11 CURVE SMOOTH"
);
},
{
closed = 1;
nodes = (
"531 471 OFFCURVE",
"560 494 OFFCURVE",
"601 494 CURVE SMOOTH",
"646 494 OFFCURVE",
"657 446 OFFCURVE",
"657 371 CURVE SMOOTH",
"657 362 OFFCURVE",
"657 339 OFFCURVE",
"656 330 CURVE",
"530 330 LINE"
);
},
{
closed = 1;
nodes = (
"251 92 OFFCURVE",
"229 119 OFFCURVE",
"229 182 CURVE SMOOTH",
"229 225 OFFCURVE",
"251 274 OFFCURVE",
"340 276 CURVE",
"340 225 OFFCURVE",
"347 178 OFFCURVE",
"362 137 CURVE",
"346 112 OFFCURVE",
"315 92 OFFCURVE",
"286 92 CURVE SMOOTH"
);
}
);
width = 868;
}
);
unicode = 00E6;
},
{
glyphname = b;
layers = (
{
anchors = (
{
name = bottom;
position = "{269, 0}";
},
{
name = mark0;
position = "{294, -83}";
},
{
name = top;
position = "{361, 555}";
}
);
layerId = UUID0;
paths = (
{
closed = 1;
nodes = (
"83 756 LINE",
"83 27 LINE",
"96 14 OFFCURVE",
"178 -11 OFFCURVE",
"269 -11 CURVE SMOOTH",
"444 -11 OFFCURVE",
"554 127 OFFCURVE",
"554 298 CURVE SMOOTH",
"554 490 OFFCURVE",
"447 570 OFFCURVE",
"335 570 CURVE SMOOTH",
"257 570 OFFCURVE",
"199 534 OFFCURVE",
"164 501 CURVE",
"164 805 LINE",
"145 819 LINE",
"143 819 LINE",
"-3 802 LINE",
"-3 765 LINE"
);
},
{
closed = 1;
nodes = (
"391 509 OFFCURVE",
"468 443 OFFCURVE",
"466 284 CURVE SMOOTH",
"463 118 OFFCURVE",
"384 40 OFFCURVE",
"276 40 CURVE SMOOTH",
"226 40 OFFCURVE",
"174 52 OFFCURVE",
"164 75 CURVE",
"164 445 LINE",
"187 470 OFFCURVE",
"239 509 OFFCURVE",
"302 509 CURVE SMOOTH"
);
}
);
width = 600;
},
{
anchors = (
{
name = bottom;
position = "{299, -2}";
},
{
name = mark0;
position = "{266, -83}";
},
{
name = top;
position = "{436, 556}";
}
);
layerId = "D0FF1146-32FF-444C-BC95-9626761FC64D";
paths = (
{
closed = 1;
nodes = (
"68 714 LINE",
"68 27 LINE",
"82 19 OFFCURVE",
"154 -11 OFFCURVE",
"300 -11 CURVE SMOOTH",
"491 -11 OFFCURVE",
"606 121 OFFCURVE",
"606 295 CURVE SMOOTH",
"606 493 OFFCURVE",
"514 570 OFFCURVE",
"392 570 CURVE SMOOTH",
"335 570 OFFCURVE",
"285 542 OFFCURVE",
"256 511 CURVE",
"256 798 LINE",
"219 820 LINE",
"217 820 LINE",
"2 794 LINE",
"2 729 LINE"
);
},
{
closed = 1;
nodes = (
"371 459 OFFCURVE",
"403 410 OFFCURVE",
"402 277 CURVE SMOOTH",
"401 126 OFFCURVE",
"362 55 OFFCURVE",
"304 55 CURVE SMOOTH",
"279 55 OFFCURVE",
"261 63 OFFCURVE",
"256 72 CURVE",
"256 431 LINE",
"269 446 OFFCURVE",
"293 459 OFFCURVE",
"320 459 CURVE SMOOTH"
);
}
);
width = 634;
}
);
unicode = 0062;
},
{
glyphname = c;
layers = (
{
anchors = (
{
name = bottom;
position = "{255, 0}";
},
{
name = mark0;
position = "{277, -83}";
},
{
name = top;
position = "{285, 555}";
}
);
layerId = UUID0;
paths = (
{
closed = 1;
nodes = (
"35 113 OFFCURVE",
"120 -11 OFFCURVE",
"282 -11 CURVE SMOOTH",
"351 -11 OFFCURVE",
"426 23 OFFCURVE",
"463 60 CURVE",
"447 93 LINE",
"417 72 OFFCURVE",
"361 47 OFFCURVE",
"300 47 CURVE SMOOTH",
"198 47 OFFCURVE",
"119 128 OFFCURVE",
"120 302 CURVE SMOOTH",
"121 439 OFFCURVE",
"188 523 OFFCURVE",
"291 523 CURVE SMOOTH",
"332 523 OFFCURVE",
"372 517 OFFCURVE",
"377 493 CURVE SMOOTH",
"398 397 LINE",
"448 397 LINE",
"452 540 LINE",
"426 551 OFFCURVE",
"370 570 OFFCURVE",
"312 570 CURVE SMOOTH",
"124 570 OFFCURVE",
"33 429 OFFCURVE",
"34 271 CURVE SMOOTH"
);
}
);
width = 509;
},
{
anchors = (
{
name = bottom;
position = "{294, 0}";
},
{
name = mark0;
position = "{298, -83}";
},
{
name = top;
position = "{294, 556}";
}
);
layerId = "D0FF1146-32FF-444C-BC95-9626761FC64D";
paths = (
{
closed = 1;
nodes = (
"30 109 OFFCURVE",
"105 -11 OFFCURVE",
"296 -11 CURVE SMOOTH",
"406 -11 OFFCURVE",
"483 45 OFFCURVE",
"503 69 CURVE",
"473 137 LINE",
"441 119 OFFCURVE",
"402 102 OFFCURVE",
"340 102 CURVE SMOOTH",
"274 102 OFFCURVE",
"236 172 OFFCURVE",
"236 304 CURVE SMOOTH",
"237 455 OFFCURVE",
"269 489 OFFCURVE",
"311 489 CURVE SMOOTH",
"326 489 OFFCURVE",
"343 483 OFFCURVE",
"347 467 CURVE SMOOTH",
"375 345 LINE",
"494 345 LINE",
"502 540 LINE",
"467 542 OFFCURVE",
"425 570 OFFCURVE",
"320 570 CURVE SMOOTH",
"154 570 OFFCURVE",
"30 462 OFFCURVE",
"30 275 CURVE SMOOTH"
);
}
);
width = 528;
}
);
unicode = 0063;
},
{
glyphname = ccedilla;
layers = (
{
anchors = (
{
name = _bottom;
position = "{255, 0}";
},
{
name = bottom;
position = "{255, 0}";
},
{
name = mark0;
position = "{277, -83}";
},
{
name = top;
position = "{285, 555}";
}
);
layerId = UUID0;
paths = (
{
closed = 1;
nodes = (
"34.907 127.63 OFFCURVE",
"104.979 12.255 OFFCURVE",
"238.986 -7.882 CURVE",
"249.931 -26.419 OFFCURVE",
"268 -64.294 OFFCURVE",
"268 -100 CURVE SMOOTH",
"268 -161 OFFCURVE",
"241 -171 OFFCURVE",
"192 -171 CURVE SMOOTH",
"182 -171 OFFCURVE",
"160 -168 OFFCURVE",
"146 -163 CURVE",
"145 -222 LINE",
"163 -229 OFFCURVE",
"193 -235 OFFCURVE",
"216 -235 CURVE SMOOTH",
"291 -235 OFFCURVE",
"335 -211 OFFCURVE",
"338 -143 CURVE SMOOTH",
"340.559 -89.258 OFFCURVE",
"308.189 -36.971 OFFCURVE",
"285.584 -10.97 CURVE",
"353.582 -9.824 OFFCURVE",
"426.64 23.64 OFFCURVE",
"463 60 CURVE",
"447 93 LINE",
"417 72 OFFCURVE",
"361 47 OFFCURVE",
"300 47 CURVE SMOOTH",
"198 47 OFFCURVE",
"119 128 OFFCURVE",
"120 302 CURVE SMOOTH",
"121 439 OFFCURVE",
"188 523 OFFCURVE",
"291 523 CURVE SMOOTH",
"332 523 OFFCURVE",
"372 517 OFFCURVE",
"377 493 CURVE SMOOTH",
"398 397 LINE",
"448 397 LINE",
"452 540 LINE",
"426 551 OFFCURVE",
"370 570 OFFCURVE",
"312 570 CURVE SMOOTH",
"124 570 OFFCURVE",
"33 429 OFFCURVE",
"34 271 CURVE SMOOTH"
);
}
);
width = 509;
},
{
anchors = (
{
name = _bottom;
position = "{294, 0}";
},
{
name = bottom;
position = "{294, 0}";
},
{
name = mark0;
position = "{298, -83}";
},
{
name = top;
position = "{294, 556}";
}
);
layerId = "D0FF1146-32FF-444C-BC95-9626761FC64D";
paths = (
{
closed = 1;
nodes = (
"30 118.894 OFFCURVE",
"96.326 3.468 OFFCURVE",
"263.076 -9.737 CURVE",
"273.761 -28.173 OFFCURVE",
"286 -57.044 OFFCURVE",
"286 -83 CURVE SMOOTH",
"286 -145 OFFCURVE",
"263 -151 OFFCURVE",
"219 -151 CURVE SMOOTH",
"212 -151 OFFCURVE",
"193 -149 OFFCURVE",
"179 -145 CURVE",
"179 -249 LINE",
"196 -257 OFFCURVE",
"227 -264 OFFCURVE",
"250 -264 CURVE SMOOTH",
"348 -264 OFFCURVE",
"404 -237 OFFCURVE",
"409 -145 CURVE SMOOTH",
"412.422 -85.12 OFFCURVE",
"373.402 -32.558 OFFCURVE",
"348.277 -6.718 CURVE",
"430.146 6.825 OFFCURVE",
"486.343 49.011 OFFCURVE",
"503 69 CURVE",
"473 137 LINE",
"441 119 OFFCURVE",
"402 102 OFFCURVE",
"340 102 CURVE SMOOTH",
"274 102 OFFCURVE",
"236 172 OFFCURVE",
"236 304 CURVE SMOOTH",
"237 455 OFFCURVE",
"269 489 OFFCURVE",
"311 489 CURVE SMOOTH",
"326 489 OFFCURVE",
"343 483 OFFCURVE",
"347 467 CURVE SMOOTH",
"375 345 LINE",
"494 345 LINE",
"502 540 LINE",
"467 542 OFFCURVE",
"425 570 OFFCURVE",
"320 570 CURVE SMOOTH",
"154 570 OFFCURVE",
"30 462 OFFCURVE",
"30 275 CURVE SMOOTH"
);
}
);
width = 528;
}
);
unicode = 00E7;
},
{
glyphname = d;
layers = (
{
anchors = (
{
name = bottom;
position = "{309, 0}";
},
{
name = center;
position = "{309, 278}";
},
{
name = mark0;
position = "{287, -83}";
},
{
name = top;
position = "{179, 544}";
},
{
name = topright;
position = "{594, 555}";
}
);
layerId = UUID0;
paths = (
{
closed = 1;
nodes = (
"346 -11 OFFCURVE",
"406 30 OFFCURVE",
"441 69 CURVE",
"441 34 LINE SMOOTH",
"441 -5 OFFCURVE",
"456 -9 OFFCURVE",
"483 -9 CURVE SMOOTH",
"521 -9 OFFCURVE",
"553 0 OFFCURVE",
"579 6 CURVE",
"579 45 LINE",
"518 45 LINE",
"518 805 LINE",
"499 819 LINE",
"497 819 LINE",
"333 802 LINE",
"333 766 LINE",
"437 756 LINE",
"437 558 LINE",
"407 565 OFFCURVE",
"370 570 OFFCURVE",
"331 570 CURVE SMOOTH",
"155 570 OFFCURVE",
"46 435 OFFCURVE",
"46 264 CURVE SMOOTH",
"46 76 OFFCURVE",
"151 -11 OFFCURVE",
"265 -11 CURVE SMOOTH"
);
},
{
closed = 1;
nodes = (
"209 52 OFFCURVE",
"132 116 OFFCURVE",
"134 278 CURVE SMOOTH",
"136 448 OFFCURVE",
"217 520 OFFCURVE",
"324 520 CURVE SMOOTH",
"375 520 OFFCURVE",
"426 504 OFFCURVE",
"437 486 CURVE",
"437 118 LINE",
"415 89 OFFCURVE",
"361 52 OFFCURVE",
"298 52 CURVE SMOOTH"
);
}
);
width = 618;
},
{
anchors = (
{
name = bottom;
position = "{317, 0}";
},
{
name = center;
position = "{317, 278}";
},
{
name = mark0;
position = "{277, -83}";
},
{
name = top;
position = "{107, 516}";
},
{
name = topright;
position = "{655, 556}";
}
);
layerId = "D0FF1146-32FF-444C-BC95-9626761FC64D";
paths = (
{
closed = 1;
nodes = (
"302 -11 OFFCURVE",
"370 19 OFFCURVE",
"401 69 CURVE",
"401 47 LINE SMOOTH",
"401 -2 OFFCURVE",
"425 -13 OFFCURVE",
"475 -13 CURVE SMOOTH",
"519 -13 OFFCURVE",
"582 -4 OFFCURVE",
"614 2 CURVE",
"614 75 LINE",
"566 75 LINE",
"566 793 LINE",
"531 820 LINE",
"526 820 LINE",
"284 799 LINE",
"284 726 LINE",
"377 710 LINE",
"377 565 LINE",
"364 568 OFFCURVE",
"349 570 OFFCURVE",
"334 570 CURVE SMOOTH",
"126 570 OFFCURVE",
"28 423 OFFCURVE",
"28 265 CURVE SMOOTH",
"28 69 OFFCURVE",
"122 -11 OFFCURVE",
"244 -11 CURVE SMOOTH"
);
},
{
closed = 1;
nodes = (
"263 89 OFFCURVE",
"230 146 OFFCURVE",
"231 283 CURVE SMOOTH",
"232 446 OFFCURVE",
"277 494 OFFCURVE",
"330 494 CURVE SMOOTH",
"351 494 OFFCURVE",
"369 487 OFFCURVE",
"377 478 CURVE",
"377 118 LINE",
"365 103 OFFCURVE",
"346 89 OFFCURVE",
"313 89 CURVE SMOOTH"
);
}
);
width = 633;
}
);
unicode = 0064;
},
{
glyphname = eth;
layers = (
{
layerId = UUID0;
paths = (
{
closed = 1;
nodes = (
"465 -11 OFFCURVE",
"531 185 OFFCURVE",
"531 323 CURVE SMOOTH",
"531 542 OFFCURVE",
"435 704 OFFCURVE",
"265 811 CURVE",
"273 773 LINE",
"363 860 LINE",
"323 892 LINE",
"230 799 LINE",
"266 811 LINE",
"212 841 OFFCURVE",
"160 858 OFFCURVE",
"97 878 CURVE",
"80 834 LINE",
"116 824 OFFCURVE",
"195 794 OFFCURVE",
"226 768 CURVE",
"236 811 LINE",
"135 714 LINE",
"179 684 LINE",
"278 783 LINE",
"225 767 LINE",
"319 716 OFFCURVE",
"372 627 OFFCURVE",
"406 548 CURVE",
"382 560 OFFCURVE",
"340 570 OFFCURVE",
"298 570 CURVE SMOOTH",
"165 570 OFFCURVE",
"42 466 OFFCURVE",
"42 259 CURVE SMOOTH",
"42 124 OFFCURVE",
"117 -11 OFFCURVE",
"289 -11 CURVE SMOOTH"
);
},
{
closed = 1;
nodes = (
"172 37 OFFCURVE",
"131 166 OFFCURVE",
"131 265 CURVE SMOOTH",
"131 428 OFFCURVE",
"198 526 OFFCURVE",
"296 526 CURVE SMOOTH",
"364 526 OFFCURVE",
"406 501 OFFCURVE",
"420 486 CURVE",
"428 461 OFFCURVE",
"442 395 OFFCURVE",
"442 317 CURVE SMOOTH",
"442 172 OFFCURVE",
"397 37 OFFCURVE",
"291 37 CURVE SMOOTH"
);
}
);
width = 572;
},
{
layerId = "D0FF1146-32FF-444C-BC95-9626761FC64D";
paths = (
{
closed = 1;
nodes = (
"525 -11 OFFCURVE",
"590 173 OFFCURVE",
"590 334 CURVE SMOOTH",
"590 581 OFFCURVE",
"435 745 OFFCURVE",
"288 830 CURVE",
"265 727 LINE",
"404 865 LINE",
"341 922 LINE",
"194 775 LINE",
"334 802 LINE",
"238 865 OFFCURVE",
"168 879 OFFCURVE",
"121 889 CURVE",
"89 812 LINE",
"123 804 OFFCURVE",
"195 766 OFFCURVE",
"254 718 CURVE",
"258 831 LINE",
"114 688 LINE",
"181 632 LINE",
"321 778 LINE",
"204 748 LINE",
"288 702 OFFCURVE",
"351 646 OFFCURVE",
"372 556 CURVE",
"352 564 OFFCURVE",
"324 570 OFFCURVE",
"286 570 CURVE SMOOTH",
"160 570 OFFCURVE",
"29 478 OFFCURVE",
"29 271 CURVE SMOOTH",
"29 101 OFFCURVE",
"128 -11 OFFCURVE",
"302 -11 CURVE SMOOTH"
);
},
{
closed = 1;
nodes = (
"257 68 OFFCURVE",
"238 179 OFFCURVE",
"238 292 CURVE SMOOTH",
"238 444 OFFCURVE",
"264 495 OFFCURVE",
"311 495 CURVE SMOOTH",
"344 495 OFFCURVE",
"372 479 OFFCURVE",
"379 473 CURVE",
"386 448 OFFCURVE",
"390 378 OFFCURVE",
"390 305 CURVE SMOOTH",
"390 122 OFFCURVE",
"359 68 OFFCURVE",
"312 68 CURVE SMOOTH"
);
}
);
width = 615;
}
);
unicode = 00F0;
},
{
glyphname = dcaron;
layers = (
{
anchors = (
{
name = mark0;
position = "{287, -83}";
}
);
components = (
{
name = d;
},
{
name = caroncomb.alt;
transform = "{1, 0, 0, 1, 562, -1}";
}
);
layerId = UUID0;
width = 618;
},
{
anchors = (
{
name = mark0;
position = "{277, -83}";
}
);
components = (
{
name = d;
},
{
name = caroncomb.alt;
transform = "{1, 0, 0, 1, 602, 0}";
}
);
layerId = "D0FF1146-32FF-444C-BC95-9626761FC64D";
width = 633;
},
{
anchors = (
{
name = mark0;
position = "{287, -83}";
}
);
associatedMasterId = UUID0;
layerId = "CDD73CC2-1634-49EF-9DBD-A2A7EA9972F4";
name = "Oct 13 16, 15:31";
paths = (
{
closed = 1;
nodes = (
"346 -11 OFFCURVE",
"406 30 OFFCURVE",
"441 69 CURVE",
"441 34 LINE SMOOTH",
"441 -5 OFFCURVE",
"456 -9 OFFCURVE",
"483 -9 CURVE SMOOTH",
"521 -9 OFFCURVE",
"553 0 OFFCURVE",
"579 6 CURVE",
"579 45 LINE",
"518 45 LINE",
"518 805 LINE",
"499 819 LINE",
"497 819 LINE",
"333 802 LINE",
"333 766 LINE",
"437 756 LINE",
"437 558 LINE",
"407 565 OFFCURVE",
"370 570 OFFCURVE",
"331 570 CURVE SMOOTH",
"155 570 OFFCURVE",
"46 435 OFFCURVE",
"46 264 CURVE SMOOTH",
"46 76 OFFCURVE",
"151 -11 OFFCURVE",
"265 -11 CURVE SMOOTH"
);
},
{
closed = 1;
nodes = (
"209 52 OFFCURVE",
"132 116 OFFCURVE",
"134 278 CURVE SMOOTH",
"136 448 OFFCURVE",
"217 520 OFFCURVE",
"324 520 CURVE SMOOTH",
"375 520 OFFCURVE",
"426 504 OFFCURVE",
"437 486 CURVE",
"437 118 LINE",
"415 89 OFFCURVE",
"361 52 OFFCURVE",
"298 52 CURVE SMOOTH"
);
},
{
closed = 1;
nodes = (
"693 541 OFFCURVE",
"719 624 OFFCURVE",
"719 702 CURVE SMOOTH",
"719 749 OFFCURVE",
"708 800 OFFCURVE",
"690 819 CURVE",
"626 805 LINE",
"621 788 LINE",
"633 771 OFFCURVE",
"646 715 OFFCURVE",
"646 660 CURVE SMOOTH",
"646 623 OFFCURVE",
"639 575 OFFCURVE",
"626 535 CURVE",
"627 524 LINE",
"662 510 LINE"
);
}
);
width = 702;
}
);
unicode = 010F;
},
{
glyphname = dcroat;
layers = (
{
layerId = UUID0;
paths = (
{
closed = 1;
nodes = (
"303 688 LINE",
"303 640 LINE",
"434 640 LINE",
"434 558 LINE",
"404 565 OFFCURVE",
"367 570 OFFCURVE",
"328 570 CURVE SMOOTH",
"152 570 OFFCURVE",
"43 435 OFFCURVE",
"43 264 CURVE SMOOTH",
"43 76 OFFCURVE",
"148 -11 OFFCURVE",
"262 -11 CURVE SMOOTH",
"343 -11 OFFCURVE",
"403 30 OFFCURVE",
"438 69 CURVE",
"438 34 LINE SMOOTH",
"438 -5 OFFCURVE",
"453 -9 OFFCURVE",
"480 -9 CURVE SMOOTH",
"519 -9 OFFCURVE",
"550 0 OFFCURVE",
"576 6 CURVE",
"576 45 LINE",
"515 45 LINE",
"515 640 LINE",
"588 640 LINE",
"588 688 LINE",
"515 688 LINE",
"515 805 LINE",
"496 819 LINE",
"494 819 LINE",
"330 802 LINE",
"330 766 LINE",
"434 756 LINE",
"434 688 LINE"
);
},
{
closed = 1;
nodes = (
"206 52 OFFCURVE",
"129 116 OFFCURVE",
"131 278 CURVE SMOOTH",
"133 448 OFFCURVE",
"214 520 OFFCURVE",
"321 520 CURVE SMOOTH",
"372 520 OFFCURVE",
"423 504 OFFCURVE",
"434 486 CURVE",
"434 118 LINE",
"412 89 OFFCURVE",
"358 52 OFFCURVE",
"295 52 CURVE SMOOTH"
);
}
);
width = 616;
},
{
layerId = "D0FF1146-32FF-444C-BC95-9626761FC64D";
paths = (
{
closed = 1;
nodes = (
"245 679 LINE",
"245 609 LINE",
"377 609 LINE",
"377 565 LINE",
"364 568 OFFCURVE",
"349 570 OFFCURVE",
"335 570 CURVE SMOOTH",
"127 570 OFFCURVE",
"29 423 OFFCURVE",
"29 265 CURVE SMOOTH",
"29 69 OFFCURVE",
"122 -11 OFFCURVE",
"245 -11 CURVE SMOOTH",
"303 -11 OFFCURVE",
"370 19 OFFCURVE",
"401 69 CURVE",
"401 47 LINE SMOOTH",
"401 -2 OFFCURVE",
"425 -13 OFFCURVE",
"476 -13 CURVE SMOOTH",
"519 -13 OFFCURVE",
"582 -4 OFFCURVE",
"615 2 CURVE",
"615 75 LINE",
"566 75 LINE",
"566 609 LINE",
"636 609 LINE",
"636 679 LINE",
"566 679 LINE",
"566 793 LINE",
"531 820 LINE",
"526 820 LINE",
"284 799 LINE",
"284 726 LINE",
"377 710 LINE",
"377 679 LINE"
);
},
{
closed = 1;
nodes = (
"264 89 OFFCURVE",
"231 146 OFFCURVE",
"232 283 CURVE SMOOTH",
"233 446 OFFCURVE",
"278 494 OFFCURVE",
"330 494 CURVE SMOOTH",
"352 494 OFFCURVE",
"370 487 OFFCURVE",
"377 478 CURVE",
"377 118 LINE",
"366 103 OFFCURVE",
"346 89 OFFCURVE",
"314 89 CURVE SMOOTH"
);
}
);
width = 634;
}
);
unicode = 0111;
},
{
glyphname = e;
layers = (
{
anchors = (
{
name = bottom;
position = "{270, 0}";
},
{
name = mark0;
position = "{297, -83}";
},
{
name = ogonek;
position = "{346, 10}";
},
{
name = top;
position = "{291, 555}";
}
);
layerId = UUID0;
paths = (
{
closed = 1;
nodes = (
"365 -11 OFFCURVE",
"446 21 OFFCURVE",
"484 60 CURVE",
"468 97 LINE",
"437 70 OFFCURVE",
"371 46 OFFCURVE",
"314 46 CURVE SMOOTH",
"195 46 OFFCURVE",
"133 149 OFFCURVE",
"133 284 CURVE",
"489 284 LINE",
"494 306 OFFCURVE",
"495 334 OFFCURVE",
"495 372 CURVE",
"490 501 OFFCURVE",
"421 570 OFFCURVE",
"303 570 CURVE SMOOTH",
"156 570 OFFCURVE",
"47 452 OFFCURVE",
"47 280 CURVE SMOOTH",
"47 109 OFFCURVE",
"130 -11 OFFCURVE",
"288 -11 CURVE SMOOTH"
);
},
{
closed = 1;
nodes = (
"143 470 OFFCURVE",
"203 519 OFFCURVE",
"283 519 CURVE SMOOTH",
"372 519 OFFCURVE",
"407 457 OFFCURVE",
"408 375 CURVE SMOOTH",
"408 361 OFFCURVE",
"407 345 OFFCURVE",
"405 331 CURVE",
"134 331 LINE"
);
}
);
width = 540;
},
{
anchors = (
{
name = bottom;
position = "{280, 0}";
},
{
name = mark0;
position = "{271, -83}";
},
{
name = ogonek;
position = "{350, 10}";
},
{
name = top;
position = "{301, 556}";
}
);
layerId = "D0FF1146-32FF-444C-BC95-9626761FC64D";
paths = (
{
closed = 1;
nodes = (
"405 -11 OFFCURVE",
"500 43 OFFCURVE",
"527 74 CURVE",
"495 143 LINE",
"465 127 OFFCURVE",
"407 105 OFFCURVE",
"356 105 CURVE SMOOTH",
"277 105 OFFCURVE",
"234 152 OFFCURVE",
"225 257 CURVE",
"523 257 LINE",
"529 284 OFFCURVE",
"533 317 OFFCURVE",
"533 365 CURVE",
"531 492 OFFCURVE",
"456 570 OFFCURVE",
"306 570 CURVE SMOOTH",
"134 570 OFFCURVE",
"26 467 OFFCURVE",
"26 277 CURVE SMOOTH",
"26 108 OFFCURVE",
"101 -11 OFFCURVE",
"304 -11 CURVE SMOOTH"
);
},
{
closed = 1;
nodes = (
"224 470 OFFCURVE",
"252 494 OFFCURVE",
"293 494 CURVE SMOOTH",
"338 494 OFFCURVE",
"350 448 OFFCURVE",
"350 371 CURVE",
"350 357 OFFCURVE",
"349 344 OFFCURVE",
"349 330 CURVE",
"223 330 LINE"
);
}
);
width = 559;
}
);
unicode = 0065;
},
{
glyphname = ecedilla;
layers = (
{
anchors = (
{
name = _bottom;
position = "{270, 0}";
},
{
name = bottom;
position = "{270, 0}";
},
{
name = mark0;
position = "{297, -83}";
},
{
name = ogonek;
position = "{346, 10}";
},
{
name = top;
position = "{298, 555}";
}
);
layerId = UUID0;
paths = (
{
closed = 1;
nodes = (
"47 121.44 OFFCURVE",
"118.363 6.729 OFFCURVE",
"254.711 -9.121 CURVE",
"265.71 -28.069 OFFCURVE",
"283 -65.072 OFFCURVE",
"283 -100 CURVE SMOOTH",
"283 -161 OFFCURVE",
"256 -171 OFFCURVE",
"207 -171 CURVE SMOOTH",
"197 -171 OFFCURVE",
"173 -168 OFFCURVE",
"159 -163 CURVE",
"160 -222 LINE",
"178 -229 OFFCURVE",
"208 -235 OFFCURVE",
"231 -235 CURVE SMOOTH",
"306 -235 OFFCURVE",
"350 -211 OFFCURVE",
"353 -143 CURVE SMOOTH",
"355.567 -89.092 OFFCURVE",
"322.988 -36.648 OFFCURVE",
"300.375 -10.73 CURVE",
"373.536 -7.559 OFFCURVE",
"448.031 23.085 OFFCURVE",
"484 60 CURVE",
"468 97 LINE",
"437 70 OFFCURVE",
"371 46 OFFCURVE",
"314 46 CURVE SMOOTH",
"195 46 OFFCURVE",
"133 149 OFFCURVE",
"133 284 CURVE",
"489 284 LINE",
"494 306 OFFCURVE",
"495 334 OFFCURVE",
"495 372 CURVE",
"490 501 OFFCURVE",
"421 570 OFFCURVE",
"303 570 CURVE SMOOTH",
"156 570 OFFCURVE",
"47 452 OFFCURVE",
"47 280 CURVE SMOOTH"
);
},
{
closed = 1;
nodes = (
"143 470 OFFCURVE",
"203 519 OFFCURVE",
"283 519 CURVE SMOOTH",
"372 519 OFFCURVE",
"407 457 OFFCURVE",
"408 375 CURVE SMOOTH",
"408 361 OFFCURVE",
"407 345 OFFCURVE",
"405 331 CURVE",
"134 331 LINE"
);
}
);
width = 540;
},
{
anchors = (
{
name = _bottom;
position = "{280, 0}";
},
{
name = bottom;
position = "{280, 0}";
},
{
name = mark0;
position = "{271, -83}";
},
{
name = ogonek;
position = "{350, 10}";
},
{
name = top;
position = "{287, 556}";
}
);
layerId = "D0FF1146-32FF-444C-BC95-9626761FC64D";
paths = (
{
closed = 1;
nodes = (
"26 124.602 OFFCURVE",
"86.988 12.863 OFFCURVE",
"247.829 -7.62 CURVE",
"258.784 -25.908 OFFCURVE",
"272 -56.027 OFFCURVE",
"272 -83 CURVE SMOOTH",
"272 -145 OFFCURVE",
"249 -151 OFFCURVE",
"205 -151 CURVE SMOOTH",
"198 -151 OFFCURVE",
"179 -149 OFFCURVE",
"165 -145 CURVE",
"165 -249 LINE",
"182 -257 OFFCURVE",
"213 -264 OFFCURVE",
"236 -264 CURVE SMOOTH",
"334 -264 OFFCURVE",
"390 -237 OFFCURVE",
"395 -145 CURVE SMOOTH",
"398.316 -86.967 OFFCURVE",
"361.769 -35.808 OFFCURVE",
"336.64 -9.185 CURVE",
"424.847 0.466 OFFCURVE",
"502.935 46.369 OFFCURVE",
"527 74 CURVE",
"495 143 LINE",
"465 127 OFFCURVE",
"407 105 OFFCURVE",
"356 105 CURVE SMOOTH",
"277 105 OFFCURVE",
"234 152 OFFCURVE",
"225 257 CURVE",
"523 257 LINE",
"529 284 OFFCURVE",
"533 317 OFFCURVE",
"533 365 CURVE",
"531 492 OFFCURVE",
"456 570 OFFCURVE",
"306 570 CURVE SMOOTH",
"134 570 OFFCURVE",
"26 467 OFFCURVE",
"26 277 CURVE SMOOTH"
);
},
{
closed = 1;
nodes = (
"224 470 OFFCURVE",
"252 494 OFFCURVE",
"293 494 CURVE SMOOTH",
"338 494 OFFCURVE",
"350 448 OFFCURVE",
"350 371 CURVE SMOOTH",
"350 357 OFFCURVE",
"349 344 OFFCURVE",
"349 330 CURVE",
"223 330 LINE"
);
}
);
width = 559;
}
);
unicode = 0229;
},
{
glyphname = eogonek;
layers = (
{
anchors = (
{
name = _ogonek;
position = "{346, 10}";
},
{
name = bottom;
position = "{270, 0}";
},
{
name = mark0;
position = "{297, -83}";
},
{
name = ogonek;
position = "{346, 10}";
},
{
name = top;
position = "{302, 555}";
}
);
layerId = UUID0;
paths = (
{
closed = 1;
nodes = (
"368 -243 OFFCURVE",
"406 -214 OFFCURVE",
"431 -197 CURVE",
"430 -152 LINE",
"413 -162 OFFCURVE",
"369 -191 OFFCURVE",
"323 -191 CURVE SMOOTH",
"276 -191 OFFCURVE",
"250 -175 OFFCURVE",
"250 -127 CURVE SMOOTH",
"250 -83.949 OFFCURVE",
"324.671 -18.88 OFFCURVE",
"385.029 4.514 CURVE",
"426.254 17.56 OFFCURVE",
"462.202 37.628 OFFCURVE",
"484 60 CURVE",
"468 97 LINE",
"437 70 OFFCURVE",
"371 46 OFFCURVE",
"314 46 CURVE SMOOTH",
"195 46 OFFCURVE",
"133 149 OFFCURVE",
"133 284 CURVE",
"489 284 LINE",
"494 306 OFFCURVE",
"495 334 OFFCURVE",
"495 372 CURVE",
"490 501 OFFCURVE",
"421 570 OFFCURVE",
"303 570 CURVE SMOOTH",
"156 570 OFFCURVE",
"47 452 OFFCURVE",
"47 280 CURVE SMOOTH",
"47 109.109 OFFCURVE",
"129.895 -10.847 OFFCURVE",
"287.699 -11 CURVE",
"228.884 -45.767 OFFCURVE",
"175 -91 OFFCURVE",
"175 -150 CURVE SMOOTH",
"175 -214 OFFCURVE",
"231 -243 OFFCURVE",
"287 -243 CURVE SMOOTH"
);
},
{
closed = 1;
nodes = (
"143 470 OFFCURVE",
"203 519 OFFCURVE",
"283 519 CURVE SMOOTH",
"372 519 OFFCURVE",
"407 457 OFFCURVE",
"408 375 CURVE SMOOTH",
"408 361 OFFCURVE",
"407 345 OFFCURVE",
"405 331 CURVE",
"134 331 LINE"
);
}
);
width = 540;
},
{
anchors = (
{
name = _ogonek;
position = "{350, 10}";
},
{
name = bottom;
position = "{280, 0}";
},
{
name = mark0;
position = "{271, -83}";
},
{
name = ogonek;
position = "{350, 10}";
},
{
name = top;
position = "{287, 556}";
}
);
layerId = "D0FF1146-32FF-444C-BC95-9626761FC64D";
paths = (
{
closed = 1;
nodes = (
"356 -241 OFFCURVE",
"413 -226 OFFCURVE",
"454 -195 CURVE",
"453 -128 LINE",
"430 -136 OFFCURVE",
"412 -140 OFFCURVE",
"389 -140 CURVE SMOOTH",
"349 -140 OFFCURVE",
"328 -119 OFFCURVE",
"328 -91 CURVE SMOOTH",
"328 -50 OFFCURVE",
"365 -11 OFFCURVE",
"418.905 10.19 CURVE",
"470.41 28.712 OFFCURVE",
"511 58 OFFCURVE",
"527 74 CURVE",
"495 143 LINE",
"465 127 OFFCURVE",
"407 105 OFFCURVE",
"356 105 CURVE SMOOTH",
"277 105 OFFCURVE",
"234 152 OFFCURVE",
"225 257 CURVE",
"523 257 LINE",
"529 284 OFFCURVE",
"533 317 OFFCURVE",
"533 365 CURVE SMOOTH",
"531 492 OFFCURVE",
"456 570 OFFCURVE",
"306 570 CURVE SMOOTH",
"134 570 OFFCURVE",
"26 467 OFFCURVE",
"26 277 CURVE SMOOTH",
"26 117.012 OFFCURVE",
"93.215 1.834 OFFCURVE",
"272.609 -9.995 CURVE",
"206.71 -45.208 OFFCURVE",
"178 -95.18 OFFCURVE",
"178 -139 CURVE SMOOTH",
"178 -211 OFFCURVE",
"253 -241 OFFCURVE",
"316 -241 CURVE SMOOTH"
);
},
{
closed = 1;
nodes = (
"224 470 OFFCURVE",
"252 494 OFFCURVE",
"293 494 CURVE SMOOTH",
"338 494 OFFCURVE",
"350 448 OFFCURVE",
"350 371 CURVE SMOOTH",
"350 357 OFFCURVE",
"349 344 OFFCURVE",
"349 330 CURVE",
"223 330 LINE"
);
}
);
width = 559;
}
);
unicode = 0119;
},
{
glyphname = ezh;
layers = (
{
anchors = (
{
name = top;
position = "{290, 555}";
}
);
layerId = UUID0;
paths = (
{
closed = 1;
nodes = (
"511 514 LINE",
"495 554 LINE",
"63 554 LINE",
"61 382 LINE",
"119 382 LINE",
"142 505 LINE",
"389 505 LINE",
"183 183 LINE",
"204 151 LINE",
"362 164 OFFCURVE",
"418 68 OFFCURVE",
"418 -2 CURVE SMOOTH",
"418 -130 OFFCURVE",
"338 -198 OFFCURVE",
"211 -198 CURVE SMOOTH",
"181 -198 OFFCURVE",
"153 -190 OFFCURVE",
"129 -179 CURVE",
"101 -46 LINE",
"57 -46 LINE",
"60 -214 LINE",
"80 -223 OFFCURVE",
"134 -251 OFFCURVE",
"229 -251 CURVE SMOOTH",
"380 -251 OFFCURVE",
"509 -159 OFFCURVE",
"509 0 CURVE SMOOTH",
"509 107 OFFCURVE",
"437 207 OFFCURVE",
"281 206 CURVE"
);
}
);
width = 533;
},
{
anchors = (
{
name = top;
position = "{290, 555}";
}
);
layerId = "D0FF1146-32FF-444C-BC95-9626761FC64D";
paths = (
{
closed = 1;
nodes = (
"551 485 LINE",
"527 556 LINE",
"30 556 LINE",
"34 359 LINE",
"146 359 LINE",
"168 475 LINE",
"354 482 LINE",
"187 197 LINE",
"214 147 LINE",
"344 148 OFFCURVE",
"360 56 OFFCURVE",
"360 -3 CURVE SMOOTH",
"360 -133 OFFCURVE",
"294 -176 OFFCURVE",
"217 -176 CURVE SMOOTH",
"201 -176 OFFCURVE",
"186 -172 OFFCURVE",
"173 -166 CURVE",
"120 -11 LINE",
"28 -11 LINE",
"40 -212 LINE",
"71 -232 OFFCURVE",
"153 -262 OFFCURVE",
"264 -262 CURVE SMOOTH",
"462 -262 OFFCURVE",
"570 -155 OFFCURVE",
"570 -2 CURVE SMOOTH",
"570 145 OFFCURVE",
"484 226 OFFCURVE",
"348 229 CURVE"
);
}
);
width = 576;
}
);
unicode = 0292;
},
{
glyphname = f;
layers = (
{
anchors = (
{
name = top;
position = "{103, 617}";
}
);
layerId = UUID0;
paths = (
{
closed = 1;
nodes = (
"44 43 LINE",
"44 0 LINE",
"327 0 LINE",
"327 43 LINE",
"213 50 LINE",
"213 495 LINE",
"358 495 LINE",
"358 554 LINE",
"213 554 LINE",
"213 629 LINE SMOOTH",
"213 721 OFFCURVE",
"245 752 OFFCURVE",
"314 752 CURVE SMOOTH",
"361 752 OFFCURVE",
"394 741 OFFCURVE",
"403 734 CURVE",
"403 816 LINE",
"391 820 OFFCURVE",
"377 824 OFFCURVE",
"347 824 CURVE SMOOTH",
"239 824 OFFCURVE",
"132 726 OFFCURVE",
"132 603 CURVE SMOOTH",
"132 554 LINE",
"31 535 LINE",
"31 495 LINE",
"132 495 LINE",
"132 51 LINE"
);
}
);
width = 395;
},
{
anchors = (
{
name = top;
position = "{82, 667}";
}
);
layerId = "D0FF1146-32FF-444C-BC95-9626761FC64D";
paths = (
{
closed = 1;
nodes = (
"27 74 LINE",
"27 0 LINE",
"388 0 LINE",
"388 74 LINE",
"291 84 LINE",
"291 464 LINE",
"403 464 LINE",
"403 555 LINE",
"291 555 LINE",
"291 649 LINE SMOOTH",
"291 687 OFFCURVE",
"302 704 OFFCURVE",
"339 704 CURVE SMOOTH",
"383 704 OFFCURVE",
"436 680 OFFCURVE",
"450 663 CURVE",
"450 831 LINE",
"443 833 OFFCURVE",
"420 842 OFFCURVE",
"379 842 CURVE SMOOTH",
"225 842 OFFCURVE",
"99 735 OFFCURVE",
"99 594 CURVE SMOOTH",
"99 554 LINE",
"29 533 LINE",
"29 464 LINE",
"99 464 LINE",
"99 84 LINE"
);
}
);
width = 419;
}
);
unicode = 0066;
},
{
glyphname = g;
layers = (
{
anchors = (
{
name = bottom;
position = "{299, 0}";
},
{
name = top;
position = "{308, 555}";
}
);
layerId = UUID0;
paths = (
{
closed = 1;
nodes = (
"446 -270 OFFCURVE",
"575 -176 OFFCURVE",
"575 -67 CURVE SMOOTH",
"575 16 OFFCURVE",
"521 70 OFFCURVE",
"393 70 CURVE SMOOTH",
"275 70 LINE SMOOTH",
"195 70 OFFCURVE",
"165 86 OFFCURVE",
"165 138 CURVE SMOOTH",
"165 163 OFFCURVE",
"180 189 OFFCURVE",
"204 208 CURVE",
"227 202 OFFCURVE",
"252 199 OFFCURVE",
"279 199 CURVE SMOOTH",
"400 199 OFFCURVE",
"501 278 OFFCURVE",
"501 399 CURVE SMOOTH",
"501 438 OFFCURVE",
"490 471 OFFCURVE",
"472 496 CURVE",
"586 496 LINE",
"586 570 LINE",
"553 570 LINE SMOOTH",
"499 570 OFFCURVE",
"453 542 OFFCURVE",
"439 529 CURVE",
"401 557 OFFCURVE",
"348 570 OFFCURVE",
"290 570 CURVE SMOOTH",
"180 570 OFFCURVE",
"67 501 OFFCURVE",
"67 379 CURVE SMOOTH",
"67 305 OFFCURVE",
"106 251 OFFCURVE",
"167 222 CURVE",
"125 200 OFFCURVE",
"92 154 OFFCURVE",
"92 103 CURVE SMOOTH",
"92 63 OFFCURVE",
"109 36 OFFCURVE",
"139 20 CURVE",
"95 -4 OFFCURVE",
"46 -55 OFFCURVE",
"46 -120 CURVE SMOOTH",
"46 -208 OFFCURVE",
"108 -270 OFFCURVE",
"282 -270 CURVE"
);
},
{
closed = 1;
nodes = (
"164 -219 OFFCURVE",
"127 -176 OFFCURVE",
"127 -104 CURVE SMOOTH",
"127 -57 OFFCURVE",
"149 -20 OFFCURVE",
"176 6 CURVE",
"197 1 OFFCURVE",
"222 0 OFFCURVE",
"249 0 CURVE",
"373 0 LINE SMOOTH",
"481 0 OFFCURVE",
"499 -34 OFFCURVE",
"499 -90 CURVE SMOOTH",
"499 -171 OFFCURVE",
"393 -219 OFFCURVE",
"287 -219 CURVE"
);
},
{
closed = 1;
nodes = (
"192 248 OFFCURVE",
"152 311 OFFCURVE",
"152 390 CURVE SMOOTH",
"152 491 OFFCURVE",
"211 521 OFFCURVE",
"284 521 CURVE",
"369 521 OFFCURVE",
"416 481 OFFCURVE",
"416 388 CURVE SMOOTH",
"416 297 OFFCURVE",
"376 248 OFFCURVE",
"289 248 CURVE SMOOTH"
);
}
);
width = 597;
},
{
anchors = (
{
name = bottom;
position = "{322, 0}";
},
{
name = top;
position = "{321, 556}";
}
);
layerId = "D0FF1146-32FF-444C-BC95-9626761FC64D";
paths = (
{
closed = 1;
nodes = (
"454 -270 OFFCURVE",
"627 -193 OFFCURVE",
"627 -46 CURVE SMOOTH",
"627 64 OFFCURVE",
"548 111 OFFCURVE",
"405 111 CURVE SMOOTH",
"307 111 LINE SMOOTH",
"226 111 OFFCURVE",
"196 127 OFFCURVE",
"196 164 CURVE SMOOTH",
"196 179 OFFCURVE",
"198 186 OFFCURVE",
"206 197 CURVE",
"229 193 OFFCURVE",
"257 191 OFFCURVE",
"288 191 CURVE SMOOTH",
"466 191 OFFCURVE",
"549 271 OFFCURVE",
"548 391 CURVE SMOOTH",
"548 406 OFFCURVE",
"547 420 OFFCURVE",
"545 434 CURVE",
"639 434 LINE",
"639 573 LINE",
"602 573 LINE SMOOTH",
"558 573 OFFCURVE",
"515 545 OFFCURVE",
"498 522 CURVE",
"460 553 OFFCURVE",
"399 570 OFFCURVE",
"303 570 CURVE",
"155 570 OFFCURVE",
"38 500 OFFCURVE",
"38 384 CURVE SMOOTH",
"38 306 OFFCURVE",
"65 240 OFFCURVE",
"154 210 CURVE",
"102 188 OFFCURVE",
"71 144 OFFCURVE",
"71 104 CURVE SMOOTH",
"71 69 OFFCURVE",
"83 38 OFFCURVE",
"117 17 CURVE",
"59 3 OFFCURVE",
"22 -37 OFFCURVE",
"22 -100 CURVE SMOOTH",
"22 -214 OFFCURVE",
"132 -270 OFFCURVE",
"292 -270 CURVE SMOOTH"
);
},
{
closed = 1;
nodes = (
"241 -186 OFFCURVE",
"200 -141 OFFCURVE",
"200 -74 CURVE SMOOTH",
"200 -45 OFFCURVE",
"208 -24 OFFCURVE",
"216 -9 CURVE",
"223 -9 OFFCURVE",
"231 -10 OFFCURVE",
"239 -10 CURVE",
"344 -10 LINE SMOOTH",
"401 -10 OFFCURVE",
"427 -27 OFFCURVE",
"427 -82 CURVE SMOOTH",
"427 -155 OFFCURVE",
"368 -186 OFFCURVE",
"315 -186 CURVE"
);
},
{
closed = 1;
nodes = (
"250 265 OFFCURVE",
"231 305 OFFCURVE",
"231 386 CURVE SMOOTH",
"231 454 OFFCURVE",
"248 500 OFFCURVE",
"299 500 CURVE",
"344 500 OFFCURVE",
"361 464 OFFCURVE",
"361 381 CURVE SMOOTH",
"361 313 OFFCURVE",
"347 265 OFFCURVE",
"298 265 CURVE SMOOTH"
);
}
);
width = 643;
}
);
unicode = 0067;
},
{
glyphname = gstroke;
layers = (
{
components = (
{
name = g;
}
);
layerId = UUID0;
paths = (
{
closed = 1;
nodes = (
"2 -83 LINE",
"2 -143 LINE",
"596 -143 LINE",
"596 -83 LINE"
);
}
);
width = 597;
},
{
components = (
{
name = g;
}
);
layerId = "D0FF1146-32FF-444C-BC95-9626761FC64D";
paths = (
{
closed = 1;
nodes = (
"2 -71 LINE",
"2 -131 LINE",
"645 -131 LINE",
"645 -71 LINE"
);
}
);
width = 643;
}
);
unicode = 01E5;
},
{
glyphname = h;
layers = (
{
anchors = (
{
name = bottom;
position = "{326, 0}";
},
{
name = center;
position = "{326, 278}";
},
{
name = mark0;
position = "{335, -83}";
},
{
name = top;
position = "{127, 801}";
}
);
layerId = UUID0;
paths = (
{
closed = 1;
nodes = (
"40 43 LINE",
"40 0 LINE",
"257 0 LINE",
"257 43 LINE",
"183 51 LINE",
"183 440 LINE",
"225 472 OFFCURVE",
"293 506 OFFCURVE",
"350 506 CURVE SMOOTH",
"449 506 OFFCURVE",
"465 451 OFFCURVE",
"465 334 CURVE SMOOTH",
"465 51 LINE",
"395 43 LINE",
"395 0 LINE",
"619 0 LINE",
"619 43 LINE",
"546 51 LINE",
"546 333 LINE SMOOTH",
"546 498 OFFCURVE",
"512 568 OFFCURVE",
"385 568 CURVE SMOOTH",
"302 568 OFFCURVE",
"214 515 OFFCURVE",
"181 485 CURVE",
"183 568 LINE",
"183 806 LINE",
"164 819 LINE",
"162 819 LINE",
"14 802 LINE",
"14 765 LINE",
"103 756 LINE",
"103 50 LINE"
);
}
);
width = 652;
},
{
anchors = (
{
name = bottom;
position = "{343, 0}";
},
{
name = center;
position = "{343, 278}";
},
{
name = mark0;
position = "{328, -83}";
},
{
name = top;
position = "{167, 797}";
}
);
layerId = "D0FF1146-32FF-444C-BC95-9626761FC64D";
paths = (
{
closed = 1;
nodes = (
"33 74 LINE",
"33 0 LINE",
"328 0 LINE",
"328 74 LINE",
"279 84 LINE",
"279 427 LINE",
"296 444 OFFCURVE",
"325 461 OFFCURVE",
"360 461 CURVE SMOOTH",
"410 461 OFFCURVE",
"422 432 OFFCURVE",
"422 353 CURVE SMOOTH",
"422 84 LINE",
"375 74 LINE",
"375 0 LINE",
"672 0 LINE",
"672 74 LINE",
"615 84 LINE",
"615 354 LINE SMOOTH",
"615 498 OFFCURVE",
"582 567 OFFCURVE",
"454 567 CURVE SMOOTH",
"361 567 OFFCURVE",
"297 526 OFFCURVE",
"264 496 CURVE",
"274 587 LINE",
"273 796 LINE",
"240 820 LINE",
"237 820 LINE",
"17 794 LINE",
"17 725 LINE",
"82 710 LINE",
"82 84 LINE"
);
}
);
width = 686;
}
);
unicode = 0068;
},
{
glyphname = hbar;
layers = (
{
layerId = UUID0;
paths = (
{
closed = 1;
nodes = (
"7 680 LINE",
"7 632 LINE",
"100 632 LINE",
"100 50 LINE",
"38 43 LINE",
"38 0 LINE",
"255 0 LINE",
"255 43 LINE",
"181 51 LINE",
"181 440 LINE",
"223 472 OFFCURVE",
"291 506 OFFCURVE",
"348 506 CURVE SMOOTH",
"446 506 OFFCURVE",
"463 451 OFFCURVE",
"463 334 CURVE SMOOTH",
"463 51 LINE",
"393 43 LINE",
"393 0 LINE",
"617 0 LINE",
"617 43 LINE",
"543 51 LINE",
"543 333 LINE SMOOTH",
"543 498 OFFCURVE",
"509 568 OFFCURVE",
"383 568 CURVE SMOOTH",
"299 568 OFFCURVE",
"212 515 OFFCURVE",
"178 485 CURVE",
"181 568 LINE",
"181 632 LINE",
"315 632 LINE",
"315 680 LINE",
"181 680 LINE",
"181 806 LINE",
"162 819 LINE",
"159 819 LINE",
"12 802 LINE",
"12 765 LINE",
"100 756 LINE",
"100 680 LINE"
);
}
);
width = 662;
},
{
layerId = "D0FF1146-32FF-444C-BC95-9626761FC64D";
paths = (
{
closed = 1;
nodes = (
"10 674 LINE",
"10 601 LINE",
"84 601 LINE",
"84 84 LINE",
"36 74 LINE",
"36 0 LINE",
"331 0 LINE",
"331 74 LINE",
"281 84 LINE",
"281 427 LINE",
"298 444 OFFCURVE",
"328 461 OFFCURVE",
"363 461 CURVE SMOOTH",
"413 461 OFFCURVE",
"424 432 OFFCURVE",
"424 353 CURVE SMOOTH",
"424 84 LINE",
"378 74 LINE",
"378 0 LINE",
"674 0 LINE",
"674 74 LINE",
"618 84 LINE",
"618 354 LINE SMOOTH",
"618 498 OFFCURVE",
"584 567 OFFCURVE",
"456 567 CURVE SMOOTH",
"364 567 OFFCURVE",
"300 526 OFFCURVE",
"266 496 CURVE",
"276 587 LINE",
"276 601 LINE",
"407 601 LINE",
"407 674 LINE",
"276 674 LINE",
"276 796 LINE",
"243 820 LINE",
"240 820 LINE",
"19 794 LINE",
"19 725 LINE",
"84 710 LINE",
"84 674 LINE"
);
}
);
width = 688;
}
);
unicode = 0127;
},
{
glyphname = i;
layers = (
{
anchors = (
{
name = mark0;
position = "{159, -83}";
}
);
layerId = UUID0;
paths = (
{
closed = 1;
nodes = (
"163 660 LINE",
"204 660 OFFCURVE",
"227 685 OFFCURVE",
"227 726 CURVE SMOOTH",
"227 754 OFFCURVE",
"215 783 OFFCURVE",
"171 783 CURVE SMOOTH",
"131 783 OFFCURVE",
"108 755 OFFCURVE",
"108 717 CURVE SMOOTH",
"108 686 OFFCURVE",
"121 660 OFFCURVE",
"162 660 CURVE"
);
},
{
closed = 1;
nodes = (
"42 43 LINE",
"42 0 LINE",
"298 0 LINE",
"298 43 LINE",
"211 50 LINE",
"211 551 LINE",
"191 567 LINE",
"189 567 LINE",
"52 551 LINE",
"52 506 LINE",
"130 489 LINE",
"130 51 LINE"
);
}
);
width = 324;
},
{
anchors = (
{
name = mark0;
position = "{187, -83}";
}
);
layerId = "D0FF1146-32FF-444C-BC95-9626761FC64D";
paths = (
{
closed = 1;
nodes = (
"166 635 LINE",
"242 635 OFFCURVE",
"282 682 OFFCURVE",
"282 742 CURVE SMOOTH",
"282 793 OFFCURVE",
"245 833 OFFCURVE",
"177 833 CURVE SMOOTH",
"108 833 OFFCURVE",
"66 786 OFFCURVE",
"66 726 CURVE SMOOTH",
"66 674 OFFCURVE",
"108 635 OFFCURVE",
"165 635 CURVE"
);
},
{
closed = 1;
nodes = (
"40 74 LINE",
"40 0 LINE",
"340 0 LINE",
"340 74 LINE",
"289 84 LINE",
"289 547 LINE",
"255 570 LINE",
"253 570 LINE",
"30 543 LINE",
"30 457 LINE",
"94 437 LINE",
"94 84 LINE"
);
}
);
width = 367;
}
);
unicode = 0069;
},
{
glyphname = idotless;
layers = (
{
anchors = (
{
name = bottom;
position = "{162, 0}";
},
{
name = mark0;
position = "{159, -83}";
},
{
name = ogonek;
position = "{202, 10}";
},
{
name = top;
position = "{162, 556}";
}
);
layerId = UUID0;
paths = (
{
closed = 1;
nodes = (
"42 43 LINE",
"42 0 LINE",
"298 0 LINE",
"298 43 LINE",
"211 50 LINE",
"211 551 LINE",
"191 567 LINE",
"189 567 LINE",
"52 551 LINE",
"52 506 LINE",
"130 489 LINE",
"130 51 LINE"
);
}
);
width = 324;
},
{
anchors = (
{
name = bottom;
position = "{189, 0}";
},
{
name = mark0;
position = "{187, -83}";
},
{
name = ogonek;
position = "{230, 10}";
},
{
name = top;
position = "{184, 556}";
}
);
layerId = "D0FF1146-32FF-444C-BC95-9626761FC64D";
paths = (
{
closed = 1;
nodes = (
"40 74 LINE",
"40 0 LINE",
"340 0 LINE",
"340 74 LINE",
"289 84 LINE",
"289 547 LINE",
"255 570 LINE",
"253 570 LINE",
"30 543 LINE",
"30 457 LINE",
"94 437 LINE",
"94 84 LINE"
);
}
);
width = 367;
}
);
unicode = 0131;
},
{
glyphname = ibreve;
layers = (
{
components = (
{
name = idotless;
},
{
name = brevecomb;
transform = "{1, 0, 0, 1, 162, -23}";
}
);
layerId = UUID0;
width = 324;
},
{
background = {
anchors = (
{
name = mark0;
position = "{187, -83}";
}
);
paths = (
{
closed = 1;
nodes = (
"290 642 OFFCURVE",
"368 714 OFFCURVE",
"368 811 CURVE SMOOTH",
"368 828 OFFCURVE",
"367 855 OFFCURVE",
"367 866 CURVE",
"284 866 LINE",
"284 859 OFFCURVE",
"283 851 OFFCURVE",
"282 842 CURVE SMOOTH",
"275 802 OFFCURVE",
"250 766 OFFCURVE",
"180 766 CURVE SMOOTH",
"109 766 OFFCURVE",
"83 803 OFFCURVE",
"76 843 CURVE SMOOTH",
"75 851 OFFCURVE",
"75 859 OFFCURVE",
"75 866 CURVE",
"-10 866 LINE",
"-12 855 OFFCURVE",
"-12 828 OFFCURVE",
"-12 810 CURVE SMOOTH",
"-12 715 OFFCURVE",
"64 642 OFFCURVE",
"180 642 CURVE SMOOTH"
);
},
{
closed = 1;
nodes = (
"40 74 LINE",
"40 0 LINE",
"340 0 LINE",
"340 74 LINE",
"289 84 LINE",
"289 547 LINE",
"255 570 LINE",
"253 570 LINE",
"30 543 LINE",
"30 457 LINE",
"94 437 LINE",
"94 84 LINE"
);
}
);
};
components = (
{
name = idotless;
},
{
name = brevecomb;
transform = "{1, 0, 0, 1, 184, 0}";
}
);
layerId = "D0FF1146-32FF-444C-BC95-9626761FC64D";
width = 367;
}
);
unicode = 012D;
},
{
glyphname = icircumflex;
layers = (
{
components = (
{
name = idotless;
},
{
name = circumflexcomb;
transform = "{1, 0, 0, 1, 162, 1}";
}
);
layerId = UUID0;
width = 324;
},
{
background = {
anchors = (
{
name = mark0;
position = "{187, -83}";
}
);
paths = (
{
closed = 1;
nodes = (
"-27 683 LINE",
"33 629 LINE",
"181 746 LINE",
"327 630 LINE",
"389 683 LINE",
"228 879 LINE",
"131 879 LINE"
);
},
{
closed = 1;
nodes = (
"40 74 LINE",
"40 0 LINE",
"340 0 LINE",
"340 74 LINE",
"289 84 LINE",
"289 547 LINE",
"255 570 LINE",
"253 570 LINE",
"30 543 LINE",
"30 457 LINE",
"94 437 LINE",
"94 84 LINE"
);
}
);
};
components = (
{
name = idotless;
},
{
name = circumflexcomb;
transform = "{1, 0, 0, 1, 184, 0}";
}
);
layerId = "D0FF1146-32FF-444C-BC95-9626761FC64D";
width = 367;
}
);
unicode = 00EE;
},
{
glyphname = iogonek;
layers = (
{
anchors = (
{
name = _ogonek;
position = "{202, 10}";
},
{
name = bottom;
position = "{162, 0}";
},
{
name = mark0;
position = "{159, -83}";
},
{
name = ogonek;
position = "{202, 10}";
},
{
name = top;
position = "{162, 555}";
}
);
layerId = UUID0;
paths = (
{
closed = 1;
nodes = (
"161 660 LINE",
"202 660 OFFCURVE",
"225 685 OFFCURVE",
"225 726 CURVE SMOOTH",
"225 754 OFFCURVE",
"213 783 OFFCURVE",
"169 783 CURVE SMOOTH",
"129 783 OFFCURVE",
"106 755 OFFCURVE",
"106 717 CURVE SMOOTH",
"106 686 OFFCURVE",
"119 660 OFFCURVE",
"160 660 CURVE"
);
},
{
closed = 1;
nodes = (
"233 -243 OFFCURVE",
"268 -214 OFFCURVE",
"293 -195 CURVE",
"293 -152 LINE",
"276 -162 OFFCURVE",
"232 -191 OFFCURVE",
"186 -191 CURVE SMOOTH",
"149 -191 OFFCURVE",
"123 -170 OFFCURVE",
"123 -128 CURVE SMOOTH",
"123 -87 OFFCURVE",
"172.201 -26.408 OFFCURVE",
"230.322 0 CURVE",
"298 0 LINE",
"298 43 LINE",
"211 50 LINE",
"211 551 LINE",
"191 567 LINE",
"189 567 LINE",
"52 551 LINE",
"52 506 LINE",
"130 489 LINE",
"130 51 LINE",
"42 43 LINE",
"42 0 LINE",
"163.988 0 LINE",
"97.907 -32.588 OFFCURVE",
"48 -98 OFFCURVE",
"48 -151 CURVE SMOOTH",
"48 -212 OFFCURVE",
"104 -243 OFFCURVE",
"152 -243 CURVE SMOOTH"
);
}
);
width = 324;
},
{
anchors = (
{
name = _ogonek;
position = "{230, 10}";
},
{
name = bottom;
position = "{189, 0}";
},
{
name = mark0;
position = "{187, -83}";
},
{
name = ogonek;
position = "{230, 10}";
},
{
name = top;
position = "{184, 556}";
}
);
layerId = "D0FF1146-32FF-444C-BC95-9626761FC64D";
paths = (
{
closed = 1;
nodes = (
"174 635 LINE",
"250 635 OFFCURVE",
"290 682 OFFCURVE",
"290 742 CURVE SMOOTH",
"290 793 OFFCURVE",
"253 833 OFFCURVE",
"185 833 CURVE SMOOTH",
"116 833 OFFCURVE",
"74 786 OFFCURVE",
"74 726 CURVE SMOOTH",
"74 674 OFFCURVE",
"116 635 OFFCURVE",
"173 635 CURVE"
);
},
{
closed = 1;
nodes = (
"243 -241 OFFCURVE",
"300 -228 OFFCURVE",
"328 -207 CURVE",
"329 -128 LINE",
"306 -136 OFFCURVE",
"299 -140 OFFCURVE",
"276 -140 CURVE SMOOTH",
"236 -140 OFFCURVE",
"215 -119 OFFCURVE",
"215 -91 CURVE SMOOTH",
"215 -62.725 OFFCURVE",
"232.176 -26.643 OFFCURVE",
"285.843 0 CURVE",
"340 0 LINE",
"340 74 LINE",
"289 84 LINE",
"289 547 LINE",
"255 570 LINE",
"253 570 LINE",
"30 543 LINE",
"30 457 LINE",
"94 437 LINE",
"94 84 LINE",
"40 74 LINE",
"40 0 LINE",
"180.263 0 LINE",
"99.671 -35.262 OFFCURVE",
"65 -90.846 OFFCURVE",
"65 -139 CURVE SMOOTH",
"65 -211 OFFCURVE",
"140 -241 OFFCURVE",
"203 -241 CURVE SMOOTH"
);
}
);
width = 367;
}
);
unicode = 012F;
},
{
glyphname = j;
layers = (
{
layerId = UUID0;
paths = (
{
closed = 1;
nodes = (
"124 485 LINE",
"125 25 LINE SMOOTH",
"125 -83 OFFCURVE",
"108 -169 OFFCURVE",
"47 -188 CURVE SMOOTH",
"23 -196 OFFCURVE",
"0 -199 OFFCURVE",
"-10 -198 CURVE",
"-6 -239 LINE",
"0 -243 OFFCURVE",
"41 -244 OFFCURVE",
"51 -243 CURVE SMOOTH",
"147 -234 OFFCURVE",
"204 -160 OFFCURVE",
"204 6 CURVE SMOOTH",
"204 551 LINE",
"185 567 LINE",
"183 567 LINE",
"44 551 LINE",
"44 503 LINE"
);
},
{
closed = 1;
nodes = (
"161 660 LINE",
"202 660 OFFCURVE",
"225 685 OFFCURVE",
"225 726 CURVE SMOOTH",
"225 754 OFFCURVE",
"213 783 OFFCURVE",
"169 783 CURVE SMOOTH",
"129 783 OFFCURVE",
"106 755 OFFCURVE",
"106 717 CURVE SMOOTH",
"106 686 OFFCURVE",
"119 660 OFFCURVE",
"160 660 CURVE"
);
}
);
width = 308;
},
{
layerId = "D0FF1146-32FF-444C-BC95-9626761FC64D";
paths = (
{
closed = 1;
nodes = (
"97 436 LINE",
"97 48 LINE SMOOTH",
"97 -67 OFFCURVE",
"78 -131 OFFCURVE",
"32 -156 CURVE SMOOTH",
"13 -167 OFFCURVE",
"-7 -168 OFFCURVE",
"-15 -168 CURVE",
"-6 -239 LINE",
"4 -242 OFFCURVE",
"40 -243 OFFCURVE",
"58 -243 CURVE SMOOTH",
"136 -243 OFFCURVE",
"287 -155 OFFCURVE",
"287 11 CURVE SMOOTH",
"287 547 LINE",
"253 570 LINE",
"251 570 LINE",
"33 543 LINE",
"33 456 LINE"
);
},
{
closed = 1;
nodes = (
"173 635 LINE",
"249 635 OFFCURVE",
"287 682 OFFCURVE",
"287 742 CURVE SMOOTH",
"287 793 OFFCURVE",
"252 833 OFFCURVE",
"184 833 CURVE SMOOTH",
"115 833 OFFCURVE",
"74 786 OFFCURVE",
"74 726 CURVE SMOOTH",
"74 674 OFFCURVE",
"115 635 OFFCURVE",
"172 635 CURVE"
);
}
);
width = 349;
}
);
unicode = 006A;
},
{
glyphname = jdotless;
layers = (
{
anchors = (
{
name = top;
position = "{161, 555}";
}
);
layerId = UUID0;
paths = (
{
closed = 1;
nodes = (
"124 485 LINE",
"125 25 LINE SMOOTH",
"125 -83 OFFCURVE",
"108 -169 OFFCURVE",
"47 -188 CURVE SMOOTH",
"23 -196 OFFCURVE",
"0 -199 OFFCURVE",
"-10 -198 CURVE",
"-6 -239 LINE",
"0 -243 OFFCURVE",
"41 -244 OFFCURVE",
"51 -243 CURVE SMOOTH",
"147 -234 OFFCURVE",
"204 -160 OFFCURVE",
"204 6 CURVE SMOOTH",
"204 551 LINE",
"185 567 LINE",
"183 567 LINE",
"44 551 LINE",
"44 503 LINE"
);
}
);
width = 308;
},
{
anchors = (
{
name = top;
position = "{181, 556}";
}
);
layerId = "D0FF1146-32FF-444C-BC95-9626761FC64D";
paths = (
{
closed = 1;
nodes = (
"97 436 LINE",
"97 48 LINE SMOOTH",
"97 -67 OFFCURVE",
"78 -131 OFFCURVE",
"32 -156 CURVE SMOOTH",
"13 -167 OFFCURVE",
"-7 -168 OFFCURVE",
"-15 -168 CURVE",
"-6 -239 LINE",
"4 -242 OFFCURVE",
"40 -243 OFFCURVE",
"58 -243 CURVE SMOOTH",
"136 -243 OFFCURVE",
"287 -155 OFFCURVE",
"287 11 CURVE SMOOTH",
"287 547 LINE",
"253 570 LINE",
"251 570 LINE",
"33 543 LINE",
"33 456 LINE"
);
}
);
width = 349;
}
);
unicode = 0237;
},
{
glyphname = jcircumflex;
layers = (
{
components = (
{
name = jdotless;
},
{
name = circumflexcomb;
transform = "{1, 0, 0, 1, 161, 0}";
}
);
layerId = UUID0;
width = 308;
},
{
background = {
paths = (
{
closed = 1;
nodes = (
"-41 683 LINE",
"19 629 LINE",
"167 746 LINE",
"313 630 LINE",
"375 683 LINE",
"214 879 LINE",
"117 879 LINE"
);
},
{
closed = 1;
nodes = (
"97 436 LINE",
"97 48 LINE SMOOTH",
"97 -67 OFFCURVE",
"78 -131 OFFCURVE",
"32 -156 CURVE SMOOTH",
"13 -167 OFFCURVE",
"-7 -168 OFFCURVE",
"-15 -168 CURVE",
"-6 -239 LINE",
"4 -242 OFFCURVE",
"40 -243 OFFCURVE",
"58 -243 CURVE SMOOTH",
"136 -243 OFFCURVE",
"287 -155 OFFCURVE",
"287 11 CURVE SMOOTH",
"287 547 LINE",
"253 570 LINE",
"251 570 LINE",
"33 543 LINE",
"33 456 LINE"
);
}
);
};
components = (
{
name = jdotless;
},
{
name = circumflexcomb;
transform = "{1, 0, 0, 1, 181, 0}";
}
);
layerId = "D0FF1146-32FF-444C-BC95-9626761FC64D";
width = 349;
}
);
unicode = 0135;
},
{
glyphname = k;
layers = (
{
anchors = (
{
name = bottom;
position = "{322, 0}";
},
{
name = mark0;
position = "{311, -83}";
},
{
name = top;
position = "{314, 774}";
}
);
layerId = UUID0;
paths = (
{
closed = 1;
nodes = (
"36 43 LINE",
"36 0 LINE",
"260 0 LINE",
"260 43 LINE",
"183 51 LINE",
"183 128 LINE",
"181 170 LINE",
"293 288 LINE",
"450 51 LINE",
"381 43 LINE",
"381 0 LINE",
"610 0 LINE",
"610 43 LINE",
"544 50 LINE",
"345 333 LINE",
"504 501 LINE",
"581 515 LINE",
"581 555 LINE",
"345 555 LINE",
"345 515 LINE",
"423 501 LINE",
"181 238 LINE",
"183 301 LINE",
"183 806 LINE",
"164 819 LINE",
"163 819 LINE",
"20 802 LINE",
"20 765 LINE",
"102 756 LINE",
"102 51 LINE"
);
}
);
width = 581;
},
{
anchors = (
{
name = bottom;
position = "{356, 0}";
},
{
name = mark0;
position = "{361, -83}";
},
{
name = top;
position = "{372, 774}";
}
);
layerId = "D0FF1146-32FF-444C-BC95-9626761FC64D";
paths = (
{
closed = 1;
nodes = (
"31 74 LINE",
"31 0 LINE",
"323 0 LINE",
"323 74 LINE",
"273 84 LINE",
"273 139 LINE",
"270 190 LINE",
"341 265 LINE",
"419 84 LINE",
"382 74 LINE",
"382 0 LINE",
"678 0 LINE",
"678 74 LINE",
"631 84 LINE",
"477 388 LINE",
"566 471 LINE",
"651 484 LINE",
"651 555 LINE",
"364 555 LINE",
"364 484 LINE",
"437 474 LINE",
"271 296 LINE",
"274 340 LINE",
"274 796 LINE",
"241 820 LINE",
"238 820 LINE",
"18 794 LINE",
"18 725 LINE",
"82 710 LINE",
"82 84 LINE"
);
}
);
width = 670;
}
);
unicode = 006B;
},
{
glyphname = kgreenlandic;
layers = (
{
layerId = UUID0;
paths = (
{
closed = 1;
nodes = (
"39 42 LINE",
"39 0 LINE",
"285 0 LINE",
"285 41 LINE",
"202 49 LINE",
"202 135 LINE",
"200 185 LINE",
"313 287 LINE",
"473 49 LINE",
"416 41 LINE",
"416 0 LINE",
"636 0 LINE",
"636 42 LINE",
"568 49 LINE",
"366 334 LINE",
"539 504 LINE",
"608 513 LINE",
"608 554 LINE",
"372 554 LINE",
"372 513 LINE",
"454 500 LINE",
"200 248 LINE",
"202 349 LINE",
"202 551 LINE",
"183 567 LINE",
"181 567 LINE",
"43 551 LINE",
"43 506 LINE",
"122 489 LINE",
"122 49 LINE"
);
}
);
width = 656;
},
{
layerId = "D0FF1146-32FF-444C-BC95-9626761FC64D";
paths = (
{
closed = 1;
nodes = (
"45 74 LINE",
"45 0 LINE",
"346 0 LINE",
"346 74 LINE",
"297 84 LINE",
"297 136 LINE",
"293 179 LINE",
"364 257 LINE",
"441 83 LINE",
"406 74 LINE",
"406 0 LINE",
"701 0 LINE",
"701 74 LINE",
"653 85 LINE",
"496 384 LINE",
"594 473 LINE",
"677 483 LINE",
"677 555 LINE",
"381 555 LINE",
"381 483 LINE",
"463 473 LINE",
"292 275 LINE",
"295 349 LINE",
"295 547 LINE",
"251 570 LINE",
"249 570 LINE",
"46 546 LINE",
"46 456 LINE",
"101 437 LINE",
"100 84 LINE"
);
}
);
width = 691;
}
);
unicode = 0138;
},
{
glyphname = l;
layers = (
{
anchors = (
{
name = bottom;
position = "{167, 0}";
},
{
name = mark0;
position = "{169, -83}";
},
{
name = topright;
position = "{294, 555}";
}
);
layerId = UUID0;
paths = (
{
closed = 1;
nodes = (
"41 43 LINE",
"41 0 LINE",
"304 0 LINE",
"304 43 LINE",
"210 50 LINE",
"210 806 LINE",
"191 819 LINE",
"190 819 LINE",
"44 802 LINE",
"44 765 LINE",
"129 756 LINE",
"129 51 LINE"
);
}
);
width = 329;
},
{
anchors = (
{
name = bottom;
position = "{184, 0}";
},
{
name = mark0;
position = "{173, -83}";
},
{
name = topright;
position = "{355, 556}";
}
);
layerId = "D0FF1146-32FF-444C-BC95-9626761FC64D";
paths = (
{
closed = 1;
nodes = (
"31 74 LINE",
"31 0 LINE",
"332 0 LINE",
"332 74 LINE",
"277 84 LINE",
"277 796 LINE",
"244 820 LINE",
"241 820 LINE",
"21 794 LINE",
"21 725 LINE",
"86 710 LINE",
"86 84 LINE"
);
}
);
width = 349;
}
);
unicode = 006C;
},
{
glyphname = lacute;
layers = (
{
layerId = UUID0;
paths = (
{
closed = 1;
nodes = (
"302 0 LINE",
"302 42 LINE",
"208 49 LINE",
"208 735 LINE",
"188 749 LINE",
"42 731 LINE",
"42 695 LINE",
"127 689 LINE",
"127 49 LINE",
"39 42 LINE",
"39 0 LINE"
);
},
{
closed = 1;
nodes = (
"163 823 OFFCURVE",
"277 885 OFFCURVE",
"311 929 CURVE",
"255 980 LINE",
"89 830 LINE",
"117 804 LINE"
);
}
);
width = 329;
},
{
layerId = "D0FF1146-32FF-444C-BC95-9626761FC64D";
paths = (
{
closed = 1;
nodes = (
"330 0 LINE",
"330 74 LINE",
"275 84 LINE",
"275 719 LINE",
"239 744 LINE",
"17 717 LINE",
"17 648 LINE",
"82 633 LINE",
"82 84 LINE",
"27 74 LINE",
"27 0 LINE"
);
},
{
closed = 1;
nodes = (
"178 787 OFFCURVE",
"274 840 OFFCURVE",
"336 905 CURVE",
"218 983 LINE",
"73 828 LINE",
"144 778 LINE"
);
}
);
width = 351;
}
);
unicode = 013A;
},
{
glyphname = lcommaaccent;
layers = (
{
anchors = (
{
name = mark0;
position = "{169, -83}";
}
);
layerId = UUID0;
paths = (
{
closed = 1;
nodes = (
"39 43 LINE",
"39 0 LINE",
"302 0 LINE",
"302 43 LINE",
"208 50 LINE",
"208 806 LINE",
"189 819 LINE",
"188 819 LINE",
"42 802 LINE",
"42 765 LINE",
"127 756 LINE",
"127 51 LINE"
);
},
{
closed = 1;
nodes = (
"239 -86 OFFCURVE",
"215 -58 OFFCURVE",
"178 -58 CURVE SMOOTH",
"174 -58 LINE SMOOTH",
"162 -58 OFFCURVE",
"130 -65 OFFCURVE",
"130 -102 CURVE SMOOTH",
"130 -123 OFFCURVE",
"139 -132 OFFCURVE",
"149 -139 CURVE SMOOTH",
"159 -146 OFFCURVE",
"170 -155 OFFCURVE",
"170 -175 CURVE SMOOTH",
"170 -206 OFFCURVE",
"156 -237 OFFCURVE",
"136 -247 CURVE",
"136 -253 LINE",
"163 -272 LINE",
"164 -272 LINE",
"175 -268 OFFCURVE",
"239 -219 OFFCURVE",
"239 -138 CURVE SMOOTH"
);
}
);
width = 329;
},
{
anchors = (
{
name = mark0;
position = "{173, -83}";
}
);
layerId = "D0FF1146-32FF-444C-BC95-9626761FC64D";
paths = (
{
closed = 1;
nodes = (
"27 74 LINE",
"27 0 LINE",
"328 0 LINE",
"328 74 LINE",
"273 84 LINE",
"273 796 LINE",
"240 820 LINE",
"237 820 LINE",
"17 794 LINE",
"17 725 LINE",
"82 710 LINE",
"82 84 LINE"
);
},
{
closed = 1;
nodes = (
"260 -70 OFFCURVE",
"225 -42 OFFCURVE",
"176 -42 CURVE SMOOTH",
"173 -42 LINE SMOOTH",
"137 -42 OFFCURVE",
"86 -57 OFFCURVE",
"86 -107 CURVE SMOOTH",
"86 -134 OFFCURVE",
"99 -150 OFFCURVE",
"110 -158 CURVE SMOOTH",
"118 -163 OFFCURVE",
"128 -172 OFFCURVE",
"128 -193 CURVE SMOOTH",
"128 -215 OFFCURVE",
"120 -247 OFFCURVE",
"107 -252 CURVE",
"110 -260 LINE",
"170 -273 LINE",
"172 -273 LINE",
"200 -263 OFFCURVE",
"259 -195 OFFCURVE",
"260 -123 CURVE SMOOTH"
);
}
);
width = 349;
}
);
unicode = 013C;
},
{
glyphname = ldot;
layers = (
{
anchors = (
{
name = mark0;
position = "{169, -83}";
}
);
layerId = UUID0;
paths = (
{
closed = 1;
nodes = (
"39 43 LINE",
"39 0 LINE",
"302 0 LINE",
"302 43 LINE",
"208 50 LINE",
"208 806 LINE",
"189 819 LINE",
"188 819 LINE",
"42 802 LINE",
"42 765 LINE",
"127 756 LINE",
"127 51 LINE"
);
},
{
closed = 1;
nodes = (
"414 320 OFFCURVE",
"445 347 OFFCURVE",
"445 386 CURVE SMOOTH",
"445 415 OFFCURVE",
"429 442 OFFCURVE",
"391 442 CURVE SMOOTH",
"358 442 OFFCURVE",
"326 414 OFFCURVE",
"326 376 CURVE SMOOTH",
"326 342 OFFCURVE",
"351 320 OFFCURVE",
"381 320 CURVE SMOOTH"
);
}
);
width = 460;
},
{
anchors = (
{
name = mark0;
position = "{173, -83}";
}
);
layerId = "D0FF1146-32FF-444C-BC95-9626761FC64D";
paths = (
{
closed = 1;
nodes = (
"27 74 LINE",
"27 0 LINE",
"328 0 LINE",
"328 74 LINE",
"273 84 LINE",
"273 796 LINE",
"240 820 LINE",
"237 820 LINE",
"17 794 LINE",
"17 725 LINE",
"82 710 LINE",
"82 84 LINE"
);
},
{
closed = 1;
nodes = (
"527 292 OFFCURVE",
"574 327 OFFCURVE",
"574 391 CURVE SMOOTH",
"574 439 OFFCURVE",
"536 485 OFFCURVE",
"474 485 CURVE SMOOTH",
"411 485 OFFCURVE",
"361 445 OFFCURVE",
"361 385 CURVE SMOOTH",
"361 331 OFFCURVE",
"408 292 OFFCURVE",
"457 292 CURVE SMOOTH"
);
}
);
width = 599;
}
);
unicode = 0140;
},
{
glyphname = lslash;
layers = (
{
layerId = UUID0;
paths = (
{
closed = 1;
nodes = (
"21 409 LINE",
"21 354 LINE",
"130 405 LINE",
"130 51 LINE",
"42 43 LINE",
"42 0 LINE",
"305 0 LINE",
"305 43 LINE",
"211 50 LINE",
"211 441 LINE",
"330 495 LINE",
"330 555 LINE",
"211 499 LINE",
"211 806 LINE",
"192 819 LINE",
"191 819 LINE",
"45 802 LINE",
"45 765 LINE",
"130 756 LINE",
"130 462 LINE"
);
}
);
width = 343;
},
{
layerId = "D0FF1146-32FF-444C-BC95-9626761FC64D";
paths = (
{
closed = 1;
nodes = (
"21 400 LINE",
"21 316 LINE",
"109 354 LINE",
"109 84 LINE",
"54 74 LINE",
"54 0 LINE",
"354 0 LINE",
"354 74 LINE",
"300 84 LINE",
"300 428 LINE",
"396 472 LINE",
"396 561 LINE",
"300 515 LINE",
"300 796 LINE",
"267 820 LINE",
"264 820 LINE",
"44 794 LINE",
"44 725 LINE",
"109 710 LINE",
"109 439 LINE"
);
}
);
width = 409;
}
);
unicode = 0142;
},
{
glyphname = m;
layers = (
{
anchors = (
{
name = bottom;
position = "{492, 0}";
},
{
name = mark0;
position = "{485, -83}";
},
{
name = top;
position = "{492, 555}";
}
);
layerId = UUID0;
paths = (
{
closed = 1;
nodes = (
"260 0 LINE",
"260 43 LINE",
"189 51 LINE",
"189 440 LINE",
"230 472 OFFCURVE",
"297 506 OFFCURVE",
"353 506 CURVE SMOOTH",
"450 506 OFFCURVE",
"463 450 OFFCURVE",
"463 334 CURVE SMOOTH",
"463 51 LINE",
"391 43 LINE",
"391 0 LINE",
"620 0 LINE",
"620 43 LINE",
"544 51 LINE",
"544 333 LINE SMOOTH",
"544 381 OFFCURVE",
"541 421 OFFCURVE",
"534 453 CURVE",
"568 478 OFFCURVE",
"628 507 OFFCURVE",
"681 507 CURVE SMOOTH",
"783 507 OFFCURVE",
"801 447 OFFCURVE",
"801 332 CURVE SMOOTH",
"801 51 LINE",
"733 43 LINE",
"733 0 LINE",
"957 0 LINE",
"957 43 LINE",
"881 51 LINE",
"881 335 LINE SMOOTH",
"881 497 OFFCURVE",
"848 568 OFFCURVE",
"721 568 CURVE SMOOTH",
"649 568 OFFCURVE",
"557 524 OFFCURVE",
"521 494 CURVE",
"498 545 OFFCURVE",
"457 568 OFFCURVE",
"385 568 CURVE SMOOTH",
"314 568 OFFCURVE",
"223 520 OFFCURVE",
"179 482 CURVE",
"180 507 LINE",
"180 551 LINE",
"158 567 LINE",
"31 551 LINE",
"31 506 LINE",
"108 489 LINE",
"108 51 LINE",
"44 43 LINE",
"44 0 LINE"
);
}
);
width = 984;
},
{
anchors = (
{
name = bottom;
position = "{519, 0}";
},
{
name = mark0;
position = "{526, -83}";
},
{
name = top;
position = "{519, 556}";
}
);
layerId = "D0FF1146-32FF-444C-BC95-9626761FC64D";
paths = (
{
closed = 1;
nodes = (
"340 0 LINE",
"340 74 LINE",
"292 84 LINE",
"292 427 LINE",
"309 442 OFFCURVE",
"337 461 OFFCURVE",
"373 461 CURVE SMOOTH",
"419 461 OFFCURVE",
"434 437 OFFCURVE",
"434 353 CURVE SMOOTH",
"434 84 LINE",
"393 74 LINE",
"393 0 LINE",
"681 0 LINE",
"681 74 LINE",
"632 84 LINE",
"632 354 LINE SMOOTH",
"632 380 OFFCURVE",
"631 405 OFFCURVE",
"627 427 CURVE",
"646 443 OFFCURVE",
"674 461 OFFCURVE",
"705 461 CURVE SMOOTH",
"750 461 OFFCURVE",
"767 437 OFFCURVE",
"767 349 CURVE SMOOTH",
"767 84 LINE",
"730 74 LINE",
"730 0 LINE",
"1018 0 LINE",
"1018 74 LINE",
"964 84 LINE",
"964 354 LINE SMOOTH",
"964 505 OFFCURVE",
"912 567 OFFCURVE",
"797 567 CURVE SMOOTH",
"724 567 OFFCURVE",
"656 538 OFFCURVE",
"610 492 CURVE",
"587 542 OFFCURVE",
"544 567 OFFCURVE",
"471 567 CURVE SMOOTH",
"421 567 OFFCURVE",
"319 537 OFFCURVE",
"274 489 CURVE",
"274 547 LINE",
"246 570 LINE",
"243 570 LINE",
"42 546 LINE",
"42 456 LINE",
"95 437 LINE",
"95 84 LINE",
"46 74 LINE",
"46 0 LINE"
);
}
);
width = 1038;
}
);
unicode = 006D;
},
{
glyphname = n;
layers = (
{
anchors = (
{
name = bottom;
position = "{327, 0}";
},
{
name = mark0;
position = "{337, -83}";
},
{
name = top;
position = "{311, 555}";
}
);
layerId = UUID0;
paths = (
{
closed = 1;
nodes = (
"41 43 LINE",
"41 0 LINE",
"262 0 LINE",
"262 43 LINE",
"189 51 LINE",
"189 439 LINE",
"230 471 OFFCURVE",
"299 506 OFFCURVE",
"356 506 CURVE SMOOTH",
"453 506 OFFCURVE",
"469 450 OFFCURVE",
"469 334 CURVE SMOOTH",
"469 50 LINE",
"402 43 LINE",
"402 0 LINE",
"625 0 LINE",
"625 43 LINE",
"550 50 LINE",
"550 333 LINE SMOOTH",
"550 494 OFFCURVE",
"520 568 OFFCURVE",
"390 568 CURVE SMOOTH",
"315 568 OFFCURVE",
"223 520 OFFCURVE",
"179 482 CURVE",
"180 507 LINE",
"180 551 LINE",
"161 567 LINE",
"158 567 LINE",
"31 551 LINE",
"31 506 LINE",
"108 489 LINE",
"108 51 LINE"
);
}
);
width = 653;
},
{
anchors = (
{
name = bottom;
position = "{361, 0}";
},
{
name = mark0;
position = "{352, -83}";
},
{
name = top;
position = "{350, 556}";
}
);
layerId = "D0FF1146-32FF-444C-BC95-9626761FC64D";
paths = (
{
closed = 1;
nodes = (
"44 74 LINE",
"44 0 LINE",
"341 0 LINE",
"341 74 LINE",
"292 84 LINE",
"292 427 LINE",
"308 439 OFFCURVE",
"336 461 OFFCURVE",
"374 461 CURVE SMOOTH",
"420 461 OFFCURVE",
"435 437 OFFCURVE",
"435 353 CURVE SMOOTH",
"435 84 LINE",
"393 74 LINE",
"393 0 LINE",
"682 0 LINE",
"682 75 LINE",
"633 84 LINE",
"633 354 LINE SMOOTH",
"633 513 OFFCURVE",
"586 567 OFFCURVE",
"472 567 CURVE SMOOTH",
"385 567 OFFCURVE",
"315 530 OFFCURVE",
"274 490 CURVE",
"275 513 LINE",
"275 547 LINE",
"246 570 LINE",
"243 570 LINE",
"42 546 LINE",
"42 456 LINE",
"95 437 LINE",
"95 84 LINE"
);
}
);
width = 705;
}
);
unicode = 006E;
},
{
glyphname = eng;
layers = (
{
layerId = UUID0;
paths = (
{
closed = 1;
nodes = (
"53 43 LINE",
"53 0 LINE",
"273 0 LINE",
"273 43 LINE",
"201 51 LINE",
"201 440 LINE",
"243 472 OFFCURVE",
"312 506 OFFCURVE",
"368 506 CURVE SMOOTH",
"466 506 OFFCURVE",
"481 452 OFFCURVE",
"481 337 CURVE SMOOTH",
"481 22 LINE SMOOTH",
"481 -89 OFFCURVE",
"463 -173 OFFCURVE",
"400 -191 CURVE",
"386 -196 OFFCURVE",
"357 -201 OFFCURVE",
"347 -199 CURVE",
"351 -241 LINE",
"357 -245 OFFCURVE",
"396 -245 OFFCURVE",
"404 -245 CURVE",
"504 -237 OFFCURVE",
"562 -155 OFFCURVE",
"562 11 CURVE SMOOTH",
"562 337 LINE SMOOTH",
"562 498 OFFCURVE",
"531 569 OFFCURVE",
"402 569 CURVE SMOOTH",
"327 569 OFFCURVE",
"235 521 OFFCURVE",
"191 483 CURVE",
"192 511 LINE",
"192 552 LINE",
"173 568 LINE",
"170 568 LINE",
"42 552 LINE",
"42 507 LINE",
"121 490 LINE",
"121 51 LINE"
);
}
);
width = 666;
},
{
layerId = "D0FF1146-32FF-444C-BC95-9626761FC64D";
paths = (
{
closed = 1;
nodes = (
"46 74 LINE",
"46 0 LINE",
"342 0 LINE",
"342 74 LINE",
"294 84 LINE",
"294 427 LINE",
"307 438 OFFCURVE",
"335 461 OFFCURVE",
"373 461 CURVE SMOOTH",
"419 461 OFFCURVE",
"436 435 OFFCURVE",
"436 356 CURVE SMOOTH",
"436 22 LINE SMOOTH",
"436 -72 OFFCURVE",
"436 -149 OFFCURVE",
"381 -175 CURVE SMOOTH",
"368 -182 OFFCURVE",
"338 -187 OFFCURVE",
"328 -186 CURVE",
"333 -262 LINE",
"338 -266 OFFCURVE",
"379 -267 OFFCURVE",
"387 -266 CURVE",
"553 -264 OFFCURVE",
"634 -155 OFFCURVE",
"634 11 CURVE SMOOTH",
"634 356 LINE SMOOTH",
"634 510 OFFCURVE",
"587 568 OFFCURVE",
"473 568 CURVE SMOOTH",
"387 568 OFFCURVE",
"318 531 OFFCURVE",
"275 491 CURVE",
"276 517 LINE",
"276 547 LINE",
"247 571 LINE",
"245 571 LINE",
"42 547 LINE",
"42 457 LINE",
"96 438 LINE",
"96 84 LINE"
);
}
);
width = 699;
}
);
unicode = 014B;
},
{
glyphname = o;
layers = (
{
anchors = (
{
name = bottom;
position = "{296, 0}";
},
{
name = center;
position = "{296, 278}";
},
{
name = mark0;
position = "{291, -83}";
},
{
name = ogonek;
position = "{533, 10}";
},
{
name = top;
position = "{296, 555}";
},
{
name = topright;
position = "{573, 555}";
}
);
layerId = UUID0;
paths = (
{
closed = 1;
nodes = (
"43 124 OFFCURVE",
"111 -11 OFFCURVE",
"290 -11 CURVE SMOOTH",
"418 -11 OFFCURVE",
"547 96 OFFCURVE",
"547 278 CURVE SMOOTH",
"547 435 OFFCURVE",
"479 570 OFFCURVE",
"300 570 CURVE SMOOTH",
"172 570 OFFCURVE",
"43 463 OFFCURVE",
"43 281 CURVE SMOOTH"
);
},
{
closed = 1;
nodes = (
"179 41 OFFCURVE",
"134 153 OFFCURVE",
"134 287 CURVE SMOOTH",
"134 440 OFFCURVE",
"194 518 OFFCURVE",
"296 518 CURVE SMOOTH",
"413 518 OFFCURVE",
"456 404 OFFCURVE",
"456 272 CURVE SMOOTH",
"456 120 OFFCURVE",
"396 41 OFFCURVE",
"295 41 CURVE SMOOTH"
);
}
);
width = 590;
},
{
anchors = (
{
name = bottom;
position = "{326, 0}";
},
{
name = center;
position = "{326, 278}";
},
{
name = mark0;
position = "{290, -83}";
},
{
name = ogonek;
position = "{574, 10}";
},
{
name = top;
position = "{331, 556}";
},
{
name = topright;
position = "{519, 556}";
}
);
layerId = "D0FF1146-32FF-444C-BC95-9626761FC64D";
paths = (
{
closed = 1;
nodes = (
"42 83 OFFCURVE",
"158 -11 OFFCURVE",
"318 -11 CURVE SMOOTH",
"477 -11 OFFCURVE",
"610 72 OFFCURVE",
"610 286 CURVE SMOOTH",
"610 476 OFFCURVE",
"495 570 OFFCURVE",
"333 570 CURVE SMOOTH",
"175 570 OFFCURVE",
"42 479 OFFCURVE",
"42 273 CURVE SMOOTH"
);
},
{
closed = 1;
nodes = (
"273 65 OFFCURVE",
"249 129 OFFCURVE",
"249 287 CURVE SMOOTH",
"249 434 OFFCURVE",
"275 494 OFFCURVE",
"325 494 CURVE SMOOTH",
"381 494 OFFCURVE",
"401 430 OFFCURVE",
"401 272 CURVE SMOOTH",
"401 125 OFFCURVE",
"379 65 OFFCURVE",
"329 65 CURVE SMOOTH"
);
}
);
width = 652;
}
);
unicode = 006F;
},
{
glyphname = ohorn;
layers = (
{
anchors = (
{
name = _topright;
position = "{575, 555}";
},
{
name = bottom;
position = "{298, 0}";
},
{
name = center;
position = "{298, 278}";
},
{
name = mark0;
position = "{293, -83}";
},
{
name = ogonek;
position = "{535, 10}";
},
{
name = top;
position = "{302, 555}";
},
{
name = topright;
position = "{575, 555}";
}
);
layerId = UUID0;
paths = (
{
closed = 1;
nodes = (
"45 124 OFFCURVE",
"113 -11 OFFCURVE",
"292 -11 CURVE SMOOTH",
"420 -11 OFFCURVE",
"549 96 OFFCURVE",
"549 278 CURVE SMOOTH",
"549 362.986 OFFCURVE",
"529.075 441.525 OFFCURVE",
"482.404 495.695 CURVE",
"558 520 OFFCURVE",
"602 572 OFFCURVE",
"602 644 CURVE SMOOTH",
"602 651 OFFCURVE",
"601 658 OFFCURVE",
"600 666 CURVE",
"524 666 LINE",
"525 662 OFFCURVE",
"525 656 OFFCURVE",
"525 649 CURVE SMOOTH",
"525 611 OFFCURVE",
"523 551 OFFCURVE",
"439 532 CURVE",
"397 555 OFFCURVE",
"351.449 570 OFFCURVE",
"302 570 CURVE SMOOTH",
"174 570 OFFCURVE",
"45 463 OFFCURVE",
"45 281 CURVE SMOOTH"
);
},
{
closed = 1;
nodes = (
"136 440 OFFCURVE",
"196 518 OFFCURVE",
"298 518 CURVE SMOOTH",
"415 518 OFFCURVE",
"458 404 OFFCURVE",
"458 272 CURVE SMOOTH",
"458 120 OFFCURVE",
"398 41 OFFCURVE",
"297 41 CURVE SMOOTH",
"181 41 OFFCURVE",
"136 153 OFFCURVE",
"136 287 CURVE SMOOTH"
);
}
);
width = 595;
},
{
anchors = (
{
name = _topright;
position = "{503, 556}";
},
{
name = bottom;
position = "{310, 0}";
},
{
name = center;
position = "{310, 278}";
},
{
name = mark0;
position = "{299, -83}";
},
{
name = ogonek;
position = "{558, 10}";
},
{
name = top;
position = "{317, 556}";
},
{
name = topright;
position = "{503, 556}";
}
);
layerId = "D0FF1146-32FF-444C-BC95-9626761FC64D";
paths = (
{
closed = 1;
nodes = (
"26 83 OFFCURVE",
"142 -11 OFFCURVE",
"302 -11 CURVE SMOOTH",
"461 -11 OFFCURVE",
"594 72 OFFCURVE",
"594 286 CURVE SMOOTH",
"594 376.994 OFFCURVE",
"567.623 445.97 OFFCURVE",
"522.34 493.146 CURVE",
"602 504 OFFCURVE",
"683 562 OFFCURVE",
"683 692 CURVE SMOOTH",
"683 699 OFFCURVE",
"682 707 OFFCURVE",
"680 713 CURVE",
"555 713 LINE",
"557 706 OFFCURVE",
"559 698 OFFCURVE",
"559 684 CURVE SMOOTH",
"559 645 OFFCURVE",
"544 549 OFFCURVE",
"429.324 552.097 CURVE",
"395.584 564.043 OFFCURVE",
"357.781 570 OFFCURVE",
"317 570 CURVE SMOOTH",
"159 570 OFFCURVE",
"26 479 OFFCURVE",
"26 273 CURVE SMOOTH"
);
},
{
closed = 1;
nodes = (
"233 434 OFFCURVE",
"259 494 OFFCURVE",
"309 494 CURVE SMOOTH",
"365 494 OFFCURVE",
"385 430 OFFCURVE",
"385 272 CURVE SMOOTH",
"385 125 OFFCURVE",
"363 65 OFFCURVE",
"313 65 CURVE SMOOTH",
"257 65 OFFCURVE",
"233 129 OFFCURVE",
"233 287 CURVE SMOOTH"
);
}
);
width = 620;
}
);
unicode = 01A1;
},
{
glyphname = oslash;
layers = (
{
anchors = (
{
name = top;
position = "{308, 555}";
}
);
background = {
paths = (
{
closed = 1;
nodes = (
"45 124 OFFCURVE",
"113 -11 OFFCURVE",
"292 -11 CURVE SMOOTH",
"420 -11 OFFCURVE",
"549 96 OFFCURVE",
"549 278 CURVE SMOOTH",
"549 435 OFFCURVE",
"481 570 OFFCURVE",
"302 570 CURVE SMOOTH",
"174 570 OFFCURVE",
"45 463 OFFCURVE",
"45 281 CURVE SMOOTH"
);
},
{
closed = 1;
nodes = (
"181 41 OFFCURVE",
"136 153 OFFCURVE",
"136 287 CURVE SMOOTH",
"136 440 OFFCURVE",
"196 518 OFFCURVE",
"298 518 CURVE SMOOTH",
"415 518 OFFCURVE",
"458 404 OFFCURVE",
"458 272 CURVE SMOOTH",
"458 120 OFFCURVE",
"398 41 OFFCURVE",
"297 41 CURVE SMOOTH"
);
}
);
};
layerId = UUID0;
paths = (
{
closed = 1;
nodes = (
"45 168 OFFCURVE",
"79 65 OFFCURVE",
"171 16 CURVE",
"133 -83 LINE",
"176 -97 LINE",
"213 -1 LINE",
"237 -7 OFFCURVE",
"263 -11 OFFCURVE",
"292 -11 CURVE SMOOTH",
"420 -11 OFFCURVE",
"549 96 OFFCURVE",
"549 278 CURVE SMOOTH",
"549 395 OFFCURVE",
"513 495 OFFCURVE",
"424 541 CURVE",
"460 635 LINE",
"418 650 LINE",
"382 560 LINE",
"358 566 OFFCURVE",
"332 570 OFFCURVE",
"302 570 CURVE SMOOTH",
"174 570 OFFCURVE",
"45 463 OFFCURVE",
"45 281 CURVE SMOOTH"
);
},
{
closed = 1;
nodes = (
"136 440 OFFCURVE",
"196 518 OFFCURVE",
"298 518 CURVE SMOOTH",
"322 518 OFFCURVE",
"343 513 OFFCURVE",
"361 504 CURVE",
"204 75 LINE",
"156 118 OFFCURVE",
"136 197 OFFCURVE",
"136 287 CURVE SMOOTH"
);
},
{
closed = 1;
nodes = (
"273 41 OFFCURVE",
"252 46 OFFCURVE",
"234 55 CURVE",
"392 483 LINE",
"439 439 OFFCURVE",
"458 360 OFFCURVE",
"458 272 CURVE SMOOTH",
"458 120 OFFCURVE",
"398 41 OFFCURVE",
"297 41 CURVE SMOOTH"
);
}
);
width = 595;
},
{
anchors = (
{
name = top;
position = "{295, 556}";
}
);
background = {
paths = (
{
closed = 1;
nodes = (
"26 83 OFFCURVE",
"142 -11 OFFCURVE",
"302 -11 CURVE SMOOTH",
"461 -11 OFFCURVE",
"594 72 OFFCURVE",
"594 286 CURVE SMOOTH",
"594 476 OFFCURVE",
"479 570 OFFCURVE",
"317 570 CURVE SMOOTH",
"159 570 OFFCURVE",
"26 479 OFFCURVE",
"26 273 CURVE SMOOTH"
);
},
{
closed = 1;
nodes = (
"257 65 OFFCURVE",
"233 129 OFFCURVE",
"233 287 CURVE SMOOTH",
"233 434 OFFCURVE",
"259 494 OFFCURVE",
"309 494 CURVE SMOOTH",
"365 494 OFFCURVE",
"385 430 OFFCURVE",
"385 272 CURVE SMOOTH",
"385 125 OFFCURVE",
"363 65 OFFCURVE",
"313 65 CURVE SMOOTH"
);
}
);
};
layerId = "D0FF1146-32FF-444C-BC95-9626761FC64D";
paths = (
{
closed = 1;
nodes = (
"26 139 OFFCURVE",
"79 56 OFFCURVE",
"170 17 CURVE",
"127 -105 LINE",
"212 -133 LINE",
"259 -9 LINE",
"273 -10 OFFCURVE",
"287 -11 OFFCURVE",
"302 -11 CURVE SMOOTH",
"461 -11 OFFCURVE",
"594 72 OFFCURVE",
"594 286 CURVE SMOOTH",
"594 418 OFFCURVE",
"539 500 OFFCURVE",
"457 539 CURVE",
"502 658 LINE",
"413 684 LINE",
"371 567 LINE",
"355 569 OFFCURVE",
"334 570 OFFCURVE",
"317 570 CURVE SMOOTH",
"159 570 OFFCURVE",
"26 479 OFFCURVE",
"26 273 CURVE SMOOTH"
);
},
{
closed = 1;
nodes = (
"233 434 OFFCURVE",
"249 494 OFFCURVE",
"309 494 CURVE SMOOTH",
"327 494 OFFCURVE",
"335 491 OFFCURVE",
"344 484 CURVE",
"244 137 LINE",
"237 171 OFFCURVE",
"233 226 OFFCURVE",
"233 287 CURVE SMOOTH"
);
},
{
closed = 1;
nodes = (
"295 65 OFFCURVE",
"291 65 OFFCURVE",
"280 74 CURVE",
"378 414 LINE",
"385 380 OFFCURVE",
"385 330 OFFCURVE",
"385 272 CURVE SMOOTH",
"385 125 OFFCURVE",
"371 65 OFFCURVE",
"313 65 CURVE SMOOTH"
);
}
);
width = 620;
}
);
unicode = 00F8;
},
{
glyphname = oe;
layers = (
{
anchors = (
{
name = mark0;
position = "{528, -83}";
}
);
layerId = UUID0;
paths = (
{
closed = 1;
nodes = (
"382 -11 OFFCURVE",
"457 37 OFFCURVE",
"501 110 CURVE",
"540 35 OFFCURVE",
"609 -11 OFFCURVE",
"707 -11 CURVE SMOOTH",
"782 -11 OFFCURVE",
"863 21 OFFCURVE",
"902 60 CURVE",
"886 97 LINE",
"854 70 OFFCURVE",
"789 46 OFFCURVE",
"731 46 CURVE SMOOTH",
"612 46 OFFCURVE",
"551 151 OFFCURVE",
"551 284 CURVE",
"907 284 LINE",
"912 306 OFFCURVE",
"913 334 OFFCURVE",
"913 372 CURVE",
"908 501 OFFCURVE",
"838 570 OFFCURVE",
"721 570 CURVE SMOOTH",
"631 570 OFFCURVE",
"556 526 OFFCURVE",
"510 452 CURVE",
"473 526 OFFCURVE",
"405 570 OFFCURVE",
"305 570 CURVE SMOOTH",
"175 570 OFFCURVE",
"46 462 OFFCURVE",
"46 281 CURVE SMOOTH",
"46 112 OFFCURVE",
"119 -11 OFFCURVE",
"294 -11 CURVE SMOOTH"
);
},
{
closed = 1;
nodes = (
"190 42 OFFCURVE",
"137 136 OFFCURVE",
"137 287 CURVE SMOOTH",
"137 438 OFFCURVE",
"196 518 OFFCURVE",
"299 518 CURVE SMOOTH",
"412 518 OFFCURVE",
"460 411 OFFCURVE",
"460 273 CURVE SMOOTH",
"460 114 OFFCURVE",
"398 42 OFFCURVE",
"298 42 CURVE SMOOTH"
);
},
{
closed = 1;
nodes = (
"561 470 OFFCURVE",
"621 519 OFFCURVE",
"701 519 CURVE SMOOTH",
"790 519 OFFCURVE",
"825 457 OFFCURVE",
"825 375 CURVE SMOOTH",
"825 361 OFFCURVE",
"824 345 OFFCURVE",
"823 331 CURVE",
"552 331 LINE"
);
}
);
width = 958;
},
{
anchors = (
{
name = mark0;
position = "{538, -83}";
}
);
layerId = "D0FF1146-32FF-444C-BC95-9626761FC64D";
paths = (
{
closed = 1;
nodes = (
"372 -11 OFFCURVE",
"431 8 OFFCURVE",
"476 48 CURVE",
"519 10 OFFCURVE",
"581 -11 OFFCURVE",
"667 -11 CURVE SMOOTH",
"769 -11 OFFCURVE",
"863 43 OFFCURVE",
"891 74 CURVE",
"861 142 LINE",
"831 126 OFFCURVE",
"771 105 OFFCURVE",
"720 105 CURVE SMOOTH",
"641 105 OFFCURVE",
"598 152 OFFCURVE",
"588 257 CURVE",
"888 257 LINE",
"893 284 OFFCURVE",
"897 317 OFFCURVE",
"896 365 CURVE SMOOTH",
"895 492 OFFCURVE",
"820 570 OFFCURVE",
"669 570 CURVE SMOOTH",
"598 570 OFFCURVE",
"539 552 OFFCURVE",
"494 517 CURVE",
"452 555 OFFCURVE",
"392 570 OFFCURVE",
"318 570 CURVE SMOOTH",
"159 570 OFFCURVE",
"26 478 OFFCURVE",
"26 272 CURVE SMOOTH",
"26 81 OFFCURVE",
"143 -11 OFFCURVE",
"302 -11 CURVE SMOOTH"
);
},
{
closed = 1;
nodes = (
"259 65 OFFCURVE",
"234 120 OFFCURVE",
"234 286 CURVE SMOOTH",
"234 437 OFFCURVE",
"258 494 OFFCURVE",
"308 494 CURVE SMOOTH",
"363 494 OFFCURVE",
"383 438 OFFCURVE",
"383 273 CURVE SMOOTH",
"383 123 OFFCURVE",
"362 65 OFFCURVE",
"313 65 CURVE SMOOTH"
);
},
{
closed = 1;
nodes = (
"587 471 OFFCURVE",
"616 494 OFFCURVE",
"657 494 CURVE SMOOTH",
"702 494 OFFCURVE",
"713 446 OFFCURVE",
"713 371 CURVE SMOOTH",
"713 357 OFFCURVE",
"713 344 OFFCURVE",
"713 330 CURVE",
"586 330 LINE"
);
}
);
width = 926;
}
);
unicode = 0153;
},
{
glyphname = p;
layers = (
{
anchors = (
{
name = mark0;
position = "{325, -83}";
},
{
name = top;
position = "{314, 555}";
}
);
layerId = UUID0;
paths = (
{
closed = 1;
nodes = (
"578 490 OFFCURVE",
"470 570 OFFCURVE",
"359 570 CURVE SMOOTH",
"275 570 OFFCURVE",
"213 526 OFFCURVE",
"178 490 CURVE",
"178 551 LINE",
"160 567 LINE",
"158 567 LINE",
"30 551 LINE",
"30 506 LINE",
"108 489 LINE",
"108 -188 LINE",
"31 -198 LINE",
"31 -242 LINE",
"299 -242 LINE",
"299 -198 LINE",
"188 -188 LINE",
"188 -80 LINE",
"186 5 LINE",
"213 -5 OFFCURVE",
"260 -11 OFFCURVE",
"296 -11 CURVE SMOOTH",
"467 -11 OFFCURVE",
"578 126 OFFCURVE",
"578 298 CURVE SMOOTH"
);
},
{
closed = 1;
nodes = (
"415 509 OFFCURVE",
"492 443 OFFCURVE",
"491 284 CURVE",
"488 113 OFFCURVE",
"407 36 OFFCURVE",
"300 36 CURVE SMOOTH",
"245 36 OFFCURVE",
"198 54 OFFCURVE",
"188 70 CURVE",
"188 451 LINE",
"211 476 OFFCURVE",
"263 509 OFFCURVE",
"326 509 CURVE SMOOTH"
);
}
);
width = 624;
},
{
anchors = (
{
name = mark0;
position = "{295, -83}";
},
{
name = top;
position = "{339, 556}";
}
);
layerId = "D0FF1146-32FF-444C-BC95-9626761FC64D";
paths = (
{
closed = 1;
nodes = (
"616 493 OFFCURVE",
"522 570 OFFCURVE",
"400 570 CURVE SMOOTH",
"334 570 OFFCURVE",
"278 532 OFFCURVE",
"254 496 CURVE",
"254 547 LINE",
"224 570 LINE",
"222 570 LINE",
"25 546 LINE",
"25 456 LINE",
"79 437 LINE",
"79 -160 LINE",
"24 -173 LINE",
"24 -242 LINE",
"345 -242 LINE",
"345 -173 LINE",
"268 -160 LINE",
"268 -83 LINE",
"265 -3 LINE",
"273 -6 OFFCURVE",
"292 -11 OFFCURVE",
"311 -11 CURVE SMOOTH",
"518 -11 OFFCURVE",
"616 137 OFFCURVE",
"616 295 CURVE SMOOTH"
);
},
{
closed = 1;
nodes = (
"381 467 OFFCURVE",
"414 412 OFFCURVE",
"413 277 CURVE",
"413 111 OFFCURVE",
"367 62 OFFCURVE",
"314 62 CURVE SMOOTH",
"293 62 OFFCURVE",
"276 69 OFFCURVE",
"268 78 CURVE",
"268 439 LINE",
"279 454 OFFCURVE",
"304 467 OFFCURVE",
"331 467 CURVE SMOOTH"
);
}
);
width = 645;
}
);
unicode = 0070;
},
{
glyphname = thorn;
layers = (
{
layerId = UUID0;
paths = (
{
closed = 1;
nodes = (
"-3 765 LINE",
"83 756 LINE",
"83 -192 LINE",
"5 -203 LINE",
"5 -242 LINE",
"279 -242 LINE",
"279 -203 LINE",
"164 -192 LINE",
"163 -66 LINE",
"161 0 LINE",
"192 -6 OFFCURVE",
"229 -11 OFFCURVE",
"269 -11 CURVE SMOOTH",
"444 -11 OFFCURVE",
"554 127 OFFCURVE",
"554 298 CURVE SMOOTH",
"554 490 OFFCURVE",
"447 570 OFFCURVE",
"335 570 CURVE SMOOTH",
"257 570 OFFCURVE",
"199 534 OFFCURVE",
"164 501 CURVE",
"164 805 LINE",
"145 819 LINE",
"143 819 LINE",
"-3 802 LINE"
);
},
{
closed = 1;
nodes = (
"391 509 OFFCURVE",
"468 443 OFFCURVE",
"466 284 CURVE SMOOTH",
"463 118 OFFCURVE",
"384 40 OFFCURVE",
"276 40 CURVE SMOOTH",
"226 40 OFFCURVE",
"174 52 OFFCURVE",
"164 75 CURVE",
"164 445 LINE",
"187 470 OFFCURVE",
"239 509 OFFCURVE",
"302 509 CURVE SMOOTH"
);
}
);
width = 600;
},
{
layerId = "D0FF1146-32FF-444C-BC95-9626761FC64D";
paths = (
{
closed = 1;
nodes = (
"9 729 LINE",
"75 714 LINE",
"75 -160 LINE",
"18 -173 LINE",
"18 -242 LINE",
"349 -242 LINE",
"349 -173 LINE",
"264 -160 LINE",
"264 -68 LINE",
"261 -10 LINE",
"275 -11 OFFCURVE",
"291 -11 OFFCURVE",
"307 -11 CURVE SMOOTH",
"498 -11 OFFCURVE",
"613 121 OFFCURVE",
"613 295 CURVE SMOOTH",
"613 493 OFFCURVE",
"521 570 OFFCURVE",
"399 570 CURVE SMOOTH",
"342 570 OFFCURVE",
"292 542 OFFCURVE",
"263 511 CURVE",
"263 798 LINE",
"226 820 LINE",
"224 820 LINE",
"9 794 LINE"
);
},
{
closed = 1;
nodes = (
"378 459 OFFCURVE",
"410 410 OFFCURVE",
"409 277 CURVE SMOOTH",
"408 126 OFFCURVE",
"369 55 OFFCURVE",
"311 55 CURVE SMOOTH",
"286 55 OFFCURVE",
"268 63 OFFCURVE",
"263 72 CURVE",
"263 431 LINE",
"275 446 OFFCURVE",
"300 459 OFFCURVE",
"327 459 CURVE SMOOTH"
);
}
);
width = 640;
}
);
unicode = 00FE;
},
{
glyphname = q;
layers = (
{
anchors = (
{
name = mark0;
position = "{305, -83}";
}
);
layerId = UUID0;
paths = (
{
closed = 1;
nodes = (
"587 -242 LINE",
"587 -201 LINE",
"517 -191 LINE",
"517 551 LINE",
"500 567 LINE",
"455 553 LINE",
"421 562 OFFCURVE",
"376 570 OFFCURVE",
"331 570 CURVE SMOOTH",
"155 570 OFFCURVE",
"46 438 OFFCURVE",
"46 267 CURVE SMOOTH",
"46 76 OFFCURVE",
"154 -11 OFFCURVE",
"266 -11 CURVE SMOOTH",
"345 -11 OFFCURVE",
"403 28 OFFCURVE",
"439 63 CURVE",
"436 -23 LINE",
"436 -191 LINE",
"324 -201 LINE",
"324 -242 LINE"
);
},
{
closed = 1;
nodes = (
"208 47 OFFCURVE",
"132 122 OFFCURVE",
"134 281 CURVE SMOOTH",
"136 451 OFFCURVE",
"217 526 OFFCURVE",
"323 526 CURVE SMOOTH",
"376 526 OFFCURVE",
"428 507 OFFCURVE",
"436 491 CURVE",
"436 107 LINE",
"414 84 OFFCURVE",
"364 47 OFFCURVE",
"299 47 CURVE SMOOTH"
);
}
);
width = 605;
},
{
anchors = (
{
name = mark0;
position = "{304, -83}";
}
);
layerId = "D0FF1146-32FF-444C-BC95-9626761FC64D";
paths = (
{
closed = 1;
nodes = (
"635 -242 LINE",
"635 -173 LINE",
"568 -160 LINE",
"568 547 LINE",
"541 565 LINE",
"448 549 LINE",
"426 556 OFFCURVE",
"375 570 OFFCURVE",
"335 570 CURVE SMOOTH",
"127 570 OFFCURVE",
"28 423 OFFCURVE",
"28 266 CURVE SMOOTH",
"28 68 OFFCURVE",
"123 -11 OFFCURVE",
"244 -11 CURVE SMOOTH",
"295 -11 OFFCURVE",
"348 10 OFFCURVE",
"382 45 CURVE",
"379 -23 LINE",
"379 -159 LINE",
"273 -173 LINE",
"273 -242 LINE"
);
},
{
closed = 1;
nodes = (
"266 89 OFFCURVE",
"232 146 OFFCURVE",
"233 283 CURVE",
"233 447 OFFCURVE",
"278 494 OFFCURVE",
"330 494 CURVE SMOOTH",
"352 494 OFFCURVE",
"371 487 OFFCURVE",
"379 478 CURVE",
"379 118 LINE",
"367 103 OFFCURVE",
"342 89 OFFCURVE",
"316 89 CURVE SMOOTH"
);
}
);
width = 623;
}
);
unicode = 0071;
},
{
glyphname = r;
layers = (
{
anchors = (
{
name = bottom;
position = "{176, 0}";
},
{
name = mark0;
position = "{176, -83}";
},
{
name = top;
position = "{255, 555}";
}
);
layerId = UUID0;
paths = (
{
closed = 1;
nodes = (
"343 0 LINE",
"343 41 LINE",
"210 49 LINE",
"210 428 LINE",
"241 451 OFFCURVE",
"295 487 OFFCURVE",
"381 487 CURVE SMOOTH",
"403 487 OFFCURVE",
"423 481 OFFCURVE",
"427 478 CURVE",
"427 566 LINE",
"420 568 OFFCURVE",
"411 570 OFFCURVE",
"397 570 CURVE SMOOTH",
"287 570 OFFCURVE",
"212 472 OFFCURVE",
"200 459 CURVE",
"198 459 LINE",
"200 535 LINE",
"200 551 LINE",
"181 567 LINE",
"179 567 LINE",
"52 551 LINE",
"52 506 LINE",
"129 489 LINE",
"129 48 LINE",
"49 42 LINE",
"49 0 LINE"
);
}
);
width = 450;
},
{
anchors = (
{
name = bottom;
position = "{195, 0}";
},
{
name = mark0;
position = "{197, -90}";
},
{
name = top;
position = "{265, 556}";
}
);
layerId = "D0FF1146-32FF-444C-BC95-9626761FC64D";
paths = (
{
closed = 1;
nodes = (
"390 0 LINE",
"390 74 LINE",
"288 84 LINE",
"288 369 LINE",
"302 378 OFFCURVE",
"336 389 OFFCURVE",
"378 389 CURVE SMOOTH",
"429 389 OFFCURVE",
"453 373 OFFCURVE",
"473 358 CURVE",
"473 562 LINE",
"465 566 OFFCURVE",
"449 570 OFFCURVE",
"429 570 CURVE SMOOTH",
"337 570 OFFCURVE",
"269 485 OFFCURVE",
"257 434 CURVE",
"253 434 LINE",
"257 520 LINE",
"257 547 LINE",
"225 570 LINE",
"222 570 LINE",
"42 546 LINE",
"42 456 LINE",
"95 437 LINE",
"95 84 LINE",
"41 74 LINE",
"41 0 LINE"
);
}
);
width = 490;
}
);
unicode = 0072;
},
{
glyphname = s;
layers = (
{
anchors = (
{
name = bottom;
position = "{248, 0}";
},
{
name = mark0;
position = "{254, -83}";
},
{
name = top;
position = "{258, 555}";
}
);
layerId = UUID0;
paths = (
{
closed = 1;
nodes = (
"58 157 LINE",
"58 31 LINE",
"90 14 OFFCURVE",
"176 -11 OFFCURVE",
"238 -11 CURVE SMOOTH",
"361 -11 OFFCURVE",
"445 48 OFFCURVE",
"445 148 CURVE SMOOTH",
"445 248 OFFCURVE",
"361 284 OFFCURVE",
"272 319 CURVE",
"206 347 OFFCURVE",
"140 366 OFFCURVE",
"140 442 CURVE SMOOTH",
"140 491 OFFCURVE",
"186 522 OFFCURVE",
"251 521 CURVE SMOOTH",
"296 521 OFFCURVE",
"337 507 OFFCURVE",
"346 490 CURVE",
"364 417 LINE",
"413 417 LINE",
"413 536 LINE",
"392 544 OFFCURVE",
"338 567 OFFCURVE",
"259 567 CURVE SMOOTH",
"155 567 OFFCURVE",
"65 513 OFFCURVE",
"65 425 CURVE SMOOTH",
"65 334 OFFCURVE",
"115 286 OFFCURVE",
"220 249 CURVE",
"319 212 OFFCURVE",
"370 185 OFFCURVE",
"370 126 CURVE SMOOTH",
"370 72 OFFCURVE",
"337 36 OFFCURVE",
"248 36 CURVE SMOOTH",
"193 36 OFFCURVE",
"141 58 OFFCURVE",
"127 79 CURVE",
"112 157 LINE"
);
}
);
width = 496;
},
{
anchors = (
{
name = bottom;
position = "{270, -6}";
},
{
name = mark0;
position = "{273, -90}";
},
{
name = top;
position = "{270, 556}";
}
);
layerId = "D0FF1146-32FF-444C-BC95-9626761FC64D";
paths = (
{
closed = 1;
nodes = (
"43 164 LINE",
"43 28 LINE",
"82 23 OFFCURVE",
"151 -11 OFFCURVE",
"273 -11 CURVE SMOOTH",
"449 -11 OFFCURVE",
"515 73 OFFCURVE",
"515 161 CURVE SMOOTH",
"515 266 OFFCURVE",
"426 312 OFFCURVE",
"343 348 CURVE SMOOTH",
"278 377 OFFCURVE",
"219 397 OFFCURVE",
"219 444 CURVE SMOOTH",
"219 477 OFFCURVE",
"245 498 OFFCURVE",
"290 498 CURVE SMOOTH",
"321 498 OFFCURVE",
"342 486 OFFCURVE",
"348 476 CURVE",
"376 398 LINE",
"480 398 LINE",
"480 540 LINE",
"441 542 OFFCURVE",
"388 569 OFFCURVE",
"276 569 CURVE SMOOTH",
"121 569 OFFCURVE",
"40 494 OFFCURVE",
"40 401 CURVE SMOOTH",
"40 314 OFFCURVE",
"87 262 OFFCURVE",
"162 225 CURVE SMOOTH",
"245 183 OFFCURVE",
"322 164 OFFCURVE",
"322 114 CURVE SMOOTH",
"322 85 OFFCURVE",
"298 61 OFFCURVE",
"252 61 CURVE SMOOTH",
"224 61 OFFCURVE",
"188 73 OFFCURVE",
"181 85 CURVE",
"152 164 LINE"
);
}
);
width = 539;
}
);
unicode = 0073;
},
{
glyphname = scedilla;
layers = (
{
anchors = (
{
name = _bottom;
position = "{248, 0}";
},
{
name = bottom;
position = "{248, 0}";
},
{
name = mark0;
position = "{254, -83}";
},
{
name = top;
position = "{248, 555}";
}
);
layerId = UUID0;
paths = (
{
closed = 1;
nodes = (
"284 -235 OFFCURVE",
"328 -211 OFFCURVE",
"331 -143 CURVE SMOOTH",
"333.628 -87.806 OFFCURVE",
"299.414 -34.146 OFFCURVE",
"276.774 -8.92 CURVE",
"378.315 2.35 OFFCURVE",
"445 58.9 OFFCURVE",
"445 148 CURVE SMOOTH",
"445 248 OFFCURVE",
"361 284 OFFCURVE",
"272 319 CURVE SMOOTH",
"206 347 OFFCURVE",
"140 366 OFFCURVE",
"140 442 CURVE SMOOTH",
"140 491 OFFCURVE",
"186 522 OFFCURVE",
"251 521 CURVE SMOOTH",
"296 521 OFFCURVE",
"337 507 OFFCURVE",
"346 490 CURVE",
"364 417 LINE",
"413 417 LINE",
"413 536 LINE",
"392 544 OFFCURVE",
"338 567 OFFCURVE",
"259 567 CURVE SMOOTH",
"155 567 OFFCURVE",
"65 513 OFFCURVE",
"65 425 CURVE SMOOTH",
"65 334 OFFCURVE",
"115 286 OFFCURVE",
"220 249 CURVE SMOOTH",
"319 212 OFFCURVE",
"370 185 OFFCURVE",
"370 126 CURVE SMOOTH",
"370 72 OFFCURVE",
"337 36 OFFCURVE",
"248 36 CURVE SMOOTH",
"193 36 OFFCURVE",
"141 58 OFFCURVE",
"127 79 CURVE",
"112 157 LINE",
"58 157 LINE",
"58 31 LINE",
"89.278 14.384 OFFCURVE",
"172.146 -9.876 OFFCURVE",
"233.767 -10.962 CURVE",
"244.781 -30.395 OFFCURVE",
"261 -66.17 OFFCURVE",
"261 -100 CURVE SMOOTH",
"261 -161 OFFCURVE",
"234 -171 OFFCURVE",
"185 -171 CURVE SMOOTH",
"175 -171 OFFCURVE",
"153 -168 OFFCURVE",
"139 -163 CURVE",
"138 -222 LINE",
"156 -229 OFFCURVE",
"186 -235 OFFCURVE",
"209 -235 CURVE SMOOTH"
);
}
);
width = 496;
},
{
anchors = (
{
name = _bottom;
position = "{270, 0}";
},
{
name = bottom;
position = "{270, 0}";
},
{
name = mark0;
position = "{241, -83}";
},
{
name = top;
position = "{270, 556}";
}
);
layerId = "D0FF1146-32FF-444C-BC95-9626761FC64D";
paths = (
{
closed = 1;
nodes = (
"324 -264 OFFCURVE",
"380 -237 OFFCURVE",
"385 -145 CURVE SMOOTH",
"388.357 -86.257 OFFCURVE",
"350.868 -34.556 OFFCURVE",
"325.722 -8.218 CURVE",
"462.356 7.004 OFFCURVE",
"515 82.406 OFFCURVE",
"515 161 CURVE SMOOTH",
"515 266 OFFCURVE",
"426 312 OFFCURVE",
"343 348 CURVE SMOOTH",
"278 377 OFFCURVE",
"219 397 OFFCURVE",
"219 444 CURVE SMOOTH",
"219 477 OFFCURVE",
"245 498 OFFCURVE",
"290 498 CURVE SMOOTH",
"321 498 OFFCURVE",
"342 486 OFFCURVE",
"348 476 CURVE",
"376 398 LINE",
"480 398 LINE",
"480 540 LINE",
"441 542 OFFCURVE",
"388 569 OFFCURVE",
"276 569 CURVE SMOOTH",
"121 569 OFFCURVE",
"40 494 OFFCURVE",
"40 401 CURVE SMOOTH",
"40 314 OFFCURVE",
"87 262 OFFCURVE",
"162 225 CURVE SMOOTH",
"245 183 OFFCURVE",
"322 164 OFFCURVE",
"322 114 CURVE SMOOTH",
"322 85 OFFCURVE",
"298 61 OFFCURVE",
"252 61 CURVE SMOOTH",
"224 61 OFFCURVE",
"188 73 OFFCURVE",
"181 85 CURVE",
"152 164 LINE",
"43 164 LINE",
"43 28 LINE",
"78.254 23.48 OFFCURVE",
"138.023 -4.737 OFFCURVE",
"239.294 -10.115 CURVE",
"249.927 -28.566 OFFCURVE",
"262 -57.22 OFFCURVE",
"262 -83 CURVE SMOOTH",
"262 -145 OFFCURVE",
"239 -151 OFFCURVE",
"195 -151 CURVE SMOOTH",
"188 -151 OFFCURVE",
"169 -149 OFFCURVE",
"155 -145 CURVE",
"155 -249 LINE",
"172 -257 OFFCURVE",
"203 -264 OFFCURVE",
"226 -264 CURVE SMOOTH"
);
}
);
width = 539;
}
);
unicode = 015F;
},
{
glyphname = scommaaccent;
layers = (
{
anchors = (
{
name = mark0;
position = "{254, -83}";
}
);
layerId = UUID0;
paths = (
{
closed = 1;
nodes = (
"58 157 LINE",
"58 31 LINE",
"90 14 OFFCURVE",
"176 -11 OFFCURVE",
"238 -11 CURVE SMOOTH",
"361 -11 OFFCURVE",
"445 48 OFFCURVE",
"445 148 CURVE SMOOTH",
"445 248 OFFCURVE",
"361 284 OFFCURVE",
"272 319 CURVE",
"206 347 OFFCURVE",
"140 366 OFFCURVE",
"140 442 CURVE SMOOTH",
"140 491 OFFCURVE",
"186 522 OFFCURVE",
"251 521 CURVE SMOOTH",
"296 521 OFFCURVE",
"337 507 OFFCURVE",
"346 490 CURVE",
"364 417 LINE",
"413 417 LINE",
"413 536 LINE",
"392 544 OFFCURVE",
"338 567 OFFCURVE",
"259 567 CURVE SMOOTH",
"155 567 OFFCURVE",
"65 513 OFFCURVE",
"65 425 CURVE SMOOTH",
"65 334 OFFCURVE",
"115 286 OFFCURVE",
"220 249 CURVE",
"319 212 OFFCURVE",
"370 185 OFFCURVE",
"370 126 CURVE SMOOTH",
"370 72 OFFCURVE",
"337 36 OFFCURVE",
"248 36 CURVE SMOOTH",
"193 36 OFFCURVE",
"141 58 OFFCURVE",
"127 79 CURVE",
"112 157 LINE"
);
},
{
closed = 1;
nodes = (
"314 -86 OFFCURVE",
"290 -58 OFFCURVE",
"253 -58 CURVE SMOOTH",
"249 -58 LINE SMOOTH",
"237 -58 OFFCURVE",
"205 -65 OFFCURVE",
"205 -102 CURVE SMOOTH",
"205 -123 OFFCURVE",
"214 -132 OFFCURVE",
"224 -139 CURVE SMOOTH",
"234 -146 OFFCURVE",
"245 -155 OFFCURVE",
"245 -175 CURVE SMOOTH",
"245 -206 OFFCURVE",
"231 -237 OFFCURVE",
"211 -247 CURVE",
"211 -253 LINE",
"238 -272 LINE",
"239 -272 LINE",
"250 -268 OFFCURVE",
"314 -219 OFFCURVE",
"314 -138 CURVE SMOOTH"
);
}
);
width = 504;
},
{
anchors = (
{
name = mark0;
position = "{241, -83}";
}
);
layerId = "D0FF1146-32FF-444C-BC95-9626761FC64D";
paths = (
{
closed = 1;
nodes = (
"43 164 LINE",
"43 28 LINE",
"82 23 OFFCURVE",
"151 -11 OFFCURVE",
"273 -11 CURVE SMOOTH",
"449 -11 OFFCURVE",
"515 73 OFFCURVE",
"515 161 CURVE SMOOTH",
"515 266 OFFCURVE",
"426 312 OFFCURVE",
"343 348 CURVE SMOOTH",
"278 377 OFFCURVE",
"219 397 OFFCURVE",
"219 444 CURVE SMOOTH",
"219 477 OFFCURVE",
"245 498 OFFCURVE",
"290 498 CURVE SMOOTH",
"321 498 OFFCURVE",
"342 486 OFFCURVE",
"348 476 CURVE",
"376 398 LINE",
"480 398 LINE",
"480 540 LINE",
"441 542 OFFCURVE",
"388 569 OFFCURVE",
"276 569 CURVE SMOOTH",
"121 569 OFFCURVE",
"40 494 OFFCURVE",
"40 401 CURVE SMOOTH",
"40 314 OFFCURVE",
"87 262 OFFCURVE",
"162 225 CURVE SMOOTH",
"245 183 OFFCURVE",
"322 164 OFFCURVE",
"322 114 CURVE SMOOTH",
"322 85 OFFCURVE",
"298 61 OFFCURVE",
"252 61 CURVE SMOOTH",
"224 61 OFFCURVE",
"188 73 OFFCURVE",
"181 85 CURVE",
"152 164 LINE"
);
},
{
closed = 1;
nodes = (
"356 -70 OFFCURVE",
"321 -42 OFFCURVE",
"272 -42 CURVE SMOOTH",
"269 -42 LINE SMOOTH",
"233 -42 OFFCURVE",
"182 -57 OFFCURVE",
"182 -107 CURVE SMOOTH",
"182 -134 OFFCURVE",
"195 -150 OFFCURVE",
"206 -158 CURVE SMOOTH",
"214 -163 OFFCURVE",
"224 -172 OFFCURVE",
"224 -193 CURVE SMOOTH",
"224 -215 OFFCURVE",
"216 -247 OFFCURVE",
"203 -252 CURVE",
"206 -260 LINE",
"266 -273 LINE",
"268 -273 LINE",
"296 -263 OFFCURVE",
"355 -195 OFFCURVE",
"356 -123 CURVE SMOOTH"
);
}
);
width = 539;
}
);
unicode = 0219;
},
{
glyphname = sdotaccent;
layers = (
{
anchors = (
{
name = mark0;
position = "{254, -83}";
}
);
layerId = UUID0;
paths = (
{
closed = 1;
nodes = (
"254 670 LINE",
"295 670 OFFCURVE",
"314 700 OFFCURVE",
"314 736 CURVE SMOOTH",
"314 764 OFFCURVE",
"296 793 OFFCURVE",
"262 793 CURVE SMOOTH",
"222 793 OFFCURVE",
"203 760 OFFCURVE",
"203 727 CURVE SMOOTH",
"203 696 OFFCURVE",
"222 670 OFFCURVE",
"253 670 CURVE"
);
},
{
closed = 1;
nodes = (
"58 157 LINE",
"58 31 LINE",
"90 14 OFFCURVE",
"176 -11 OFFCURVE",
"238 -11 CURVE SMOOTH",
"361 -11 OFFCURVE",
"445 48 OFFCURVE",
"445 148 CURVE SMOOTH",
"445 248 OFFCURVE",
"361 284 OFFCURVE",
"272 319 CURVE",
"206 347 OFFCURVE",
"140 366 OFFCURVE",
"140 442 CURVE SMOOTH",
"140 491 OFFCURVE",
"186 522 OFFCURVE",
"251 521 CURVE SMOOTH",
"296 521 OFFCURVE",
"337 507 OFFCURVE",
"346 490 CURVE",
"364 417 LINE",
"413 417 LINE",
"413 536 LINE",
"392 544 OFFCURVE",
"338 567 OFFCURVE",
"259 567 CURVE SMOOTH",
"155 567 OFFCURVE",
"65 513 OFFCURVE",
"65 425 CURVE SMOOTH",
"65 334 OFFCURVE",
"115 286 OFFCURVE",
"220 249 CURVE",
"319 212 OFFCURVE",
"370 185 OFFCURVE",
"370 126 CURVE SMOOTH",
"370 72 OFFCURVE",
"337 36 OFFCURVE",
"248 36 CURVE SMOOTH",
"193 36 OFFCURVE",
"141 58 OFFCURVE",
"127 79 CURVE",
"112 157 LINE"
);
}
);
width = 496;
},
{
anchors = (
{
name = mark0;
position = "{241, -83}";
}
);
layerId = "D0FF1146-32FF-444C-BC95-9626761FC64D";
paths = (
{
closed = 1;
nodes = (
"267 635 LINE",
"343 635 OFFCURVE",
"381 682 OFFCURVE",
"381 742 CURVE SMOOTH",
"381 793 OFFCURVE",
"346 833 OFFCURVE",
"278 833 CURVE SMOOTH",
"209 833 OFFCURVE",
"168 786 OFFCURVE",
"168 726 CURVE SMOOTH",
"168 674 OFFCURVE",
"209 635 OFFCURVE",
"266 635 CURVE"
);
},
{
closed = 1;
nodes = (
"43 164 LINE",
"43 28 LINE",
"82 23 OFFCURVE",
"151 -11 OFFCURVE",
"273 -11 CURVE SMOOTH",
"449 -11 OFFCURVE",
"515 73 OFFCURVE",
"515 161 CURVE SMOOTH",
"515 266 OFFCURVE",
"426 312 OFFCURVE",
"343 348 CURVE SMOOTH",
"278 377 OFFCURVE",
"219 397 OFFCURVE",
"219 444 CURVE SMOOTH",
"219 477 OFFCURVE",
"245 498 OFFCURVE",
"290 498 CURVE SMOOTH",
"321 498 OFFCURVE",
"342 486 OFFCURVE",
"348 476 CURVE",
"376 398 LINE",
"480 398 LINE",
"480 540 LINE",
"441 542 OFFCURVE",
"388 569 OFFCURVE",
"276 569 CURVE SMOOTH",
"121 569 OFFCURVE",
"40 494 OFFCURVE",
"40 401 CURVE SMOOTH",
"40 314 OFFCURVE",
"87 262 OFFCURVE",
"162 225 CURVE SMOOTH",
"245 183 OFFCURVE",
"322 164 OFFCURVE",
"322 114 CURVE SMOOTH",
"322 85 OFFCURVE",
"298 61 OFFCURVE",
"252 61 CURVE SMOOTH",
"224 61 OFFCURVE",
"188 73 OFFCURVE",
"181 85 CURVE",
"152 164 LINE"
);
}
);
width = 539;
}
);
unicode = 1E61;
},
{
glyphname = germandbls;
layers = (
{
layerId = UUID0;
paths = (
{
closed = 1;
nodes = (
"26 43 LINE",
"26 0 LINE",
"179 0 LINE",
"179 479 LINE SMOOTH",
"179 647 OFFCURVE",
"246 731 OFFCURVE",
"347 731 CURVE SMOOTH",
"417 731 OFFCURVE",
"451 695 OFFCURVE",
"451 626 CURVE SMOOTH",
"451 532 OFFCURVE",
"344 486 OFFCURVE",
"344 415 CURVE SMOOTH",
"344 290 OFFCURVE",
"513 262 OFFCURVE",
"513 142 CURVE SMOOTH",
"513 89 OFFCURVE",
"479 48 OFFCURVE",
"394 48 CURVE SMOOTH",
"356 48 OFFCURVE",
"321 56 OFFCURVE",
"296 66 CURVE",
"296 0 LINE",
"315 -5 OFFCURVE",
"353 -11 OFFCURVE",
"380 -11 CURVE SMOOTH",
"502 -11 OFFCURVE",
"600 44 OFFCURVE",
"600 161 CURVE SMOOTH",
"600 308 OFFCURVE",
"422 344 OFFCURVE",
"422 434 CURVE SMOOTH",
"422 507 OFFCURVE",
"535 535 OFFCURVE",
"535 650 CURVE SMOOTH",
"535 744 OFFCURVE",
"457 783 OFFCURVE",
"370 783 CURVE SMOOTH",
"228 783 OFFCURVE",
"97 673 OFFCURVE",
"97 463 CURVE SMOOTH",
"97 51 LINE"
);
}
);
width = 623;
},
{
layerId = "D0FF1146-32FF-444C-BC95-9626761FC64D";
paths = (
{
closed = 1;
nodes = (
"20 74 LINE",
"20 0 LINE",
"266 0 LINE",
"266 495 LINE SMOOTH",
"266 636 OFFCURVE",
"300 708 OFFCURVE",
"370 708 CURVE SMOOTH",
"404 708 OFFCURVE",
"430 691 OFFCURVE",
"430 637 CURVE SMOOTH",
"430 497 OFFCURVE",
"337 503 OFFCURVE",
"337 407 CURVE SMOOTH",
"337 308 OFFCURVE",
"458 282 OFFCURVE",
"458 155 CURVE SMOOTH",
"458 113 OFFCURVE",
"433 78 OFFCURVE",
"389 78 CURVE SMOOTH",
"366 78 OFFCURVE",
"340 84 OFFCURVE",
"327 91 CURVE",
"327 0 LINE",
"346 -5 OFFCURVE",
"392 -11 OFFCURVE",
"411 -11 CURVE SMOOTH",
"591 -11 OFFCURVE",
"667 69 OFFCURVE",
"667 178 CURVE SMOOTH",
"667 354 OFFCURVE",
"493 402 OFFCURVE",
"493 474 CURVE SMOOTH",
"493 545 OFFCURVE",
"604 543 OFFCURVE",
"604 656 CURVE SMOOTH",
"604 737 OFFCURVE",
"542 789 OFFCURVE",
"393 789 CURVE SMOOTH",
"187 789 OFFCURVE",
"70 646 OFFCURVE",
"70 476 CURVE SMOOTH",
"70 85 LINE"
);
}
);
width = 680;
}
);
unicode = 00DF;
},
{
glyphname = t;
layers = (
{
anchors = (
{
name = bottom;
position = "{233, 0}";
},
{
name = center;
position = "{203, 278}";
},
{
name = mark0;
position = "{237, -83}";
},
{
name = top;
position = "{173, 655}";
},
{
name = topright;
position = "{316, 555}";
}
);
layerId = UUID0;
paths = (
{
closed = 1;
nodes = (
"273 -11 OFFCURVE",
"357 18 OFFCURVE",
"386 40 CURVE",
"373 78 LINE",
"351 67 OFFCURVE",
"295 53 OFFCURVE",
"254 53 CURVE SMOOTH",
"199 53 OFFCURVE",
"192 61 OFFCURVE",
"192 172 CURVE SMOOTH",
"192 496 LINE",
"369 496 LINE",
"369 555 LINE",
"192 555 LINE",
"192 697 LINE",
"146 697 LINE",
"142 679 OFFCURVE",
"124 605 OFFCURVE",
"115 582 CURVE",
"110 566 OFFCURVE",
"104 557 OFFCURVE",
"93 551 CURVE SMOOTH",
"85 546 OFFCURVE",
"53 539 OFFCURVE",
"35 535 CURVE",
"35 496 LINE",
"111 496 LINE",
"111 101 LINE SMOOTH",
"111 13 OFFCURVE",
"152 -11 OFFCURVE",
"218 -11 CURVE"
);
}
);
width = 406;
},
{
anchors = (
{
name = bottom;
position = "{225, 0}";
},
{
name = center;
position = "{205, 278}";
},
{
name = mark0;
position = "{215, -83}";
},
{
name = top;
position = "{215, 686}";
},
{
name = topright;
position = "{347, 556}";
}
);
layerId = "D0FF1146-32FF-444C-BC95-9626761FC64D";
paths = (
{
closed = 1;
nodes = (
"296 -8 OFFCURVE",
"374 21 OFFCURVE",
"412 51 CURVE",
"388 122 LINE",
"367 116 OFFCURVE",
"342 110 OFFCURVE",
"310 110 CURVE",
"272 110 OFFCURVE",
"269 118 OFFCURVE",
"269 220 CURVE SMOOTH",
"269 464 LINE",
"398 464 LINE",
"398 556 LINE",
"267 556 LINE",
"259 709 LINE",
"149 709 LINE",
"138 671 OFFCURVE",
"127 640 OFFCURVE",
"115 613 CURVE SMOOTH",
"104 586 OFFCURVE",
"92 569 OFFCURVE",
"80 557 CURVE",
"59 547 OFFCURVE",
"37 538 OFFCURVE",
"16 528 CURVE",
"16 464 LINE",
"72 464 LINE",
"72 121 LINE SMOOTH",
"72 38 OFFCURVE",
"113 -8 OFFCURVE",
"209 -8 CURVE"
);
}
);
width = 409;
}
);
unicode = 0074;
},
{
glyphname = tbar;
layers = (
{
layerId = UUID0;
paths = (
{
closed = 1;
nodes = (
"36 360 LINE",
"36 305 LINE",
"111 305 LINE",
"111 101 LINE SMOOTH",
"111 13 OFFCURVE",
"152 -11 OFFCURVE",
"217 -11 CURVE",
"218 -11 LINE",
"273 -11 OFFCURVE",
"357 18 OFFCURVE",
"386 40 CURVE",
"374 78 LINE",
"373 78 LINE",
"351 67 OFFCURVE",
"295 53 OFFCURVE",
"254 53 CURVE SMOOTH",
"199 53 OFFCURVE",
"192 61 OFFCURVE",
"192 172 CURVE SMOOTH",
"192 305 LINE",
"369 305 LINE",
"369 360 LINE",
"192 360 LINE",
"192 496 LINE",
"369 496 LINE",
"369 555 LINE",
"192 555 LINE",
"192 697 LINE",
"146 697 LINE",
"142 679 OFFCURVE",
"124 605 OFFCURVE",
"115 582 CURVE",
"110 566 OFFCURVE",
"104 557 OFFCURVE",
"93 551 CURVE SMOOTH",
"85 546 OFFCURVE",
"53 539 OFFCURVE",
"35 535 CURVE",
"35 496 LINE",
"111 496 LINE",
"111 360 LINE"
);
}
);
width = 406;
},
{
layerId = "D0FF1146-32FF-444C-BC95-9626761FC64D";
paths = (
{
closed = 1;
nodes = (
"14 359 LINE",
"14 275 LINE",
"73 275 LINE",
"73 121 LINE SMOOTH",
"73 38 OFFCURVE",
"113 -8 OFFCURVE",
"208 -8 CURVE",
"209 -8 LINE",
"296 -8 OFFCURVE",
"375 21 OFFCURVE",
"413 51 CURVE",
"389 122 LINE",
"388 122 LINE",
"367 116 OFFCURVE",
"342 110 OFFCURVE",
"311 110 CURVE SMOOTH",
"273 110 OFFCURVE",
"269 118 OFFCURVE",
"269 220 CURVE SMOOTH",
"269 275 LINE",
"392 275 LINE",
"392 359 LINE",
"269 359 LINE",
"269 464 LINE",
"398 464 LINE",
"398 556 LINE",
"267 556 LINE",
"259 709 LINE",
"150 709 LINE",
"138 671 OFFCURVE",
"128 640 OFFCURVE",
"115 613 CURVE",
"104 586 OFFCURVE",
"92 569 OFFCURVE",
"81 557 CURVE",
"81 556 OFFCURVE",
"16 529 OFFCURVE",
"17 528 CURVE",
"17 464 LINE",
"73 464 LINE",
"73 359 LINE"
);
}
);
width = 413;
}
);
unicode = 0167;
},
{
glyphname = tcedilla;
layers = (
{
anchors = (
{
name = _bottom;
position = "{233, 0}";
},
{
name = bottom;
position = "{233, 0}";
},
{
name = center;
position = "{203, 278}";
},
{
name = mark0;
position = "{237, -83}";
},
{
name = top;
position = "{173, 655}";
},
{
name = topright;
position = "{306, 665}";
}
);
layerId = UUID0;
paths = (
{
closed = 1;
nodes = (
"111 496 LINE",
"111 101 LINE SMOOTH",
"111 13 OFFCURVE",
"152 -11 OFFCURVE",
"218 -11 CURVE",
"229.801 -30.439 OFFCURVE",
"246 -66.191 OFFCURVE",
"246 -100 CURVE SMOOTH",
"246 -161 OFFCURVE",
"219 -171 OFFCURVE",
"170 -171 CURVE SMOOTH",
"160 -171 OFFCURVE",
"138 -168 OFFCURVE",
"124 -163 CURVE",
"123 -222 LINE",
"141 -229 OFFCURVE",
"171 -235 OFFCURVE",
"194 -235 CURVE SMOOTH",
"269 -235 OFFCURVE",
"313 -211 OFFCURVE",
"316 -143 CURVE SMOOTH",
"318.705 -86.194 OFFCURVE",
"282.384 -31.013 OFFCURVE",
"259.821 -6.784 CURVE",
"308.947 2.053 OFFCURVE",
"363.714 23.093 OFFCURVE",
"386 40 CURVE",
"373 78 LINE",
"351 67 OFFCURVE",
"295 53 OFFCURVE",
"254 53 CURVE SMOOTH",
"199 53 OFFCURVE",
"192 61 OFFCURVE",
"192 172 CURVE SMOOTH",
"192 496 LINE",
"369 496 LINE",
"369 555 LINE",
"192 555 LINE",
"192 697 LINE",
"146 697 LINE",
"142 679 OFFCURVE",
"124 605 OFFCURVE",
"115 582 CURVE",
"110 566 OFFCURVE",
"104 557 OFFCURVE",
"93 551 CURVE",
"85 546 OFFCURVE",
"53 539 OFFCURVE",
"35 535 CURVE",
"35 496 LINE"
);
}
);
width = 406;
},
{
anchors = (
{
name = _bottom;
position = "{225, 0}";
},
{
name = bottom;
position = "{225, 0}";
},
{
name = center;
position = "{205, 278}";
},
{
name = mark0;
position = "{215, -83}";
},
{
name = top;
position = "{215, 686}";
},
{
name = topright;
position = "{339, 686}";
}
);
layerId = "D0FF1146-32FF-444C-BC95-9626761FC64D";
paths = (
{
closed = 1;
nodes = (
"72 464 LINE",
"72 121 LINE SMOOTH",
"72 42.836 OFFCURVE",
"108.361 -2.514 OFFCURVE",
"192.777 -7.533 CURVE",
"203.742 -25.813 OFFCURVE",
"217 -55.985 OFFCURVE",
"217 -83 CURVE SMOOTH",
"217 -145 OFFCURVE",
"194 -151 OFFCURVE",
"150 -151 CURVE SMOOTH",
"143 -151 OFFCURVE",
"124 -149 OFFCURVE",
"110 -145 CURVE",
"110 -249 LINE",
"127 -257 OFFCURVE",
"158 -264 OFFCURVE",
"181 -264 CURVE SMOOTH",
"279 -264 OFFCURVE",
"335 -237 OFFCURVE",
"340 -145 CURVE SMOOTH",
"343.619 -81.664 OFFCURVE",
"299.756 -26.514 OFFCURVE",
"275.075 -2.514 CURVE",
"334.185 7.29 OFFCURVE",
"383.972 28.873 OFFCURVE",
"412 51 CURVE",
"388 122 LINE",
"367 116 OFFCURVE",
"342 110 OFFCURVE",
"310 110 CURVE SMOOTH",
"272 110 OFFCURVE",
"269 118 OFFCURVE",
"269 220 CURVE SMOOTH",
"269 464 LINE",
"398 464 LINE",
"398 556 LINE",
"267 556 LINE",
"259 709 LINE",
"149 709 LINE",
"138 671 OFFCURVE",
"127 640 OFFCURVE",
"115 613 CURVE SMOOTH",
"104 586 OFFCURVE",
"92 569 OFFCURVE",
"80 557 CURVE",
"59 547 OFFCURVE",
"37 538 OFFCURVE",
"16 528 CURVE",
"16 464 LINE"
);
}
);
width = 409;
}
);
unicode = 0163;
},
{
glyphname = u;
layers = (
{
anchors = (
{
name = bottom;
position = "{314, 0}";
},
{
name = mark0;
position = "{324, -83}";
},
{
name = ogonek;
position = "{535, 10}";
},
{
name = top;
position = "{300, 555}";
},
{
name = topright;
position = "{554, 555}";
}
);
layerId = UUID0;
paths = (
{
closed = 1;
nodes = (
"538 -9 OFFCURVE",
"564 0 OFFCURVE",
"586 6 CURVE",
"587 44 LINE",
"525 44 LINE",
"525 555 LINE",
"502 567 LINE",
"501 567 LINE",
"368 554 LINE",
"368 517 LINE",
"444 500 LINE",
"444 114 LINE",
"413 87 OFFCURVE",
"356 50 OFFCURVE",
"291 50 CURVE SMOOTH",
"198 50 OFFCURVE",
"179 99 OFFCURVE",
"179 218 CURVE SMOOTH",
"179 555 LINE",
"161 567 LINE",
"160 567 LINE",
"39 554 LINE",
"39 517 LINE",
"98 500 LINE",
"98 206 LINE SMOOTH",
"98 54 OFFCURVE",
"143 -11 OFFCURVE",
"266 -11 CURVE SMOOTH",
"340 -11 OFFCURVE",
"413 36 OFFCURVE",
"453 72 CURVE",
"453 33 LINE SMOOTH",
"453 -1 OFFCURVE",
"471 -9 OFFCURVE",
"503 -9 CURVE SMOOTH"
);
}
);
width = 628;
},
{
anchors = (
{
name = bottom;
position = "{325, 0}";
},
{
name = mark0;
position = "{347, -83}";
},
{
name = ogonek;
position = "{564, 10}";
},
{
name = top;
position = "{314, 556}";
},
{
name = topright;
position = "{629, 556}";
}
);
layerId = "D0FF1146-32FF-444C-BC95-9626761FC64D";
paths = (
{
closed = 1;
nodes = (
"555 -11 OFFCURVE",
"609 0 OFFCURVE",
"635 5 CURVE",
"635 78 LINE",
"585 78 LINE",
"585 554 LINE",
"560 568 LINE",
"557 568 LINE",
"335 555 LINE",
"335 484 LINE",
"393 470 LINE",
"393 119 LINE",
"383 109 OFFCURVE",
"361 90 OFFCURVE",
"320 90 CURVE SMOOTH",
"279 90 OFFCURVE",
"260 112 OFFCURVE",
"260 188 CURVE SMOOTH",
"260 554 LINE",
"237 568 LINE",
"236 568 LINE",
"24 555 LINE",
"24 482 LINE",
"67 470 LINE",
"67 198 LINE SMOOTH",
"67 46 OFFCURVE",
"119 -11 OFFCURVE",
"253 -11 CURVE SMOOTH",
"320 -11 OFFCURVE",
"389 30 OFFCURVE",
"415 73 CURVE",
"415 57 LINE SMOOTH",
"415 17 OFFCURVE",
"435 -11 OFFCURVE",
"490 -11 CURVE SMOOTH"
);
}
);
width = 649;
}
);
unicode = 0075;
},
